<?xml version="1.0" encoding="UTF-8"?>
<svg width="36px" height="34px" viewBox="0 0 36 34" version="1.1" xmlns="http://www.w3.org/2000/svg" xmlns:xlink="http://www.w3.org/1999/xlink">
    <!-- Generator: Sketch 51 (57462) - http://www.bohemiancoding.com/sketch -->
    <title>Block</title>
    <desc>Created with Sketch.</desc>
    <defs></defs>
    <g id="Block" stroke="none" stroke-width="1" fill="none" fill-rule="evenodd">
        <path d="M16.648887,12.545 C14.880887,12.469 13.127887,12.236 11.457887,11.595 C11.145887,11.475 10.847887,11.315 10.551887,11.157 C10.423887,11.089 10.317887,10.979 10.184887,10.875 C10.559887,10.49 10.999887,10.304 11.446887,10.136 C12.667887,9.679 13.937887,9.451 15.229887,9.303 C16.691887,9.135 18.155887,9.108 19.620887,9.178 C21.152887,9.252 22.671887,9.444 24.147887,9.887 C24.784887,10.078 25.411887,10.292 25.957887,10.693 C26.153887,10.837 26.117887,10.92 25.945887,11.044 C25.410887,11.43 24.799887,11.642 24.180887,11.833 C22.912887,12.225 21.607887,12.437 20.284887,12.494 C19.073887,12.546 17.857887,12.597 16.648887,12.545 Z M20.070887,25.093 C19.537887,25.093 19.105887,24.661 19.105887,24.128 L19.105887,17.375 C19.105887,16.842 19.537887,16.41 20.070887,16.41 L23.490887,16.41 C24.715887,15.186 25.941887,13.965 27.162887,12.738 C27.245887,12.654 27.307887,12.511 27.311887,12.393 C27.327887,11.888 27.322887,11.382 27.315887,10.876 C27.313887,10.762 27.290887,10.642 27.249887,10.535 C27.050887,10.021 26.619887,9.734 26.168887,9.483 C25.148887,8.915 24.030887,8.629 22.896887,8.417 C21.327887,8.123 19.740887,8.004 17.859887,8 C16.000887,8.036 13.873887,8.195 11.803887,8.814 C10.993887,9.057 10.205887,9.347 9.546887,9.901 C9.212887,10.181 8.983887,10.515 9.000887,10.984 C9.018887,11.439 8.992887,11.895 9.012887,12.349 C9.018887,12.483 9.082887,12.644 9.175887,12.738 C11.339887,14.914 13.509887,17.083 15.682887,19.249 C15.818887,19.385 15.875887,19.521 15.875887,19.714 C15.868887,21.467 15.879887,23.221 15.865887,24.974 C15.862887,25.418 16.043887,25.738 16.422887,25.909 C16.785887,26.074 17.174887,26.219 17.566887,26.277 C18.378887,26.397 19.181887,26.323 19.918887,25.912 C20.245887,25.73 20.424887,25.471 20.450887,25.093 L20.070887,25.093 Z" id="Fill-93" fill="#666666"></path>
        <path d="M27.255887,23.7303 C27.255887,24.1883 26.884887,24.5593 26.426887,24.5593 L20.620887,24.5593 C20.162887,24.5593 19.791887,24.1883 19.791887,23.7303 L19.791887,17.9243 C19.791887,17.4663 20.162887,17.0953 20.620887,17.0953 L26.426887,17.0953 C26.884887,17.0953 27.255887,17.4663 27.255887,17.9243 L27.255887,23.7303 Z" id="Fill-94" fill="#A952A5"></path>
    </g>
</svg>