<?xml version="1.0" encoding="UTF-8"?>
<svg width="36px" height="34px" viewBox="0 0 36 34" version="1.1" xmlns="http://www.w3.org/2000/svg" xmlns:xlink="http://www.w3.org/1999/xlink">
    <!-- Generator: Sketch 52.2 (67145) - http://www.bohemiancoding.com/sketch -->
    <title>Check-ins</title>
    <desc>Created with Sketch.</desc>
    <g id="Check-ins" stroke="none" stroke-width="1" fill="none" fill-rule="evenodd">
        <path d="M18.4976776,14.0751 C17.7196776,14.0781 17.0626776,14.7431 17.0686776,15.5231 C17.0736776,16.2941 17.7316776,16.9361 18.5126776,16.9311 C19.2896776,16.9261 19.9376776,16.2731 19.9326776,15.4991 C19.9276776,14.7291 19.2656776,14.0721 18.4976776,14.0751 M18.4926776,18.3301 C16.9766776,18.3701 15.6686776,17.0961 15.6656776,15.5221 C15.6636776,13.9431 16.9246776,12.6691 18.4976776,12.6661 C20.0636776,12.6641 21.3196776,13.9311 21.3326776,15.4991 C21.3456776,17.0761 20.0196776,18.3831 18.4926776,18.3301" id="Fill-93" fill="#666666"></path>
        <path d="M18.4842776,10.197 C18.0252776,10.197 17.5602776,10.26 17.1012776,10.384 C16.3912776,10.576 15.7382776,10.913 15.1602776,11.387 C14.1612776,12.205 13.5282776,13.264 13.2782776,14.534 C13.1182776,15.349 13.1642776,16.185 13.4152776,17.02 C13.6122776,17.676 13.9172776,18.27 14.3222776,18.786 L18.5002776,24.054 L19.6032776,22.665 C20.5572776,21.463 21.5102776,20.261 22.4702776,19.065 C23.1282776,18.244 23.5332776,17.423 23.7092776,16.556 C23.8772776,15.726 23.8412776,14.883 23.6002776,14.049 C23.3752776,13.268 22.9932776,12.574 22.4652776,11.987 C21.6242776,11.052 20.5732776,10.473 19.3392776,10.268 C19.0552776,10.221 18.7672776,10.197 18.4842776,10.197 Z M18.4942776,26.692 C18.0712776,26.692 17.6672776,26.485 17.3552776,26.111 C17.0012776,25.684 16.6592776,25.249 16.3172776,24.813 C16.1522776,24.602 15.9862776,24.391 15.8192776,24.182 L15.1082776,23.287 C14.3642776,22.351 13.6202776,21.415 12.8702776,20.483 C12.1352776,19.568 11.6642776,18.731 11.3882776,17.848 C11.0192776,16.675 10.9172776,15.699 11.0652776,14.776 L11.1062776,14.51 C11.1722776,14.079 11.2402776,13.633 11.3792776,13.201 C11.8262776,11.807 12.6372776,10.626 13.7872776,9.69 C14.5602776,9.063 15.4402776,8.601 16.4052776,8.318 C16.7412776,8.219 17.0832776,8.166 17.4152776,8.115 L17.5032776,8.1 C17.7322776,8.065 17.9632776,8.042 18.1612776,8.023 L18.3932776,8 L18.4212776,8.001 C20.9492776,8.094 22.8932776,9.031 24.3672776,10.864 C24.8882776,11.514 25.2932776,12.251 25.5682776,13.056 C25.9012776,14.024 26.0392776,14.992 25.9792776,15.93 C25.8872776,17.371 25.4402776,18.661 24.6522776,19.764 C24.2662776,20.303 23.8482776,20.826 23.4442776,21.332 L23.0432776,21.835 C22.4342776,22.606 21.8232776,23.375 21.2112776,24.144 L20.2052776,25.414 C20.0202776,25.65 19.8352776,25.886 19.6412776,26.114 C19.3232776,26.487 18.9162776,26.692 18.4942776,26.692 Z" id="Fill-95" fill="#666666"></path>
    </g>
</svg>