<svg width="36px" height="34px" viewBox="0 0 36 34" version="1.1" xmlns="http://www.w3.org/2000/svg" xmlns:xlink="http://www.w3.org/1999/xlink">
    <title>Check-in-Questions</title>
    <g id="Page-1" stroke="none" stroke-width="1" fill="none" fill-rule="evenodd">
        <g id="Check-in-Questions">
            <rect id="Rectangle" x="0" y="0" width="36" height="34"></rect>
            <path d="M15.0148934,20.3068854 C14.7088934,20.3068854 14.4028934,20.2978854 14.0978934,20.3088854 C13.6868934,20.3238854 13.3878934,20.6168854 13.3748934,20.9978854 C13.3618934,21.3658854 13.6638934,21.7328854 14.0508934,21.7458854 C14.6998934,21.7708854 15.3498934,21.7698854 15.9988934,21.7478854 C16.3808934,21.7348854 16.6828934,21.3578854 16.6628934,20.9908854 C16.6428934,20.6188854 16.3538934,20.3258854 15.9698934,20.3098854 C15.6518934,20.2958854 15.3328934,20.3068854 15.0148934,20.3068854 Z M17.1638934,14.4118854 L17.1638934,14.4138854 C18.1608934,14.4138854 19.1568934,14.4178854 20.1538934,14.4118854 C20.6428934,14.4098854 20.9638934,14.1108854 20.9618934,13.6818854 C20.9598934,13.2528854 20.6398934,12.9598854 20.1488934,12.9588854 C18.1678934,12.9548854 16.1868934,12.9558854 14.2068934,12.9598854 C14.0698934,12.9598854 13.9218934,12.9758854 13.7988934,13.0298854 C13.4978934,13.1618854 13.3088934,13.5288854 13.3928934,13.8198854 C13.4918934,14.1668854 13.7048934,14.4088854 14.0968934,14.4108854 C15.1188934,14.4148854 16.1418934,14.4118854 17.1638934,14.4118854 Z M17.1488934,18.1478854 L17.1488934,18.1458854 C18.1578934,18.1458854 19.1668934,18.1578854 20.1758934,18.1408854 C20.6518934,18.1328854 20.9568934,17.8278854 20.9638934,17.4228854 C20.9718934,17.0088854 20.6388934,16.6688854 20.1638934,16.6668854 C18.1708934,16.6578854 16.1788934,16.6578854 14.1858934,16.6718854 C13.9988934,16.6728854 13.7828934,16.7668854 13.6328934,16.8848854 C13.3988934,17.0688854 13.3038934,17.3358854 13.4198934,17.6388854 C13.5558934,17.9948854 13.8338934,18.1448854 14.1978934,18.1458854 C15.1818934,18.1498854 16.1648934,18.1478854 17.1488934,18.1478854 Z M21.5218934,23.7248854 C20.8998934,23.1258854 20.3268934,22.5618854 19.7398934,22.0138854 C19.3848934,21.6818854 18.9368934,21.6928854 18.6458934,22.0098854 C18.3748934,22.3048854 18.3948934,22.7538854 18.7218934,23.0748854 C19.4708934,23.8068854 20.2238934,24.5348854 20.9868934,25.2508854 C21.4138934,25.6528854 21.7918934,25.6328854 22.1808934,25.2038854 C23.5278934,23.7178854 24.8708934,22.2288854 26.2098934,20.7358854 C26.5668934,20.3378854 26.5688934,19.8628854 26.2378934,19.5778854 C25.8908934,19.2798854 25.4718934,19.3468854 25.0988934,19.7588854 C24.2858934,20.6608854 23.4728934,21.5608854 22.6598934,22.4618854 C22.2928934,22.8688854 21.9268934,23.2748854 21.5218934,23.7248854 Z M11.4978934,10.4988854 L22.6498934,10.4988854 L22.6498934,11.0128854 C22.6498934,13.2778854 22.6478934,15.5418854 22.6508934,17.8078854 C22.6508934,18.4328854 22.9968934,18.7708854 23.5308934,18.6828854 C23.9268934,18.6178854 24.1238934,18.3298854 24.1238934,17.7898854 C24.1258934,15.1668854 24.1258934,12.5438854 24.1238934,9.91988544 C24.1228934,9.25388544 23.8858934,9.00388544 23.2288934,9.00288544 C19.1088934,8.99888544 14.9878934,8.99888544 10.8678934,9.00388544 C10.2438934,9.00388544 10.0018934,9.24788544 10.0018934,9.86588544 C9.99889339,14.9328854 9.99989339,19.9998854 10.0018934,25.0678854 C10.0018934,25.6808854 10.2498934,25.9258854 10.8668934,25.9268854 C12.7348934,25.9298854 14.6028934,25.9298854 16.4708934,25.9268854 C17.0138934,25.9258854 17.3198934,25.6628854 17.3258934,25.2108854 C17.3308934,24.7378854 17.0238934,24.4708854 16.4598934,24.4698854 C14.9498934,24.4678854 13.4398934,24.4688854 11.9298934,24.4688854 L11.4978934,24.4688854 L11.4978934,10.4988854 Z" id="icon" fill="#666666"></path>
        </g>
    </g>
</svg>