<?xml version="1.0" encoding="UTF-8"?>
<svg width="36px" height="34px" viewBox="0 0 36 34" version="1.1" xmlns="http://www.w3.org/2000/svg" xmlns:xlink="http://www.w3.org/1999/xlink">
    <!-- Generator: Sketch 52.2 (67145) - http://www.bohemiancoding.com/sketch -->
    <title>Collaborators</title>
    <desc>Created with Sketch.</desc>
    <g id="Collaborators" stroke="none" stroke-width="1" fill="none" fill-rule="evenodd">
        <path d="M13.633424,8.00006861 C15.938424,8.01306861 17.764424,9.86306861 17.760424,12.1820686 C17.756424,14.4930686 15.903424,16.3420686 13.603424,16.3300686 C11.270424,16.3170686 9.45042397,14.4740686 9.46442397,12.1380686 C9.47942397,9.82306861 11.328424,7.98706861 13.633424,8.00006861" id="Fill-75" fill="#666666"></path>
        <path d="M30.098524,20.9732686 C30.098524,23.8862686 27.737524,26.2472686 24.824524,26.2472686 C21.911524,26.2472686 19.549524,23.8862686 19.549524,20.9732686 C19.549524,18.0602686 21.911524,15.6992686 24.824524,15.6992686 C27.737524,15.6992686 30.098524,18.0602686 30.098524,20.9732686 Z M26.427124,21.4728686 L26.427124,21.4718686 C26.769124,21.4718686 27.111124,21.4778686 27.453124,21.4698686 C27.741124,21.4628686 27.941124,21.1978686 27.881124,20.9198686 C27.830124,20.6828686 27.663124,20.5498686 27.406124,20.5488686 C26.757124,20.5468686 26.107124,20.5478686 25.457124,20.5478686 C25.289124,20.5478686 25.289124,20.5478686 25.289124,20.3778686 C25.289124,19.7198686 25.291124,19.0628686 25.288124,18.4048686 C25.287124,18.0788686 24.980124,17.8658686 24.670124,17.9688686 C24.474124,18.0348686 24.360124,18.2018686 24.359124,18.4358686 C24.358124,19.0938686 24.357124,19.7508686 24.361124,20.4088686 C24.362124,20.5188686 24.327124,20.5528686 24.218124,20.5498686 C23.914124,20.5438686 23.610124,20.5478686 23.306124,20.5478686 C22.945124,20.5478686 22.583124,20.5448686 22.222124,20.5488686 C21.946124,20.5528686 21.755124,20.7488686 21.757124,21.0178686 C21.759124,21.2808686 21.954124,21.4708686 22.236124,21.4718686 C22.894124,21.4738686 23.551124,21.4728686 24.209124,21.4728686 C24.358124,21.4728686 24.359124,21.4728686 24.359124,21.6258686 C24.359124,22.2718686 24.357124,22.9178686 24.361124,23.5638686 C24.362124,23.6488686 24.375124,23.7408686 24.409124,23.8178686 C24.493124,24.0088686 24.718124,24.1178686 24.907124,24.0748686 C25.137124,24.0228686 25.288124,23.8448686 25.289124,23.6138686 C25.290124,22.9448686 25.291124,22.2758686 25.287124,21.6068686 C25.287124,21.5018686 25.319124,21.4688686 25.424124,21.4708686 C25.758124,21.4758686 26.093124,21.4728686 26.427124,21.4728686 Z" id="Fill-79" fill="#FB953B"></path>
        <path d="M18.023524,20.9786686 C18.023524,19.5416686 18.604524,18.2406686 19.543524,17.2956686 C19.214524,16.9986686 18.828524,16.7686686 18.354524,16.6416686 C17.830524,16.5016686 17.329524,16.4626686 16.883524,16.8566686 C16.778524,16.9496686 16.648524,17.0156686 16.529524,17.0936686 C15.307524,17.8996686 13.989524,18.2506686 12.533524,17.9116686 C11.775524,17.7366686 11.073524,17.4196686 10.470524,16.9336686 C9.85552397,16.4386686 9.22952397,16.4896686 8.55452397,16.7466686 C7.56352397,17.1246686 7.01352397,17.9096686 6.64052397,18.8386686 C6.11052397,20.1606686 5.96852397,21.5516686 6.00552397,22.9636686 C6.02152397,23.6056686 6.22252397,24.1926686 6.66452397,24.6766686 C7.26852397,25.3396686 8.05252397,25.5656686 8.91752397,25.5686686 C10.489524,25.5736686 12.061524,25.5706686 13.634524,25.5706686 C15.139524,25.5706686 16.645524,25.5726686 18.151524,25.5686686 C18.396524,25.5676686 18.644524,25.5576686 18.887524,25.5256686 C19.330524,25.4676686 19.725524,25.3136686 20.064524,25.0956686 C18.830524,24.1396686 18.023524,22.6596686 18.023524,20.9786686" id="Fill-78" fill="#666666"></path>
    </g>
</svg>