<?xml version="1.0" encoding="UTF-8"?>
<svg width="36px" height="34px" viewBox="0 0 36 34" version="1.1" xmlns="http://www.w3.org/2000/svg" xmlns:xlink="http://www.w3.org/1999/xlink">
    <!-- Generator: Sketch 51 (57462) - http://www.bohemiancoding.com/sketch -->
    <title>Dates</title>
    <desc>Created with Sketch.</desc>
    <defs></defs>
    <g id="Dates" stroke="none" stroke-width="1" fill="none" fill-rule="evenodd">
        <path d="M24.402687,17.8705 C24.402687,18.0915 24.403687,18.3125 24.401687,18.5335 C24.401687,18.6395 24.452687,18.6925 24.554687,18.6965 C24.648687,18.6995 24.741687,18.6995 24.835687,18.6965 C24.935687,18.6935 24.995687,18.6385 24.996687,18.5375 C24.998687,18.0995 24.997687,17.6615 24.996687,17.2235 C24.996687,17.1215 24.942687,17.0655 24.839687,17.0635 C24.754687,17.0615 24.668687,17.0605 24.584687,17.0625 C24.436687,17.0665 24.403687,17.1005 24.402687,17.2455 C24.401687,17.4535 24.402687,17.6625 24.402687,17.8705 M21.446687,17.8875 C21.446687,17.6665 21.444687,17.4455 21.446687,17.2245 C21.447687,17.1185 21.397687,17.0655 21.294687,17.0635 C21.196687,17.0615 21.098687,17.0605 21.001687,17.0645 C20.905687,17.0685 20.852687,17.1225 20.852687,17.2195 C20.851687,17.6565 20.850687,18.0945 20.852687,18.5325 C20.852687,18.6395 20.913687,18.6965 21.021687,18.6975 C21.106687,18.6985 21.191687,18.6985 21.276687,18.6975 C21.390687,18.6965 21.448687,18.6445 21.446687,18.5255 C21.443687,18.3125 21.446687,18.1005 21.446687,17.8875 M20.350687,19.4895 C20.240687,19.4885 20.213687,19.5255 20.213687,19.6415 C20.216687,21.0005 20.216687,22.3595 20.213687,23.7185 C20.213687,23.8345 20.241687,23.8725 20.350687,23.8725 C22.068687,23.8685 23.786687,23.8685 25.503687,23.8725 C25.608687,23.8725 25.634687,23.8325 25.634687,23.7235 C25.631687,22.3605 25.631687,20.9975 25.634687,19.6345 C25.635687,19.5225 25.606687,19.4895 25.502687,19.4895 M22.928687,24.7875 C21.863687,24.7885 20.797687,24.7795 19.732687,24.7925 C19.371687,24.7975 19.081687,24.4975 19.083687,24.1445 C19.094687,22.1965 19.088687,20.2485 19.089687,18.3015 C19.089687,17.8895 19.317687,17.6605 19.726687,17.6585 C19.850687,17.6575 19.974687,17.6585 20.097687,17.6575 C20.270687,17.6575 20.269687,17.6575 20.272687,17.4895 C20.274687,17.3535 20.272687,17.2165 20.284687,17.0815 C20.315687,16.7595 20.608687,16.4765 20.931687,16.4655 C21.121687,16.4585 21.320687,16.4465 21.502687,16.4885 C21.824687,16.5635 22.025687,16.8555 22.036687,17.2005 C22.040687,17.3155 22.040687,17.4305 22.037687,17.5455 C22.035687,17.6235 22.058687,17.6595 22.146687,17.6595 C22.666687,17.6565 23.186687,17.6565 23.706687,17.6595 C23.785687,17.6595 23.809687,17.6285 23.811687,17.5535 C23.816687,17.3795 23.813687,17.2035 23.839687,17.0325 C23.885687,16.7295 24.170687,16.4725 24.474687,16.4665 C24.689687,16.4625 24.915687,16.4575 25.116687,16.5195 C25.379687,16.5995 25.541687,16.8095 25.565687,17.0975 C25.577687,17.2415 25.577687,17.3865 25.575687,17.5315 C25.574687,17.6235 25.607687,17.6625 25.703687,17.6595 C25.860687,17.6545 26.018687,17.6555 26.176687,17.6595 C26.516687,17.6675 26.758687,17.9145 26.758687,18.2555 C26.759687,20.2285 26.759687,22.2015 26.759687,24.1745 C26.758687,24.5395 26.506687,24.7875 26.137687,24.7875 C25.068687,24.7885 23.998687,24.7875 22.928687,24.7875" id="Fill-104" fill="#00558D"></path>
        <path d="M16.648887,12.545 C14.880887,12.469 13.127887,12.236 11.457887,11.595 C11.145887,11.475 10.847887,11.315 10.551887,11.157 C10.423887,11.089 10.317887,10.979 10.184887,10.875 C10.558887,10.49 10.999887,10.304 11.446887,10.136 C12.667887,9.679 13.937887,9.451 15.229887,9.303 C16.691887,9.135 18.155887,9.108 19.620887,9.178 C21.152887,9.252 22.671887,9.443 24.147887,9.887 C24.784887,10.078 25.411887,10.292 25.957887,10.693 C26.153887,10.837 26.117887,10.92 25.945887,11.044 C25.410887,11.43 24.799887,11.642 24.180887,11.833 C22.911887,12.225 21.607887,12.437 20.284887,12.494 C19.073887,12.546 17.857887,12.597 16.648887,12.545 M19.397887,25.095 C18.986887,25.101 18.656887,24.759 18.658887,24.356 C18.670887,22.138 18.664887,20.196 18.664887,17.978 C18.664887,17.51 18.924887,17.249 19.390887,17.246 C19.531887,17.245 19.764887,17.246 19.905887,17.246 C20.102887,17.245 20.101887,17.245 20.103887,17.054 C20.106887,16.899 20.103887,16.755 20.118887,16.601 C20.153887,16.235 20.395887,16.097 20.762887,16.084 C20.979887,16.076 21.200887,16.081 21.413887,16.098 C21.961887,16.142 22.193887,16.331 22.205887,16.724 C22.210887,16.855 22.210887,16.986 22.206887,17.117 C22.204887,17.206 22.231887,17.248 22.330887,17.247 C22.499887,17.246 22.484887,17.248 22.653887,17.247 C24.157887,15.745 25.662887,14.244 27.162887,12.738 C27.245887,12.654 27.307887,12.511 27.311887,12.393 C27.327887,11.888 27.322887,11.382 27.315887,10.876 C27.313887,10.762 27.290887,10.642 27.248887,10.535 C27.050887,10.021 26.619887,9.734 26.168887,9.483 C25.148887,8.915 24.030887,8.629 22.896887,8.417 C21.327887,8.123 19.740887,8.004 17.859887,8 C16.000887,8.036 13.872887,8.195 11.803887,8.814 C10.993887,9.057 10.205887,9.347 9.546887,9.901 C9.212887,10.181 8.983887,10.515 9.000887,10.984 C9.017887,11.439 8.992887,11.895 9.012887,12.349 C9.017887,12.483 9.082887,12.644 9.175887,12.738 C11.339887,14.914 13.509887,17.083 15.682887,19.249 C15.818887,19.385 15.875887,19.521 15.874887,19.714 C15.868887,21.467 15.879887,23.221 15.865887,24.974 C15.862887,25.418 16.043887,25.738 16.422887,25.909 C16.785887,26.074 17.174887,26.219 17.566887,26.277 C18.378887,26.397 19.180887,26.323 19.918887,25.912 C20.158887,25.778 20.315887,25.325 20.396887,25.094 C20.063887,25.095 19.730887,25.091 19.397887,25.095" id="Fill-105" fill="#666666"></path>
    </g>
</svg>