<?xml version="1.0" encoding="UTF-8"?>
<svg width="36px" height="34px" viewBox="0 0 36 34" version="1.1" xmlns="http://www.w3.org/2000/svg" xmlns:xlink="http://www.w3.org/1999/xlink">
    <!-- Generator: Sketch 52.2 (67145) - http://www.bohemiancoding.com/sketch -->
    <title>Event</title>
    <desc>Created with Sketch.</desc>
    <g id="Event" stroke="none" stroke-width="1" fill="none" fill-rule="evenodd">
        <path d="M8.0002,13.0312 L27.2822,13.0312 L27.2822,26.3422 C27.2822,27.2832 26.5192,28.0462 25.5772,28.0462 L9.7042,28.0462 C8.7632,28.0462 8.0002,27.2832 8.0002,26.3422 L8.0002,13.0312 Z M10.6614,15.3802 L10.6614,24.5062 C10.6614,25.1512 11.1844,25.6742 11.8304,25.6742 L23.7894,25.6742 C24.4354,25.6742 24.9584,25.1512 24.9584,24.5062 L24.9584,15.3802 L10.6614,15.3802 Z M27.282,11.593 L8,11.593 L8,9.995 C8,9.054 8.763,8.291 9.705,8.291 L11.409,8.291 L11.409,7.305 C11.409,6.584 11.993,6 12.714,6 C13.435,6 14.019,6.584 14.019,7.305 L14.019,8.291 L21.423,8.291 L21.423,7.305 C21.423,6.584 22.007,6 22.728,6 C23.449,6 24.033,6.584 24.033,7.305 L24.033,8.291 L25.578,8.291 C26.519,8.291 27.282,9.054 27.282,9.995 L27.282,11.593 Z M21.3755125,16.481931 C21.7718149,16.0972716 22.4049096,16.1067101 22.789569,16.5030125 C23.1742284,16.8993149 23.1647899,17.5324096 22.7684875,17.917069 L16.4714875,24.029069 C16.0595484,24.4289057 15.3962973,24.400604 15.0199166,23.9671287 L12.9829166,21.6211287 C12.6208228,21.2041076 12.6653502,20.5725103 13.0823713,20.2104166 C13.4993924,19.8483228 14.1309897,19.8928502 14.4930834,20.3098713 L15.8370357,21.8576926 L21.3755125,16.481931 Z" id="Fill-108" fill="#99D3B5"></path>
    </g>
</svg>