<?xml version="1.0" encoding="UTF-8"?>
<svg width="36px" height="34px" viewBox="0 0 36 34" version="1.1" xmlns="http://www.w3.org/2000/svg" xmlns:xlink="http://www.w3.org/1999/xlink">
    <!-- Generator: Sketch 51 (57462) - http://www.bohemiancoding.com/sketch -->
    <title>Full-Screen</title>
    <desc>Created with Sketch.</desc>
    <defs></defs>
    <g id="Full-Screen" stroke="none" stroke-width="1" fill="none" fill-rule="evenodd">
        <g id="Group-Copy-2" transform="translate(9.000000, 6.866000)" fill="#666666">
            <path d="M13.5902,6.5898 C13.0932,6.1188 12.7172,5.7628 12.3492,5.4148 C13.2782,4.4548 14.1952,3.5068 15.1512,2.5188 L11.5882,2.5188 L11.5882,0.9148 L18.0182,0.9148 L18.0182,7.2628 L16.3922,7.2628 L16.3922,3.7808 C16.3592,3.7648 16.3262,3.7498 16.2922,3.7348 C15.3872,4.6908 14.4822,5.6478 13.5902,6.5898" id="Fill-79"></path>
            <path d="M0.6929,11.7339 L2.2669,11.7339 L2.2669,15.2419 C2.2949,15.2569 2.3229,15.2719 2.3509,15.2859 C3.2729,14.3169 4.1959,13.3479 5.1169,12.3789 C5.5819,12.8589 5.9419,13.2309 6.3009,13.6019 C5.3979,14.5209 4.4669,15.4689 3.4719,16.4819 L7.0999,16.4819 L7.0999,18.1049 L0.6929,18.1049 L0.6929,11.7339 Z" id="Fill-80"></path>
            <path d="M12.4421,13.9113 C12.9131,13.4143 13.2691,13.0383 13.6171,12.6703 C14.5771,13.5993 15.5251,14.5163 16.5131,15.4723 L16.5131,11.9093 L18.1171,11.9093 L18.1171,18.3393 L11.7691,18.3393 L11.7691,16.7133 L15.2511,16.7133 C15.2671,16.6803 15.2821,16.6473 15.2971,16.6133 C14.3411,15.7083 13.3841,14.8033 12.4421,13.9113" id="Fill-82"></path>
            <path d="M7.298,1.0141 L7.298,2.5881 L3.79,2.5881 C3.775,2.6161 3.76,2.6441 3.746,2.6721 C4.715,3.5941 5.684,4.5171 6.653,5.4381 C6.173,5.9031 5.801,6.2631 5.43,6.6221 C4.511,5.7191 3.563,4.7881 2.55,3.7931 L2.55,7.4211 L0.927,7.4211 L0.927,1.0141 L7.298,1.0141 Z" id="Fill-83"></path>
        </g>
    </g>
</svg>