<?xml version="1.0" encoding="UTF-8"?>
<svg width="58px" height="53px" viewBox="0 0 58 53" version="1.1" xmlns="http://www.w3.org/2000/svg" xmlns:xlink="http://www.w3.org/1999/xlink">
    <!-- Generator: Sketch 53 (72520) - https://sketchapp.com -->
    <title>Group 39</title>
    <desc>Created with Sketch.</desc>
    <g id="Page-1" stroke="none" stroke-width="1" fill="none" fill-rule="evenodd">
        <g id="Group-63" transform="translate(-1505.000000, -38.000000)">
            <g id="Group-39" transform="translate(1505.624128, 38.433824)">
                <path d="M41.5113837,26.7980808 C41.5383499,20.1304379 36.1371983,14.6981907 29.4432601,14.6854874 C22.8238753,14.6727841 17.3878264,20.0367511 17.3561016,26.7282126 C17.3243768,33.3910918 22.7239421,38.8566852 29.4210527,38.8709764 C36.0769211,38.8836797 41.5256599,33.4466687 41.5113837,26.7980808 M29.4416739,11.6224049 C37.8360627,11.6509874 44.5664844,18.466306 44.5680707,26.77585 C44.5696569,35.0758665 37.8424077,41.9229434 29.4416739,41.9229434 C21.059975,41.9229434 14.3010009,35.1346192 14.3057596,26.7663225 C14.3121046,18.4043775 21.0710787,11.6493995 29.4416739,11.6224049" id="Fill-36" fill="#B3B2B3"></path>
                <path d="M31.9028858,29.0713357 C31.9028858,30.47505 31.8886097,31.8803522 31.9092308,33.2840665 C31.9187483,33.9398742 31.3968749,34.6004456 30.6561002,34.575039 C30.2436775,34.5607478 29.8296685,34.5639236 29.418832,34.575039 C28.7795768,34.5909181 28.1990125,34.0748467 28.1847363,33.3396434 C28.1720464,32.7044786 28.1815638,32.0693137 28.1815638,31.4341489 C28.1815638,29.9081654 28.1799776,28.3837698 28.1847363,26.8577863 C28.1847363,26.6958192 28.1387353,26.6259511 27.9674212,26.6386544 C27.7786585,26.6513577 27.5867233,26.6434181 27.3963744,26.6418302 C26.9982278,26.6402423 26.7507742,26.4084071 26.742843,26.0082533 C26.7333255,25.5779291 26.7317393,25.1444291 26.742843,24.712517 C26.7523604,24.3393577 26.9744342,24.0979951 27.3487871,24.0916434 C28.1482527,24.0757643 28.9477183,24.080528 29.7471839,24.0773522 C30.2182976,24.0773522 30.687825,24.0868797 31.1573524,24.0741764 C31.687157,24.0582973 31.9124033,24.4124016 31.9076446,24.8189071 C31.8917822,26.2369126 31.9012996,27.6533302 31.9012996,29.0713357 L31.9028858,29.0713357 Z" id="Fill-37" fill="#B3B2B3"></path>
                <path d="M31.9020927,20.7533758 C31.8941615,21.9300187 30.9725553,22.8192495 29.7685982,22.8113099 C28.6994716,22.8033703 27.7794516,21.8458593 27.7873829,20.7533758 C27.7969003,19.5894363 28.715334,18.6859143 29.8843938,18.6922659 C30.9820728,18.6970297 31.9100239,19.6466011 31.9020927,20.7533758" id="Fill-38" fill="#B3B2B3"></path>
            </g>
        </g>
    </g>
</svg>