<?xml version="1.0" encoding="UTF-8"?>
<svg width="36px" height="34px" viewBox="0 0 36 34" version="1.1" xmlns="http://www.w3.org/2000/svg" xmlns:xlink="http://www.w3.org/1999/xlink">
    <!-- Generator: Sketch 51 (57462) - http://www.bohemiancoding.com/sketch -->
    <title>Interviewer</title>
    <desc>Created with Sketch.</desc>
    <defs></defs>
    <g id="Interviewer" stroke="none" stroke-width="1" fill="none" fill-rule="evenodd">
        <path d="M27.8419868,18.4679 C27.8239868,18.4259 27.8169868,18.3789 27.7899868,18.3499 C27.6809868,18.2339 27.5709868,18.1179 27.4519868,18.0129 C27.3659868,17.9369 27.2699868,17.9579 27.1899868,18.0339 C27.1029868,18.1169 27.0149868,18.2009 26.9359868,18.2919 C26.9159868,18.3159 26.9119868,18.3859 26.9309868,18.4059 C27.0799868,18.5649 27.2339868,18.7179 27.3919868,18.8679 C27.4129868,18.8869 27.4779868,18.8909 27.4969868,18.8729 C27.5979868,18.7819 27.6929868,18.6839 27.7849868,18.5839 C27.8119868,18.5539 27.8219868,18.5089 27.8419868,18.4679 M23.5509868,21.4809 L23.3889868,21.4809 C23.0229868,21.4809 22.6579868,21.4809 22.2919868,21.4809 C21.8599868,21.4809 21.4279868,21.4839 20.9969868,21.4799 C20.8909868,21.4789 20.8459868,21.5149 20.8529868,21.6219 C20.8579868,21.7149 20.8559868,21.8089 20.8539868,21.9019 C20.8519868,21.9809 20.8859868,22.0109 20.9659868,22.0099 C21.7289868,22.0079 22.4909868,22.0099 23.2529868,22.0079 C23.2849868,22.0079 23.3369868,21.9999 23.3459868,21.9799 C23.4149868,21.8259 23.4759868,21.6679 23.5509868,21.4809 M24.4489868,20.2689 C24.4429868,20.2579 24.4359868,20.2479 24.4289868,20.2369 L24.2789868,20.2369 L21.2169868,20.2369 C20.8509868,20.2369 20.8509868,20.2369 20.8539868,20.6009 C20.8549868,20.7649 20.8549868,20.7649 21.0149868,20.7649 C21.8479868,20.7649 22.6829868,20.7489 23.5149868,20.7729 C23.8439868,20.7829 24.0949868,20.7089 24.2879868,20.4429 C24.3339868,20.3789 24.3949868,20.3269 24.4489868,20.2689 M21.2269868,22.7269 C20.8489868,22.7269 20.8529868,22.7269 20.8509868,23.1039 C20.8509868,23.2209 20.8879868,23.2569 21.0059868,23.2559 C21.5939868,23.2509 22.1809868,23.2539 22.7689868,23.2529 C23.3679868,23.2529 23.9679868,23.2509 24.5669868,23.2549 C24.6699868,23.2559 24.7079868,23.2189 24.7019868,23.1199 C24.6979868,23.0469 24.7009868,22.9719 24.7009868,22.8989 C24.6999868,22.7329 24.6959868,22.7269 24.5299868,22.7269 M22.7779868,19.5209 C23.3739868,19.5209 23.9699868,19.5189 24.5659868,19.5229 C24.6689868,19.5239 24.7089868,19.4879 24.7039868,19.3889 C24.6999868,19.3229 24.7039868,19.2569 24.7029868,19.1899 C24.7029868,18.9929 24.7029868,18.9929 24.5109868,18.9929 C23.4989868,18.9929 22.4859868,18.9929 21.4729868,18.9929 C21.3089868,18.9929 21.1459868,18.9969 20.9819868,18.9919 C20.8839868,18.9889 20.8489868,19.0299 20.8529868,19.1229 C20.8569868,19.2009 20.8529868,19.2789 20.8539868,19.3569 C20.8539868,19.5209 20.8549868,19.5209 21.0139868,19.5209 C21.6019868,19.5209 22.1899868,19.5209 22.7779868,19.5209 M23.8089868,22.0489 C23.8619868,22.0299 23.8879868,22.0219 23.9129868,22.0119 C24.1329868,21.9239 24.3539868,21.8379 24.5729868,21.7469 C24.6249868,21.7259 24.6789868,21.6959 24.7189868,21.6559 C25.5399868,20.8379 26.3589868,20.0159 27.1809868,19.1979 C27.2459868,19.1329 27.2329868,19.0909 27.1749868,19.0349 C27.0409868,18.9049 26.9059868,18.7749 26.7799868,18.6379 C26.7079868,18.5609 26.6629868,18.5559 26.5839868,18.6349 C25.8359868,19.3899 25.0939868,20.1519 24.3259868,20.8859 C24.0119868,21.1849 23.9339868,21.5809 23.7689868,21.9439 C23.7589868,21.9679 23.7949868,22.0129 23.8089868,22.0489 M22.2059868,17.2549 C21.9829868,17.2549 21.7659868,17.2539 21.5489868,17.2559 C21.3649868,17.2569 21.2249868,17.3409 21.1429868,17.5039 C21.1069868,17.5769 21.0599868,17.5949 20.9869868,17.5949 C20.7419868,17.5929 20.4969868,17.5929 20.2509868,17.5949 C19.9789868,17.5959 19.8499868,17.7239 19.8499868,17.9959 C19.8499868,20.0869 19.8499868,22.1789 19.8499868,24.2709 C19.8499868,24.5519 19.9749868,24.6769 20.2549868,24.6769 C21.9379868,24.6779 23.6209868,24.6779 25.3029868,24.6769 C25.5819868,24.6769 25.7049868,24.5499 25.7049868,24.2669 C25.7049868,23.2889 25.7049868,22.3119 25.7049868,21.3339 C25.7049868,21.2939 25.6999868,21.2539 25.6959868,21.1799 C25.5889868,21.2849 25.5129868,21.3739 25.4229868,21.4449 C25.2829868,21.5539 25.2479868,21.6879 25.2499868,21.8609 C25.2599868,22.5189 25.2539868,23.1779 25.2539868,23.8359 C25.2539868,24.0039 25.2539868,24.0039 25.0899868,24.0039 C23.5469868,24.0049 22.0049868,24.0049 20.4619868,24.0039 C20.3009868,24.0039 20.2999868,24.0039 20.2999868,23.8349 C20.2999868,22.1609 20.2999868,20.4859 20.2999868,18.8109 C20.2999868,18.5999 20.3049868,18.3899 20.2979868,18.1799 C20.2949868,18.0749 20.3339868,18.0429 20.4339868,18.0469 C20.5939868,18.0539 20.7539868,18.0489 20.9129868,18.0489 C21.0889868,18.0489 21.0889868,18.0489 21.0889868,18.2259 C21.0889868,18.3789 21.0889868,18.3799 21.2419868,18.3799 C22.2399868,18.3799 23.2369868,18.3799 24.2339868,18.3799 C24.4579868,18.3799 24.4619868,18.3799 24.4629868,18.1529 C24.4639868,18.0689 24.4939868,18.0459 24.5729868,18.0479 C24.7559868,18.0519 24.9389868,18.0539 25.1219868,18.0469 C25.2249868,18.0439 25.2569868,18.0799 25.2559868,18.1819 C25.2509868,18.5519 25.2539868,18.9219 25.2549868,19.2919 C25.2549868,19.3369 25.2599868,19.3819 25.2649868,19.4619 C25.3999868,19.3269 25.5179868,19.2209 25.6209868,19.1019 C25.6649868,19.0519 25.6999868,18.9759 25.7009868,18.9109 C25.7099868,18.6069 25.7059868,18.3029 25.7049868,17.9989 C25.7039868,17.7219 25.5759868,17.5959 25.2959868,17.5939 C25.0499868,17.5939 24.8049868,17.5929 24.5599868,17.5949 C24.4899868,17.5949 24.4479868,17.5739 24.4139868,17.5069 C24.3289868,17.3399 24.1869868,17.2549 23.9979868,17.2549 C23.9009868,17.2549 23.8029868,17.2549 23.7059868,17.2549 C23.5869868,17.2549 23.4679868,17.2549 23.3509868,17.2549 C23.3099868,16.7959 23.1129868,16.5789 22.7619868,16.5849 C22.4299868,16.5909 22.2299868,16.8229 22.2059868,17.2549" id="Fill-95" fill="#FB953B"></path>
        <path d="M22.7790868,17.4776 C22.9610868,17.4766 23.1100868,17.3286 23.1140868,17.1446 C23.1170868,16.9656 22.9640868,16.8116 22.7820868,16.8106 C22.5910868,16.8086 22.4400868,16.9596 22.4430868,17.1476 C22.4450868,17.3296 22.5960868,17.4786 22.7790868,17.4776 M22.2060868,17.2556 C22.2300868,16.8226 22.4300868,16.5906 22.7620868,16.5846 C23.1130868,16.5786 23.3100868,16.7966 23.3510868,17.2546 C23.4680868,17.2546 23.5870868,17.2546 23.7060868,17.2546 C23.8030868,17.2546 23.9010868,17.2556 23.9980868,17.2556 C24.1870868,17.2556 24.3290868,17.3406 24.4130868,17.5066 C24.4480868,17.5736 24.4900868,17.5956 24.5590868,17.5946 C24.8050868,17.5926 25.0500868,17.5936 25.2960868,17.5946 C25.5760868,17.5956 25.7040868,17.7226 25.7050868,17.9996 C25.7060868,18.3026 25.7100868,18.6066 25.7010868,18.9106 C25.7000868,18.9756 25.6650868,19.0516 25.6210868,19.1016 C25.5180868,19.2206 25.4000868,19.3266 25.2650868,19.4616 C25.2600868,19.3816 25.2540868,19.3366 25.2540868,19.2916 C25.2540868,18.9216 25.2510868,18.5516 25.2560868,18.1816 C25.2570868,18.0796 25.2250868,18.0436 25.1220868,18.0466 C24.9390868,18.0536 24.7560868,18.0516 24.5730868,18.0476 C24.4940868,18.0456 24.4640868,18.0686 24.4630868,18.1526 C24.4620868,18.3796 24.4580868,18.3796 24.2340868,18.3796 C23.2370868,18.3796 22.2400868,18.3796 21.2420868,18.3796 C21.0890868,18.3796 21.0890868,18.3796 21.0890868,18.2256 C21.0880868,18.0486 21.0880868,18.0486 20.9130868,18.0486 C20.7530868,18.0486 20.5940868,18.0536 20.4340868,18.0476 C20.3340868,18.0436 20.2950868,18.0746 20.2980868,18.1796 C20.3050868,18.3896 20.3000868,18.6006 20.3000868,18.8106 C20.3000868,20.4856 20.3000868,22.1606 20.3000868,23.8356 C20.3000868,24.0046 20.3010868,24.0046 20.4620868,24.0046 C22.0050868,24.0046 23.5470868,24.0046 25.0900868,24.0046 C25.2540868,24.0046 25.2540868,24.0036 25.2540868,23.8356 C25.2540868,23.1776 25.2590868,22.5196 25.2500868,21.8606 C25.2480868,21.6886 25.2830868,21.5536 25.4230868,21.4446 C25.5130868,21.3746 25.5890868,21.2846 25.6960868,21.1806 C25.7000868,21.2536 25.7050868,21.2936 25.7050868,21.3336 C25.7050868,22.3116 25.7050868,23.2896 25.7050868,24.2666 C25.7050868,24.5496 25.5810868,24.6766 25.3030868,24.6766 C23.6200868,24.6776 21.9380868,24.6776 20.2550868,24.6766 C19.9740868,24.6766 19.8500868,24.5516 19.8500868,24.2706 C19.8500868,22.1786 19.8500868,20.0876 19.8500868,17.9956 C19.8500868,17.7236 19.9780868,17.5956 20.2510868,17.5946 C20.4970868,17.5936 20.7420868,17.5926 20.9870868,17.5946 C21.0600868,17.5956 21.1060868,17.5766 21.1430868,17.5036 C21.2250868,17.3416 21.3650868,17.2566 21.5490868,17.2556 C21.7660868,17.2546 21.9830868,17.2556 22.2060868,17.2556" id="Fill-96" fill="#FB953B"></path>
        <path d="M23.8094868,22.049 C23.7944868,22.013 23.7584868,21.968 23.7694868,21.944 C23.9344868,21.581 24.0124868,21.185 24.3264868,20.886 C25.0944868,20.152 25.8354868,19.39 26.5844868,18.635 C26.6624868,18.556 26.7084868,18.56 26.7794868,18.638 C26.9064868,18.775 27.0404868,18.905 27.1754868,19.035 C27.2334868,19.091 27.2464868,19.133 27.1814868,19.198 C26.3594868,20.016 25.5404868,20.837 24.7184868,21.656 C24.6784868,21.696 24.6254868,21.726 24.5724868,21.747 C24.3544868,21.838 24.1334868,21.924 23.9134868,22.012 C23.8874868,22.022 23.8624868,22.03 23.8094868,22.049" id="Fill-97" fill="#FB953B"></path>
        <path d="M22.7784868,19.5213 C22.1904868,19.5213 21.6024868,19.5213 21.0144868,19.5213 C20.8544868,19.5213 20.8544868,19.5213 20.8534868,19.3563 C20.8534868,19.2783 20.8564868,19.2003 20.8534868,19.1233 C20.8484868,19.0293 20.8844868,18.9883 20.9824868,18.9913 C21.1454868,18.9973 21.3094868,18.9933 21.4734868,18.9933 C22.4854868,18.9933 23.4984868,18.9933 24.5114868,18.9933 C24.7024868,18.9933 24.7034868,18.9933 24.7034868,19.1903 C24.7034868,19.2563 24.7004868,19.3233 24.7034868,19.3893 C24.7084868,19.4883 24.6694868,19.5243 24.5664868,19.5233 C23.9704868,19.5193 23.3744868,19.5213 22.7784868,19.5213" id="Fill-98" fill="#FB953B"></path>
        <path d="M24.4490868,20.2688 C24.3950868,20.3268 24.3340868,20.3798 24.2880868,20.4428 C24.0950868,20.7088 23.8440868,20.7828 23.5150868,20.7728 C22.6820868,20.7488 21.8480868,20.7648 21.0150868,20.7648 C20.8550868,20.7648 20.8550868,20.7648 20.8540868,20.6008 C20.8510868,20.2378 20.8510868,20.2378 21.2170868,20.2378 L24.2790868,20.2378 L24.4290868,20.2378 C24.4360868,20.2478 24.4420868,20.2588 24.4490868,20.2688" id="Fill-99" fill="#FB953B"></path>
        <path d="M23.5508868,21.4814 C23.4758868,21.6684 23.4148868,21.8264 23.3458868,21.9804 C23.3368868,21.9994 23.2848868,22.0074 23.2528868,22.0084 C22.4908868,22.0094 21.7288868,22.0084 20.9658868,22.0104 C20.8858868,22.0104 20.8518868,21.9814 20.8538868,21.9024 C20.8558868,21.8084 20.8578868,21.7154 20.8528868,21.6224 C20.8458868,21.5154 20.8908868,21.4784 20.9968868,21.4794 C21.4288868,21.4834 21.8598868,21.4814 22.2918868,21.4814 C22.6578868,21.4814 23.0228868,21.4814 23.3888868,21.4814 L23.5508868,21.4814 Z" id="Fill-100" fill="#FB953B"></path>
        <path d="M27.8419868,18.4679 C27.8219868,18.5089 27.8119868,18.5539 27.7849868,18.5839 C27.6929868,18.6839 27.5979868,18.7819 27.4969868,18.8729 C27.4779868,18.8909 27.4129868,18.8869 27.3919868,18.8679 C27.2339868,18.7179 27.0799868,18.5649 26.9309868,18.4059 C26.9119868,18.3859 26.9159868,18.3159 26.9359868,18.2919 C27.0149868,18.2009 27.1029868,18.1169 27.1899868,18.0339 C27.2699868,17.9579 27.3659868,17.9369 27.4519868,18.0129 C27.5709868,18.1179 27.6809868,18.2339 27.7899868,18.3499 C27.8169868,18.3789 27.8239868,18.4259 27.8419868,18.4679" id="Fill-101" fill="#FB953B"></path>
        <path d="M22.7790868,17.4776 C22.5960868,17.4786 22.4450868,17.3296 22.4430868,17.1476 C22.4400868,16.9596 22.5910868,16.8086 22.7820868,16.8106 C22.9640868,16.8116 23.1170868,16.9656 23.1140868,17.1446 C23.1100868,17.3286 22.9610868,17.4766 22.7790868,17.4776" id="Fill-102" fill="#FB953B"></path>
        <path d="M25.9449868,11.044 C25.4099868,11.43 24.7999868,11.642 24.1809868,11.833 C22.9119868,12.225 21.6079868,12.436 20.2839868,12.493 C19.0739868,12.546 17.8579868,12.597 16.6479868,12.545 C14.8799868,12.468 13.1269868,12.236 11.4569868,11.594 C11.1449868,11.474 10.8469868,11.314 10.5509868,11.157 C10.4239868,11.089 10.3179868,10.979 10.1849868,10.874 C10.5589868,10.489 10.9999868,10.303 11.4469868,10.136 C12.6669868,9.679 13.9369868,9.451 15.2289868,9.303 C16.6909868,9.135 18.1549868,9.108 19.6199868,9.178 C21.1529868,9.252 22.6719868,9.443 24.1479868,9.886 C24.7839868,10.077 25.4109868,10.291 25.9569868,10.693 C26.1529868,10.837 26.1179868,10.919 25.9449868,11.044 M27.2489868,10.535 C27.0509868,10.02 26.6199868,9.734 26.1689868,9.482 C25.1479868,8.915 24.0299868,8.628 22.8959868,8.416 C21.3279868,8.123 19.7409868,8.003 17.8589868,8 C16.0009868,8.036 13.8729868,8.195 11.8039868,8.814 C10.9939868,9.057 10.2059868,9.347 9.54698683,9.9 C9.21298683,10.181 8.98298683,10.514 9.00098683,10.984 C9.01798683,11.438 8.99198683,11.895 9.01198683,12.349 C9.01798683,12.482 9.08298683,12.644 9.17598683,12.738 C11.3389868,14.914 13.5089868,17.083 15.6819868,19.249 C15.8179868,19.384 15.8749868,19.521 15.8749868,19.714 C15.8679868,21.467 15.8789868,23.22 15.8659868,24.974 C15.8619868,25.418 16.0429868,25.737 16.4219868,25.909 C16.7859868,26.073 17.1739868,26.219 17.5659868,26.277 C18.3789868,26.397 19.1809868,26.323 19.9189868,25.912 C20.1869868,25.762 20.3609868,25.288 20.4289868,25.012 C20.2329868,25.012 20.0359868,25.012 19.8399868,25.012 C19.5189868,25.012 19.3769868,24.869 19.3769868,24.548 C19.3769868,22.16 19.3769868,20.048 19.3769868,17.66 C19.3769868,17.35 19.5239868,17.204 19.8349868,17.202 C20.1149868,17.201 20.3949868,17.201 20.6759868,17.203 C20.7579868,17.203 20.8119868,17.182 20.8539868,17.099 C20.9469868,16.913 21.1059868,16.817 21.3169868,16.815 C21.5649868,16.814 21.8129868,16.815 22.0669868,16.815 C22.0939868,16.322 22.3229868,16.056 22.7019868,16.049 C23.0319868,16.044 23.2359868,16.222 23.3259868,16.574 C24.6049868,15.296 25.8869868,14.019 27.1619868,12.738 C27.2459868,12.654 27.3069868,12.511 27.3109868,12.393 C27.3279868,11.888 27.3219868,11.382 27.3149868,10.876 C27.3139868,10.761 27.2899868,10.641 27.2489868,10.535" id="Fill-103" fill="#666666"></path>
    </g>
</svg>