<?xml version="1.0" encoding="UTF-8"?>
<svg width="36px" height="34px" viewBox="0 0 36 34" version="1.1" xmlns="http://www.w3.org/2000/svg" xmlns:xlink="http://www.w3.org/1999/xlink">
    <!-- Generator: Sketch 51 (57462) - http://www.bohemiancoding.com/sketch -->
    <title>Notifications</title>
    <desc>Created with Sketch.</desc>
    <defs></defs>
    <g id="Notifications" stroke="none" stroke-width="1" fill="none" fill-rule="evenodd">
        <path d="M17.011,11.8826308 C16.481,11.9806308 16.088,12.1926308 15.849,12.5576308 C15.543,13.0256308 15.242,13.5266308 15.086,14.0566308 C14.817,14.9696308 14.637,15.9106308 14.467,16.8486308 C14.262,17.9796308 14.058,19.1056308 13.393,20.0766308 C13.158,20.4186308 12.873,20.7256308 12.605,21.0566308 C13.121,21.0566308 13.637,21.0686308 14.153,21.0476308 C14.274,21.0426308 14.433,20.9556308 14.504,20.8566308 C15.076,20.0606308 15.332,19.1396308 15.47,18.1896308 C15.654,16.9206308 15.775,15.6416308 15.968,14.3746308 C16.102,13.4936308 16.237,12.5956308 17.011,11.8826308 Z M11,22.3106308 L11,20.4146308 C12.084,20.0026308 12.616,19.1346308 12.884,18.1216308 C13.174,17.0276308 13.327,15.8976308 13.564,14.7896308 C13.74,13.9716308 13.952,13.1646308 14.373,12.4256308 C14.875,11.5456308 15.579,10.9306308 16.571,10.6686308 C16.609,10.6586308 16.647,10.6456308 16.683,10.6306308 C16.7,10.6226308 16.712,10.6056308 16.726,10.5936308 C16.243,9.60663085 16.338,8.86763085 17.01,8.33963085 C17.604,7.87363085 18.451,7.88863085 19.025,8.37563085 C19.664,8.91663085 19.746,9.69763085 19.244,10.6076308 C19.32,10.6336308 19.391,10.6606308 19.464,10.6816308 C20.672,11.0266308 21.402,11.8816308 21.811,13.0046308 C22.113,13.8336308 22.313,14.7016308 22.527,15.5596308 C22.732,16.3796308 22.868,17.2176308 23.087,18.0336308 C23.355,19.0296308 23.997,19.7626308 24.856,20.3146308 C24.914,20.3526308 24.992,20.4226308 24.993,20.4786308 C25.002,21.0826308 24.999,21.6876308 24.999,22.3106308 L11,22.3106308 Z" id="Fill-49" fill="#666666"></path>
        <path d="M19.9775025,23.3037308 C19.9785,24.0217308 19.6765,24.5637308 19.1035,24.9427308 C18.4005,25.4077308 17.6605,25.4197308 16.9425,24.9797308 C16.3345,24.6067308 16.0165,24.0507308 16.0095,23.3037308 L19.9775025,23.3037308 Z" id="Fill-50" fill="#666666"></path>
    </g>
</svg>