<?xml version="1.0" encoding="UTF-8"?>
<svg width="36px" height="34px" viewBox="0 0 36 34" version="1.1" xmlns="http://www.w3.org/2000/svg" xmlns:xlink="http://www.w3.org/1999/xlink">
    <!-- Generator: Sketch 51 (57462) - http://www.bohemiancoding.com/sketch -->
    <title>Open</title>
    <desc>Created with Sketch.</desc>
    <defs></defs>
    <g id="Open" stroke="none" stroke-width="1" fill="none" fill-rule="evenodd">
        <path d="M27.3980868,21.2004 C27.3980868,23.5094 25.5260868,25.3814 23.2170868,25.3814 C20.9080868,25.3814 19.0360868,23.5094 19.0360868,21.2004 C19.0360868,18.8914 20.9080868,17.0194 23.2170868,17.0194 C25.5260868,17.0194 27.3980868,18.8914 27.3980868,21.2004" id="Fill-90" fill="#FFFFFF"></path>
        <path d="M27.362,21.181 C27.362,23.49 25.49,25.362 23.181,25.362 C20.872,25.362 19,23.49 19,21.181 C19,18.872 20.872,17 23.181,17 C25.49,17 27.362,18.872 27.362,21.181 Z" id="Stroke-91" stroke="#33865F" stroke-width="1.5"></path>
        <path d="M15.6489868,12.545 C13.8809868,12.469 12.1269868,12.236 10.4579868,11.595 C10.1449868,11.475 9.84698683,11.315 9.55098683,11.157 C9.42398683,11.089 9.31798683,10.979 9.18498683,10.875 C9.55898683,10.49 9.99998683,10.304 10.4469868,10.136 C11.6669868,9.679 12.9379868,9.451 14.2299868,9.303 C15.6909868,9.135 17.1549868,9.108 18.6199868,9.178 C20.1529868,9.252 21.6719868,9.443 23.1479868,9.887 C23.7839868,10.078 24.4109868,10.292 24.9579868,10.693 C25.1539868,10.837 25.1179868,10.92 24.9449868,11.044 C24.4109868,11.43 23.7999868,11.642 23.1809868,11.833 C21.9119868,12.225 20.6079868,12.437 19.2849868,12.494 C18.0739868,12.546 16.8579868,12.597 15.6489868,12.545 M17.5819868,21.229 C17.5819868,18.173 20.0599868,15.696 23.1149868,15.696 C23.1439868,15.696 23.1719868,15.699 23.2009868,15.7 C24.1879868,14.712 25.1779868,13.728 26.1629868,12.738 C26.2459868,12.654 26.3079868,12.511 26.3119868,12.393 C26.3279868,11.888 26.3219868,11.382 26.3159868,10.876 C26.3139868,10.762 26.2899868,10.642 26.2489868,10.535 C26.0509868,10.021 25.6199868,9.734 25.1689868,9.483 C24.1489868,8.915 23.0309868,8.629 21.8959868,8.416 C20.3279868,8.123 18.7409868,8.004 16.8589868,8 C15.0009868,8.036 12.8729868,8.195 10.8039868,8.814 C9.99398683,9.057 9.20598683,9.347 8.54698683,9.901 C8.21298683,10.181 7.98298683,10.515 8.00098683,10.984 C8.01798683,11.439 7.99298683,11.895 8.01298683,12.349 C8.01798683,12.482 8.08298683,12.644 8.17598683,12.738 C10.3399868,14.914 12.5089868,17.083 14.6819868,19.249 C14.8179868,19.384 14.8759868,19.521 14.8749868,19.714 C14.8679868,21.467 14.8789868,23.221 14.8659868,24.974 C14.8619868,25.418 15.0429868,25.738 15.4229868,25.909 C15.7859868,26.073 16.1749868,26.219 16.5669868,26.277 C17.3789868,26.397 18.1809868,26.323 18.9189868,25.912 C19.1719868,25.771 19.3369868,25.583 19.4119868,25.332 C18.2909868,24.319 17.5819868,22.858 17.5819868,21.229" id="Fill-92" fill="#666666"></path>
    </g>
</svg>