<?xml version="1.0" encoding="UTF-8"?>
<svg width="36px" height="34px" viewBox="0 0 36 34" version="1.1" xmlns="http://www.w3.org/2000/svg" xmlns:xlink="http://www.w3.org/1999/xlink">
    <!-- Generator: Sketch 51 (57462) - http://www.bohemiancoding.com/sketch -->
    <title>Owners</title>
    <desc>Created with Sketch.</desc>
    <defs></defs>
    <g id="Owners" stroke="none" stroke-width="1" fill="none" fill-rule="evenodd">
        <path d="M13.633424,8.00006861 C15.938424,8.01306861 17.764424,9.86306861 17.760424,12.1820686 C17.756424,14.4930686 15.903424,16.3420686 13.603424,16.3300686 C11.270424,16.3170686 9.45042397,14.4740686 9.46442397,12.1380686 C9.47942397,9.82306861 11.328424,7.98706861 13.633424,8.00006861" id="Fill-85" fill="#666666"></path>
        <path d="M18.023524,20.9786686 C18.023524,19.5416686 18.604524,18.2406686 19.543524,17.2956686 C19.214524,16.9996686 18.828524,16.7686686 18.354524,16.6416686 C17.830524,16.5016686 17.329524,16.4626686 16.883524,16.8566686 C16.778524,16.9496686 16.648524,17.0156686 16.529524,17.0936686 C15.307524,17.8996686 13.989524,18.2506686 12.533524,17.9116686 C11.775524,17.7366686 11.073524,17.4196686 10.470524,16.9346686 C9.85552397,16.4386686 9.22952397,16.4886686 8.55452397,16.7466686 C7.56352397,17.1246686 7.01352397,17.9096686 6.64052397,18.8386686 C6.11052397,20.1606686 5.96852397,21.5516686 6.00552397,22.9636686 C6.02152397,23.6056686 6.22252397,24.1926686 6.66452397,24.6766686 C7.26852397,25.3396686 8.05252397,25.5656686 8.91752397,25.5686686 C10.489524,25.5736686 12.061524,25.5706686 13.634524,25.5706686 C15.139524,25.5706686 16.645524,25.5726686 18.151524,25.5686686 C18.396524,25.5676686 18.644524,25.5576686 18.887524,25.5256686 C19.330524,25.4676686 19.725524,25.3136686 20.064524,25.0956686 C18.830524,24.1396686 18.023524,22.6596686 18.023524,20.9786686" id="Fill-86" fill="#666666"></path>
        <path d="M26.013624,20.9532686 C26.007624,20.1122686 25.282624,19.4052686 24.440624,19.4172686 C23.596624,19.4302686 22.895624,20.1532686 22.910624,20.9972686 C22.924624,21.8312686 23.632624,22.5192686 24.469624,22.5132686 C25.322624,22.5072686 26.019624,21.8022686 26.013624,20.9532686 M24.456624,26.2972686 C24.409624,26.2972686 24.362624,26.2972686 24.314624,26.2972686 C23.590624,26.2972686 23.590624,26.2972686 23.513624,25.5832686 C23.502624,25.4802686 23.492624,25.3762686 23.488624,25.2722686 C23.481624,25.0672686 23.394624,24.9532686 23.179624,24.8992686 C22.963624,24.8452686 22.751624,24.7482686 22.555624,24.6392686 C22.398624,24.5512686 22.284624,24.5532686 22.148624,24.6702686 C21.955624,24.8362686 21.746624,24.9832686 21.548624,25.1442686 C21.382624,25.2792686 21.237624,25.2872686 21.079624,25.1222686 C20.825624,24.8562686 20.560624,24.5992686 20.296624,24.3422686 C20.148624,24.1992686 20.135624,24.0582686 20.263624,23.8942686 C20.466624,23.6342686 20.786624,23.3862686 20.826624,23.1002686 C20.867624,22.8182686 20.637624,22.4872686 20.495624,22.1932686 C20.445624,22.0882686 20.312624,21.9842686 20.199624,21.9582686 C19.943624,21.8982686 19.676624,21.8822686 19.413624,21.8562686 C19.219624,21.8372686 19.124624,21.7362686 19.124624,21.5432686 C19.123624,21.1562686 19.107624,20.7672686 19.135624,20.3812686 C19.143624,20.2802686 19.274624,20.1302686 19.374624,20.1042686 C19.647624,20.0352686 19.937624,20.0402686 20.211624,19.9752686 C20.323624,19.9492686 20.444624,19.8352686 20.501624,19.7292686 C20.620624,19.5062686 20.716624,19.2672686 20.789624,19.0242686 C20.821624,18.9202686 20.812624,18.7682686 20.756624,18.6802686 C20.620624,18.4662686 20.449624,18.2732686 20.286624,18.0772686 C20.140624,17.9032686 20.135624,17.7462686 20.305624,17.5822686 C20.563624,17.3332686 20.814624,17.0762686 21.066624,16.8202686 C21.215624,16.6702686 21.365624,16.6462686 21.541624,16.7842686 C21.800624,16.9872686 22.049624,17.2992686 22.336624,17.3432686 C22.608624,17.3852686 22.920624,17.1302686 23.220624,17.0252686 C23.384624,16.9672686 23.469624,16.8792686 23.485624,16.7042686 C23.508624,16.4412686 23.551624,16.1802686 23.579624,15.9172686 C23.598624,15.7372686 23.685624,15.6422686 23.871624,15.6432686 C24.268624,15.6442686 24.666624,15.6272686 25.061624,15.6552686 C25.160624,15.6622686 25.301624,15.7992686 25.330624,15.9032686 C25.394624,16.1372686 25.413624,16.3862686 25.428624,16.6312686 C25.442624,16.8452686 25.514624,16.9792686 25.739624,17.0362686 C25.929624,17.0852686 26.126624,17.1532686 26.286624,17.2612686 C26.525624,17.4222686 26.696624,17.3532686 26.883624,17.1852686 C27.051624,17.0342686 27.239624,16.9042686 27.417624,16.7642686 C27.561624,16.6512686 27.695624,16.6672686 27.821624,16.7922686 C28.096624,17.0652686 28.371624,17.3372686 28.645624,17.6112686 C28.782624,17.7482686 28.783624,17.8912686 28.662624,18.0392686 C28.656624,18.0472686 28.651624,18.0552686 28.645624,18.0622686 C28.450624,18.3272686 28.130624,18.5752686 28.093624,18.8602686 C28.057624,19.1452686 28.292624,19.4712686 28.433624,19.7682686 C28.477624,19.8592686 28.595624,19.9522686 28.694624,19.9742686 C28.961624,20.0322686 29.235624,20.0572686 29.507624,20.0842686 C29.717624,20.1052686 29.805624,20.2122686 29.802624,20.4192686 C29.797624,20.7872686 29.798624,21.1562686 29.801624,21.5252686 C29.802624,21.7302686 29.710624,21.8382686 29.501624,21.8572686 C29.237624,21.8812686 28.972624,21.9012686 28.715624,21.9582686 C28.608624,21.9822686 28.496624,22.0812686 28.433624,22.1762686 C28.359624,22.2922686 28.364624,22.4612686 28.283624,22.5692686 C27.988624,22.9652686 28.118624,23.2612686 28.413624,23.5992686 C28.864624,24.1172686 28.914624,24.0702686 28.355624,24.6092686 C28.185624,24.7722686 28.014624,24.9362686 27.856624,25.1112686 C27.695624,25.2892686 27.543624,25.2842686 27.366624,25.1372686 C27.170624,24.9732686 26.961624,24.8262686 26.766624,24.6632686 C26.640624,24.5572686 26.533624,24.5492686 26.383624,24.6292686 C26.168624,24.7442686 25.939624,24.8412686 25.706624,24.9112686 C25.531624,24.9632686 25.457624,25.0582686 25.439624,25.2272686 C25.413624,25.4812686 25.371624,25.7332686 25.351624,25.9872686 C25.334624,26.2182686 25.204624,26.2972686 24.995624,26.2962686 C24.815624,26.2962686 24.636624,26.2962686 24.456624,26.2972686" id="Fill-87" fill="#39B54A"></path>
    </g>
</svg>