<?xml version="1.0" encoding="UTF-8"?>
<svg width="36px" height="34px" viewBox="0 0 36 34" version="1.1" xmlns="http://www.w3.org/2000/svg" xmlns:xlink="http://www.w3.org/1999/xlink">
    <!-- Generator: Sketch 52.2 (67145) - http://www.bohemiancoding.com/sketch -->
    <title>RSVPs</title>
    <desc>Created with Sketch.</desc>
    <g id="RSVPs" stroke="none" stroke-width="1" fill="none" fill-rule="evenodd">
        <path d="M26.398,13.046 L26.398,11.604 C26.398,10.755 25.709,10.066 24.86,10.066 L23.466,10.066 L23.466,9.177 C23.466,8.527 22.939,8 22.289,8 C21.639,8 21.111,8.527 21.111,9.177 L21.111,10.066 L14.431,10.066 L14.431,9.177 C14.431,8.527 13.904,8 13.254,8 C12.603,8 12.076,8.527 12.076,9.177 L12.076,10.066 L10.538,10.066 C9.689,10.066 9,10.755 9,11.604 L9,13.046 L26.398,13.046 Z" id="Fill-91" fill="#666666"></path>
        <path d="M23.9363,18.9923 L21.3063,18.9923 L21.3063,16.3623 L23.9363,16.3623 L23.9363,18.9923 Z M23.8773,22.8373 L21.2473,22.8373 L21.2473,20.2073 L23.8773,20.2073 L23.8773,22.8373 Z M18.6603,22.8853 L16.0303,22.8853 L16.0303,20.2553 L18.6603,20.2553 L18.6603,22.8853 Z M15.9343,16.4103 L18.5643,16.4103 L18.5643,19.0403 L15.9343,19.0403 L15.9343,16.4103 Z M13.6493,22.9463 L11.0193,22.9463 L11.0193,20.3163 L13.6493,20.3163 L13.6493,22.9463 Z M10.9233,16.4713 L13.5533,16.4713 L13.5533,19.1013 L10.9233,19.1013 L10.9233,16.4713 Z M9.0003,14.3433 L9.0003,24.0993 C9.0003,24.9493 9.6893,25.6373 10.5383,25.6373 L24.8603,25.6373 C25.7093,25.6373 26.3983,24.9493 26.3983,24.0993 L26.3983,14.3433 L9.0003,14.3433 Z" id="Fill-92" fill="#666666"></path>
    </g>
</svg>