<?xml version="1.0" encoding="UTF-8"?>
<svg width="36px" height="34px" viewBox="0 0 36 34" version="1.1" xmlns="http://www.w3.org/2000/svg" xmlns:xlink="http://www.w3.org/1999/xlink">
    <!-- Generator: Sketch 52 (66869) - http://www.bohemiancoding.com/sketch -->
    <title>signuplinks</title>
    <desc>Created with Sketch.</desc>
    <g id="signuplinks" stroke="none" stroke-width="1" fill="none" fill-rule="evenodd">
        <path d="M32.089,22.629 C32.089,23.11 31.699,23.5 31.218,23.5 L4.871,23.5 C4.39,23.5 4,23.11 4,22.629 L4,10.871 C4,10.39 4.39,10 4.871,10 L31.218,10 C31.699,10 32.089,10.39 32.089,10.871 L32.089,22.629 Z" id="Stroke-100" stroke="#666666"></path>
        <path d="M12.4298839,19 L11.0178917,19 L10.1281431,15.6441006 L10.1088008,15.6441006 L9.25773694,19 L7.8360735,19 L6.25,14 L7.70067698,14 L8.61943907,17.3945841 L8.63878143,17.3945841 L9.4705029,14 L10.8051257,14 L11.6561896,17.384913 L11.6755319,17.384913 L12.594294,14 L14.0062863,14 L12.4298839,19 Z M20.3022244,19 L18.8902321,19 L18.0004836,15.6441006 L17.9811412,15.6441006 L17.1300774,19 L15.7084139,19 L14.1223404,14 L15.5730174,14 L16.4917795,17.3945841 L16.5111219,17.3945841 L17.3428433,14 L18.6774662,14 L19.52853,17.384913 L19.5478723,17.384913 L20.4666344,14 L21.8786267,14 L20.3022244,19 Z M28.1745648,19 L26.7625725,19 L25.872824,15.6441006 L25.8534816,15.6441006 L25.0024178,19 L23.5807544,19 L21.9946809,14 L23.4453578,14 L24.3641199,17.3945841 L24.3834623,17.3945841 L25.2151838,14 L26.5498066,14 L27.4008704,17.384913 L27.4202128,17.384913 L28.3389749,14 L29.7509671,14 L28.1745648,19 Z" id="www" fill="#666666"></path>
    </g>
</svg>