<?xml version="1.0" encoding="UTF-8"?>
<svg width="36px" height="34px" viewBox="0 0 36 34" version="1.1" xmlns="http://www.w3.org/2000/svg" xmlns:xlink="http://www.w3.org/1999/xlink">
    <!-- Generator: Sketch 51 (57462) - http://www.bohemiancoding.com/sketch -->
    <title>Students</title>
    <desc>Created with Sketch.</desc>
    <defs></defs>
    <g id="Students" stroke="none" stroke-width="1" fill="none" fill-rule="evenodd">
        <path d="M13.63335,8.00006861 C15.93835,8.01306861 17.76435,9.86306861 17.76035,12.1820686 C17.75635,14.4930686 15.90335,16.3420686 13.60335,16.3300686 C11.27035,16.3170686 9.45034995,14.4740686 9.46434995,12.1380686 C9.47934995,9.82306861 11.32835,7.98706861 13.63335,8.00006861" id="Fill-75" fill="#666666"></path>
        <path d="M30.09845,20.9731686 C30.09845,23.8861686 27.73745,26.2471686 24.82445,26.2471686 C21.91145,26.2471686 19.54945,23.8861686 19.54945,20.9731686 C19.54945,18.0601686 21.91145,15.6991686 24.82445,15.6991686 C27.73745,15.6991686 30.09845,18.0601686 30.09845,20.9731686" id="Fill-76" fill="#666666"></path>
        <path d="M26.42705,21.4728686 C26.09305,21.4728686 25.75805,21.4758686 25.42405,21.4708686 C25.31905,21.4688686 25.28705,21.5018686 25.28705,21.6068686 C25.29205,22.2758686 25.29005,22.9448686 25.28905,23.6138686 C25.28805,23.8448686 25.13705,24.0228686 24.90705,24.0748686 C24.71805,24.1178686 24.49305,24.0088686 24.40905,23.8178686 C24.37505,23.7408686 24.36205,23.6488686 24.36105,23.5638686 C24.35705,22.9178686 24.35905,22.2718686 24.35905,21.6258686 C24.35905,21.4728686 24.35905,21.4728686 24.20905,21.4728686 C23.55105,21.4728686 22.89405,21.4748686 22.23605,21.4718686 C21.95505,21.4708686 21.75905,21.2808686 21.75705,21.0168686 C21.75505,20.7488686 21.94605,20.5528686 22.22205,20.5488686 C22.58305,20.5448686 22.94505,20.5478686 23.30605,20.5478686 C23.61005,20.5478686 23.91405,20.5438686 24.21805,20.5498686 C24.32705,20.5528686 24.36205,20.5188686 24.36105,20.4088686 C24.35705,19.7508686 24.35805,19.0938686 24.35905,18.4358686 C24.36005,18.2018686 24.47405,18.0348686 24.67005,17.9688686 C24.98005,17.8658686 25.28705,18.0788686 25.28805,18.4048686 C25.29205,19.0628686 25.28905,19.7198686 25.28905,20.3778686 C25.28905,20.5478686 25.29005,20.5478686 25.45705,20.5478686 C26.10705,20.5478686 26.75705,20.5468686 27.40605,20.5488686 C27.66305,20.5498686 27.83005,20.6828686 27.88105,20.9198686 C27.94205,21.1978686 27.74105,21.4628686 27.45305,21.4698686 C27.11105,21.4778686 26.76905,21.4718686 26.42705,21.4718686 L26.42705,21.4728686 Z" id="Fill-77" fill="#FFFFFF"></path>
        <path d="M18.02355,20.9786686 C18.02355,19.5416686 18.60455,18.2406686 19.54355,17.2956686 C19.21455,16.9986686 18.82855,16.7686686 18.35455,16.6416686 C17.83055,16.5016686 17.32955,16.4626686 16.88355,16.8566686 C16.77855,16.9496686 16.64855,17.0156686 16.52955,17.0936686 C15.30655,17.8996686 13.98955,18.2496686 12.53355,17.9116686 C11.77555,17.7366686 11.07355,17.4196686 10.47055,16.9336686 C9.85554995,16.4386686 9.22954995,16.4886686 8.55454995,16.7466686 C7.56354995,17.1246686 7.01354995,17.9086686 6.64054995,18.8386686 C6.10954995,20.1606686 5.96854995,21.5516686 6.00554995,22.9636686 C6.02154995,23.6056686 6.22254995,24.1926686 6.66454995,24.6766686 C7.26854995,25.3396686 8.05254995,25.5656686 8.91754995,25.5686686 C10.48955,25.5736686 12.06155,25.5706686 13.63455,25.5706686 C15.13955,25.5706686 16.64555,25.5726686 18.15155,25.5686686 C18.39655,25.5676686 18.64455,25.5576686 18.88755,25.5256686 C19.33055,25.4676686 19.72555,25.3136686 20.06455,25.0956686 C18.83055,24.1396686 18.02355,22.6596686 18.02355,20.9786686" id="Fill-84" fill="#666666"></path>
    </g>
</svg>