<?xml version="1.0" encoding="UTF-8"?>
<svg width="36px" height="34px" viewBox="0 0 36 34" version="1.1" xmlns="http://www.w3.org/2000/svg" xmlns:xlink="http://www.w3.org/1999/xlink">
    <!-- Generator: Sketch 52.2 (67145) - http://www.bohemiancoding.com/sketch -->
    <title>Students</title>
    <desc>Created with Sketch.</desc>
    <g id="Students" stroke="none" stroke-width="1" fill="none" fill-rule="evenodd">
        <path d="M13.63305,8.00006861 C15.93805,8.01306861 17.76405,9.86306861 17.76005,12.1820686 C17.75605,14.4930686 15.90305,16.3420686 13.60305,16.3300686 C11.27005,16.3170686 9.45004995,14.4740686 9.46404995,12.1380686 C9.47904995,9.82306861 11.32805,7.98706861 13.63305,8.00006861" id="Fill-96" fill="#666666"></path>
        <path d="M19.97945,23.4440686 C20.04345,23.3850686 20.08445,23.3510686 20.12145,23.3130686 C20.73745,22.6710686 21.35045,22.0250686 21.97245,21.3880686 C22.08945,21.2680686 22.08345,21.2000686 21.97145,21.0850686 C21.34545,20.4430686 20.72645,19.7940686 20.10545,19.1490686 C20.07445,19.1160686 20.03445,19.0920686 19.97945,19.0490686 L19.97945,23.4440686 Z M28.91445,19.0480686 C28.86745,19.0770686 28.84945,19.0840686 28.83745,19.0970686 C28.19045,19.7690686 27.54645,20.4430686 26.89645,21.1120686 C26.79245,21.2180686 26.82045,21.2820686 26.90945,21.3730686 C27.33345,21.8080686 27.74645,22.2530686 28.17445,22.6840686 C28.41545,22.9270686 28.67645,23.1500686 28.91445,23.3690686 L28.91445,19.0480686 Z M22.81145,22.1380686 C22.17545,22.8010686 21.47645,23.5290686 20.74845,24.2870686 L28.14645,24.2870686 C27.41345,23.5240686 26.71245,22.7950686 25.97645,22.0290686 C25.91645,22.1110686 25.87745,22.1780686 25.82545,22.2320686 C25.49745,22.5770686 25.17145,22.9230686 24.83545,23.2610686 C24.61345,23.4830686 24.31545,23.4900686 24.09145,23.2930686 C24.03045,23.2400686 23.97845,23.1750686 23.91845,23.1210686 C23.55845,22.8000686 23.19645,22.4800686 22.81145,22.1380686 Z M20.72345,18.1650686 C21.98545,19.4790686 23.21045,20.7550686 24.44745,22.0440686 C25.68845,20.7500686 26.91145,19.4760686 28.16945,18.1650686 L20.72345,18.1650686 Z M24.44445,25.4290686 C23.15945,25.4290686 21.87345,25.4150686 20.58845,25.4340686 C19.64845,25.4490686 18.83145,24.7150686 18.83845,23.6730686 C18.84845,22.0490686 18.84045,20.4250686 18.84045,18.8010686 C18.84145,17.7500686 19.56145,17.0290686 20.61145,17.0290686 C23.16945,17.0290686 25.72745,17.0290686 28.28645,17.0290686 C29.31045,17.0290686 30.04345,17.7220686 30.05345,18.7490686 C30.06945,20.3980686 30.06645,22.0470686 30.05445,23.6960686 C30.04745,24.5850686 29.53145,25.2050686 28.67445,25.4020686 C28.56045,25.4290686 28.43845,25.4280686 28.31945,25.4280686 C27.02845,25.4300686 25.73645,25.4290686 24.44445,25.4290686 Z" id="Fill-97" fill="#3E7BAA"></path>
        <path d="M17.51855,23.9597686 C17.52955,22.1867686 17.52155,20.4137686 17.52155,18.6397686 C17.52155,17.7367686 18.01455,17.0627686 18.78155,16.8147686 C18.64355,16.7517686 18.51055,16.6837686 18.35355,16.6417686 C17.83055,16.5017686 17.32855,16.4627686 16.88355,16.8567686 C16.77755,16.9497686 16.64855,17.0157686 16.52955,17.0937686 C15.30655,17.8987686 13.98955,18.2497686 12.53255,17.9117686 C11.77555,17.7357686 11.07355,17.4197686 10.47055,16.9337686 C9.85454995,16.4387686 9.22954995,16.4887686 8.55454995,16.7467686 C7.56254995,17.1247686 7.01354995,17.9087686 6.64054995,18.8387686 C6.10954995,20.1607686 5.96854995,21.5517686 6.00554995,22.9637686 C6.02154995,23.6057686 6.22254995,24.1927686 6.66354995,24.6767686 C7.26854995,25.3397686 8.05254995,25.5657686 8.91654995,25.5687686 C10.48955,25.5737686 12.06055,25.5707686 13.63355,25.5707686 C15.13955,25.5707686 16.64455,25.5727686 18.15055,25.5687686 C18.21455,25.5687686 18.27855,25.5587686 18.34255,25.5577686 C17.84855,25.2237686 17.51455,24.6557686 17.51855,23.9597686" id="Fill-98" fill="#666666"></path>
    </g>
</svg>