<svg width="0" height="0" class="hidden">
  <symbol viewBox="0 0 36 34" xmlns="http://www.w3.org/2000/svg" id="Basic-Details">
    <title>Basic-Details</title>
    <g fill="none" fill-rule="evenodd">
      <path d="M11.926 9.694h17.95M12.04 17.483h17.948M12.04 25.159h17.948" stroke="#666"></path>
      <path d="M8.957 9.479a1.479 1.479 0 1 1-2.958 0 1.479 1.479 0 0 1 2.958 0m.08 8.031a1.479 1.479 0 1 1-2.958 0 1.479 1.479 0 0 1 2.958 0m.08 7.646a1.479 1.479 0 1 1-2.958 0 1.479 1.479 0 0 1 2.958 0" fill="#000"></path>
    </g>
  </symbol>
  <symbol viewBox="0 0 36 34" xmlns="http://www.w3.org/2000/svg" id="Block">
    <title>Block</title>
    <g fill="none" fill-rule="evenodd">
      <path d="M16.649 12.545c-1.768-.076-3.521-.309-5.191-.95-.312-.12-.61-.28-.906-.438-.128-.068-.234-.178-.367-.282.375-.385.815-.571 1.262-.739 1.22-.457 2.49-.685 3.783-.833a27.072 27.072 0 0 1 4.39-.125c1.533.074 3.052.266 4.528.709.637.191 1.264.405 1.81.806.196.144.16.227-.012.351-.535.386-1.146.598-1.765.789a15.397 15.397 0 0 1-3.896.661c-1.211.052-2.427.103-3.636.051zm3.422 12.548a.965.965 0 0 1-.965-.965v-6.753c0-.533.432-.965.965-.965h3.42c1.225-1.224 2.45-2.445 3.672-3.672a.563.563 0 0 0 .149-.345c.016-.505.01-1.011.004-1.517a1.022 1.022 0 0 0-.066-.341c-.2-.514-.63-.801-1.081-1.052-1.02-.568-2.138-.854-3.272-1.066-1.57-.294-3.156-.413-5.037-.417-1.86.036-3.986.195-6.056.814-.81.243-1.598.533-2.257 1.087-.334.28-.563.614-.546 1.083.018.455-.008.911.012 1.365.006.134.07.295.163.389 2.164 2.176 4.334 4.345 6.507 6.511a.6.6 0 0 1 .193.465c-.007 1.753.004 3.507-.01 5.26-.003.444.178.764.557.935.363.165.752.31 1.144.368.812.12 1.615.046 2.352-.365.327-.182.506-.441.532-.819h-.38z"
        fill="#666"></path>
      <path d="M27.256 23.73a.829.829 0 0 1-.83.83h-5.805a.829.829 0 0 1-.83-.83v-5.806a.83.83 0 0 1 .83-.829h5.806c.458 0 .829.371.829.83v5.805z" fill="#A952A5"></path>
    </g>
  </symbol>
  <symbol viewBox="0 0 36 34" xmlns="http://www.w3.org/2000/svg" id="Check-ins">
    <title>Check-ins</title>
    <g fill="#666" fill-rule="evenodd">
      <path d="M18.498 14.075a1.457 1.457 0 0 0-1.43 1.448c.006.771.664 1.413 1.445 1.408a1.442 1.442 0 0 0 1.42-1.432c-.005-.77-.667-1.427-1.435-1.424m-.005 4.255c-1.516.04-2.824-1.234-2.827-2.808a2.838 2.838 0 0 1 2.832-2.856c1.566-.002 2.822 1.265 2.835 2.833.013 1.577-1.313 2.884-2.84 2.831"></path>
      <path d="M18.484 10.197c-.459 0-.924.063-1.383.187a5.172 5.172 0 0 0-1.94 1.003 5.287 5.287 0 0 0-1.883 3.147 5.125 5.125 0 0 0 .137 2.486c.197.656.502 1.25.907 1.766l4.178 5.268 1.103-1.389c.954-1.202 1.907-2.404 2.867-3.6.658-.821 1.063-1.642 1.24-2.509a5.215 5.215 0 0 0-.11-2.507 5.211 5.211 0 0 0-1.135-2.062 5.273 5.273 0 0 0-3.126-1.719 5.256 5.256 0 0 0-.855-.071zm.01 16.495c-.423 0-.827-.207-1.139-.581a61.416 61.416 0 0 1-1.038-1.298 76.678 76.678 0 0 0-.498-.631l-.71-.895c-.745-.936-1.489-1.872-2.239-2.804-.735-.915-1.206-1.752-1.482-2.635-.369-1.173-.47-2.149-.323-3.072l.041-.266c.066-.431.134-.877.273-1.309a7.36 7.36 0 0 1 2.408-3.511 7.468 7.468 0 0 1 2.618-1.372 7.654 7.654 0 0 1 1.01-.203l.088-.015c.23-.035.46-.058.658-.077L18.393 8l.028.001c2.528.093 4.472 1.03 5.946 2.863a7.23 7.23 0 0 1 1.201 2.192 7.37 7.37 0 0 1 .411 2.874c-.092 1.441-.539 2.731-1.327 3.834-.386.539-.804 1.062-1.208 1.568l-.4.503c-.61.771-1.22 1.54-1.833 2.309l-1.006 1.27c-.185.236-.37.472-.564.7-.318.373-.725.578-1.147.578z"></path>
    </g>
  </symbol>
  <symbol viewBox="0 0 36 34" xmlns="http://www.w3.org/2000/svg" id="Check-in-Questions">
    <title>Check-in-questions</title>
    <g fill="#666" fill-rule="evenodd">
      <path d="M15.0148934,20.3068854 C14.7088934,20.3068854 14.4028934,20.2978854 14.0978934,20.3088854 C13.6868934,20.3238854 13.3878934,20.6168854 13.3748934,20.9978854 C13.3618934,21.3658854 13.6638934,21.7328854 14.0508934,21.7458854 C14.6998934,21.7708854 15.3498934,21.7698854 15.9988934,21.7478854 C16.3808934,21.7348854 16.6828934,21.3578854 16.6628934,20.9908854 C16.6428934,20.6188854 16.3538934,20.3258854 15.9698934,20.3098854 C15.6518934,20.2958854 15.3328934,20.3068854 15.0148934,20.3068854 Z M17.1638934,14.4118854 L17.1638934,14.4138854 C18.1608934,14.4138854 19.1568934,14.4178854 20.1538934,14.4118854 C20.6428934,14.4098854 20.9638934,14.1108854 20.9618934,13.6818854 C20.9598934,13.2528854 20.6398934,12.9598854 20.1488934,12.9588854 C18.1678934,12.9548854 16.1868934,12.9558854 14.2068934,12.9598854 C14.0698934,12.9598854 13.9218934,12.9758854 13.7988934,13.0298854 C13.4978934,13.1618854 13.3088934,13.5288854 13.3928934,13.8198854 C13.4918934,14.1668854 13.7048934,14.4088854 14.0968934,14.4108854 C15.1188934,14.4148854 16.1418934,14.4118854 17.1638934,14.4118854 Z M17.1488934,18.1478854 L17.1488934,18.1458854 C18.1578934,18.1458854 19.1668934,18.1578854 20.1758934,18.1408854 C20.6518934,18.1328854 20.9568934,17.8278854 20.9638934,17.4228854 C20.9718934,17.0088854 20.6388934,16.6688854 20.1638934,16.6668854 C18.1708934,16.6578854 16.1788934,16.6578854 14.1858934,16.6718854 C13.9988934,16.6728854 13.7828934,16.7668854 13.6328934,16.8848854 C13.3988934,17.0688854 13.3038934,17.3358854 13.4198934,17.6388854 C13.5558934,17.9948854 13.8338934,18.1448854 14.1978934,18.1458854 C15.1818934,18.1498854 16.1648934,18.1478854 17.1488934,18.1478854 Z M21.5218934,23.7248854 C20.8998934,23.1258854 20.3268934,22.5618854 19.7398934,22.0138854 C19.3848934,21.6818854 18.9368934,21.6928854 18.6458934,22.0098854 C18.3748934,22.3048854 18.3948934,22.7538854 18.7218934,23.0748854 C19.4708934,23.8068854 20.2238934,24.5348854 20.9868934,25.2508854 C21.4138934,25.6528854 21.7918934,25.6328854 22.1808934,25.2038854 C23.5278934,23.7178854 24.8708934,22.2288854 26.2098934,20.7358854 C26.5668934,20.3378854 26.5688934,19.8628854 26.2378934,19.5778854 C25.8908934,19.2798854 25.4718934,19.3468854 25.0988934,19.7588854 C24.2858934,20.6608854 23.4728934,21.5608854 22.6598934,22.4618854 C22.2928934,22.8688854 21.9268934,23.2748854 21.5218934,23.7248854 Z M11.4978934,10.4988854 L22.6498934,10.4988854 L22.6498934,11.0128854 C22.6498934,13.2778854 22.6478934,15.5418854 22.6508934,17.8078854 C22.6508934,18.4328854 22.9968934,18.7708854 23.5308934,18.6828854 C23.9268934,18.6178854 24.1238934,18.3298854 24.1238934,17.7898854 C24.1258934,15.1668854 24.1258934,12.5438854 24.1238934,9.91988544 C24.1228934,9.25388544 23.8858934,9.00388544 23.2288934,9.00288544 C19.1088934,8.99888544 14.9878934,8.99888544 10.8678934,9.00388544 C10.2438934,9.00388544 10.0018934,9.24788544 10.0018934,9.86588544 C9.99889339,14.9328854 9.99989339,19.9998854 10.0018934,25.0678854 C10.0018934,25.6808854 10.2498934,25.9258854 10.8668934,25.9268854 C12.7348934,25.9298854 14.6028934,25.9298854 16.4708934,25.9268854 C17.0138934,25.9258854 17.3198934,25.6628854 17.3258934,25.2108854 C17.3308934,24.7378854 17.0238934,24.4708854 16.4598934,24.4698854 C14.9498934,24.4678854 13.4398934,24.4688854 11.9298934,24.4688854 L11.4978934,24.4688854 L11.4978934,10.4988854 Z" ></path>
    </g>
  </symbol>
  <symbol viewBox="0 0 36 34" xmlns="http://www.w3.org/2000/svg" id="Collaborators">
    <title>Collaborators</title>
    <g fill="none" fill-rule="evenodd">
      <path d="M13.633 8c2.305.013 4.131 1.863 4.127 4.182a4.132 4.132 0 0 1-4.157 4.148c-2.333-.013-4.153-1.856-4.139-4.192A4.134 4.134 0 0 1 13.634 8" fill="#666"></path>
      <path d="M30.099 20.973a5.275 5.275 0 1 1-10.549-.001 5.275 5.275 0 0 1 10.549.001zm-3.672.5v-.001c.342 0 .684.006 1.026-.002a.45.45 0 0 0 .428-.55c-.05-.237-.218-.37-.475-.371-.649-.002-1.299-.001-1.949-.001-.168 0-.168 0-.168-.17 0-.658.002-1.315 0-1.973a.46.46 0 0 0-.619-.436c-.196.066-.31.233-.31.467-.002.658-.003 1.315.001 1.973.001.11-.034.144-.143.14-.304-.005-.608-.001-.912-.001-.36 0-.723-.003-1.084 0a.45.45 0 0 0-.465.47c.002.263.197.453.48.454.657.002 1.314 0 1.972 0 .15 0 .15 0 .15.154 0 .646-.002 1.292.002 1.938a.663.663 0 0 0 .048.254c.084.19.31.3.498.257a.466.466 0 0 0 .382-.461c.001-.67.002-1.338-.002-2.007 0-.105.032-.138.137-.136.334.005.67.002 1.003.002z"
        fill="#FB953B"></path>
      <path d="M18.024 20.979c0-1.437.58-2.738 1.52-3.683a2.844 2.844 0 0 0-1.19-.654c-.523-.14-1.024-.18-1.47.215-.105.093-.235.159-.354.237-1.222.806-2.54 1.157-3.996.818a5.066 5.066 0 0 1-2.063-.978c-.615-.495-1.241-.444-1.916-.187-.991.378-1.541 1.163-1.914 2.092-.53 1.322-.672 2.713-.635 4.125.016.642.217 1.229.659 1.713.604.663 1.388.889 2.253.892 1.572.005 3.144.002 4.717.002 1.505 0 3.01.002 4.517-.002.245-.001.493-.011.736-.043a2.848 2.848 0 0 0 1.177-.43c-1.234-.956-2.041-2.436-2.041-4.117"
        fill="#666"></path>
    </g>
  </symbol>
  <symbol viewBox="0 0 36 34" xmlns="http://www.w3.org/2000/svg" id="Dates">
    <title>Dates</title>
    <g fill="none" fill-rule="evenodd">
      <path d="M24.403 17.87l-.001.663c0 .107.05.16.153.163.094.003.187.003.28 0 .1-.003.16-.058.162-.159.002-.438 0-.875 0-1.313 0-.102-.054-.159-.157-.16a5.425 5.425 0 0 0-.255-.002c-.148.005-.181.038-.182.183v.625m-2.956.017c0-.22-.002-.442 0-.663 0-.105-.05-.159-.152-.16a4.768 4.768 0 0 0-.293 0c-.096.005-.15.058-.15.155v1.313c0 .108.062.165.17.166h.255c.114-.002.172-.053.17-.172-.003-.213 0-.425 0-.639M20.35 19.49c-.11 0-.137.037-.137.152.003 1.36.003 2.719 0 4.078 0 .115.028.153.137.153 1.718-.003 3.436-.003 5.153 0 .105 0 .13-.04.13-.148a928.886 928.886 0 0 1 0-4.09c.002-.111-.027-.145-.131-.145m-2.574 5.299c-1.065 0-2.131-.009-3.196.005a.646.646 0 0 1-.65-.648c.012-1.948.006-3.896.007-5.843 0-.412.228-.642.637-.643.124-.002.248 0 .37-.002.174 0 .173 0 .176-.168.002-.136 0-.273.012-.408a.704.704 0 0 1 .647-.616c.19-.006.389-.018.57.023.323.076.524.367.535.713.004.114.004.23 0 .345-.001.078.022.114.11.114.52-.003 1.04-.003 1.56 0 .079 0 .103-.032.105-.107.005-.174.002-.35.028-.52a.687.687 0 0 1 .635-.567c.215-.004.44-.009.642.053.263.08.425.29.449.579.012.143.012.289.01.434-.001.091.032.13.128.128.157-.006.315-.005.473 0 .34.008.582.255.582.596v5.918c0 .366-.252.614-.621.614h-3.21"
        fill="#00558D"></path>
      <path d="M16.649 12.545c-1.768-.076-3.521-.309-5.191-.95-.312-.12-.61-.28-.906-.438-.128-.068-.234-.178-.367-.282.374-.385.815-.571 1.262-.739 1.22-.457 2.49-.685 3.783-.833a27.072 27.072 0 0 1 4.39-.125c1.533.074 3.052.265 4.528.709.637.191 1.264.405 1.81.806.196.144.16.227-.012.351-.535.386-1.146.598-1.765.789a15.404 15.404 0 0 1-3.896.661c-1.211.052-2.427.103-3.636.051m2.749 12.55a.735.735 0 0 1-.74-.739c.013-2.218.007-4.16.007-6.378 0-.468.26-.729.726-.732h.515c.197-.001.196-.001.198-.192.003-.155 0-.299.015-.453.035-.366.277-.504.644-.517a5.64 5.64 0 0 1 .65.014c.549.044.78.233.793.626a5.15 5.15 0 0 1 0 .393c-.001.089.026.131.125.13h.323c1.504-1.502 3.009-3.003 4.509-4.509a.563.563 0 0 0 .149-.345c.016-.505.01-1.011.004-1.517a1 1 0 0 0-.067-.341c-.198-.514-.63-.801-1.08-1.052-1.02-.568-2.138-.854-3.272-1.066-1.57-.294-3.156-.413-5.037-.417-1.86.036-3.987.195-6.056.814-.81.243-1.598.533-2.257 1.087-.334.28-.563.614-.546 1.083.017.455-.008.911.012 1.365.005.134.07.295.163.389 2.164 2.176 4.334 4.345 6.507 6.511a.596.596 0 0 1 .192.465c-.006 1.753.005 3.507-.01 5.26-.002.444.179.764.558.935.363.165.752.31 1.144.368.812.12 1.614.046 2.352-.365.24-.134.397-.587.478-.818-.333.001-.666-.003-1 .001"
        fill="#666"></path>
    </g>
  </symbol>
  <symbol viewBox="0 0 36 34" xmlns="http://www.w3.org/2000/svg" id="Event">
    <title>Event</title>
    <path d="M8 13.031h19.282v13.311c0 .941-.763 1.704-1.705 1.704H9.704A1.704 1.704 0 0 1 8 26.342v-13.31zm2.661 2.35v9.125c0 .645.523 1.168 1.17 1.168h11.958a1.17 1.17 0 0 0 1.17-1.168V15.38H10.66zm16.621-3.788H8V9.995c0-.941.763-1.704 1.705-1.704h1.704v-.986a1.305 1.305 0 1 1 2.61 0v.986h7.404v-.986a1.305 1.305 0 1 1 2.61 0v.986h1.545c.941 0 1.704.763 1.704 1.704v1.598zm-5.906 4.889a1 1 0 0 1 1.392 1.435l-6.297 6.112a1 1 0 0 1-1.451-.062l-2.037-2.346a1 1 0 1 1 1.51-1.311l1.344 1.548 5.539-5.376z"
      fill="#99D3B5" fill-rule="evenodd"></path>
  </symbol>
  <symbol viewBox="0 0 36 34" xmlns="http://www.w3.org/2000/svg" id="Followups">
    <title>Followups</title>
    <path d="M19.0725,22.7292 L19.0695,22.7292 C19.0695,23.1682 19.0585,23.6092 19.0755,24.0482 C19.0815,24.2062 19.1555,24.3612 19.1985,24.5172 C19.3535,24.4572 19.5115,24.4022 19.6625,24.3332 C19.7195,24.3062 19.7615,24.2462 19.8115,24.2022 C22.2785,22.0032 24.7445,19.8052 27.2125,17.6082 C27.5875,17.2742 27.5905,17.2132 27.2025,16.8702 C26.2575,16.0292 25.3095,15.1902 24.3625,14.3512 C22.8165,12.9822 21.2725,11.6112 19.7195,10.2492 C19.5805,10.1252 19.3855,10.0652 19.2165,9.9762 C19.1685,10.1692 19.0825,10.3622 19.0785,10.5572 C19.0635,11.3962 19.0585,12.2372 19.0795,13.0772 C19.0875,13.4052 18.9655,13.4962 18.6545,13.5462 C17.8955,13.6702 17.1185,13.7702 16.3965,14.0182 C14.2085,14.7692 12.4945,16.1672 11.2005,18.0752 C9.8745,20.0322 9.1435,22.2162 8.8355,24.5422 C8.6895,25.6502 8.6315,26.7702 8.5555,27.8852 C8.5455,28.0302 8.6635,28.1842 8.7215,28.3332 C8.8265,28.2192 8.9655,28.1222 9.0285,27.9882 C9.2305,27.5552 9.3755,27.0932 9.5955,26.6692 C10.7715,24.4032 12.5965,22.8332 14.9015,21.7942 C16.1035,21.2522 17.3545,20.9152 18.6875,20.9282 C18.9805,20.9312 19.0895,21.0342 19.0775,21.3302 C19.0595,21.7952 19.0725,22.2622 19.0725,22.7292" id="Fill-101" fill="#666666"></path>
  </symbol>
  <symbol viewBox="0 0 36 34" xmlns="http://www.w3.org/2000/svg" id="Full-Screen">
    <title>Full-Screen</title>
    <path d="M22.59 13.456l-1.24-1.175 2.801-2.896h-3.563V7.78h6.43v6.348h-1.626v-3.482a3.045 3.045 0 0 0-.1-.046l-2.702 2.855M9.693 18.6h1.574v3.508l.084.044 2.766-2.907 1.184 1.223-2.83 2.88H16.1v1.623H9.693V18.6zm11.749 2.177l1.175-1.24 2.896 2.801v-3.563h1.604v6.43H20.77V23.58h3.482l.046-.1-2.855-2.702M16.298 7.88v1.574H12.79l-.044.084 2.907 2.766-1.223 1.184-2.88-2.829v3.628H9.927V7.88h6.371z"
      fill="#666" fill-rule="evenodd"></path>
  </symbol>
  <symbol viewBox="0 0 36 34" xmlns="http://www.w3.org/2000/svg" id="Interview-Blocks">
    <title>Interview-Blocks</title>
    <g fill="none" fill-rule="evenodd">
      <path fill="#338DC9" d="M6 13.293h5.293V8H6z"></path>
      <path fill="#A952A5" d="M6 20.154h5.293v-5.293H6z"></path>
      <path fill="#FB953B" d="M6.049 26.917h5.293v-5.293H6.049z"></path>
      <path d="M13.482 10.416h16.23m-16.21 7.043h16.229M13.502 24.4h16.229" stroke="#666"></path>
    </g>
  </symbol>
  <symbol viewBox="0 0 36 34" xmlns="http://www.w3.org/2000/svg" id="Interview-Details">
    <title>Interview-Details</title>
    <path d="M6 8h6.493M6.04 16.247h6.494M6.04 24.375h6.494M14.862 8h6.493m-6.453 8.247h6.493m-6.493 8.128h6.493M24.009 8H30.5m-6.45 8.247h6.492m-6.492 8.128h6.492" fill="none" stroke="#666"></path>
  </symbol>
  <symbol viewBox="0 0 36 34" xmlns="http://www.w3.org/2000/svg" id="Interviewer">
    <title>Interviewer</title>
    <g fill="none" fill-rule="evenodd">
      <path d="M27.842 18.468c-.018-.042-.025-.09-.052-.118a5.116 5.116 0 0 0-.338-.337c-.086-.076-.182-.055-.262.02a3.864 3.864 0 0 0-.254.259c-.02.024-.024.094-.005.114.149.159.303.312.461.462.021.019.086.023.105.005.101-.091.196-.19.288-.29.027-.03.037-.074.057-.115m-4.291 3.013h-1.259c-.432 0-.864.003-1.295-.001-.106-.001-.151.035-.144.142.005.093.003.187.001.28-.002.079.032.109.112.108.763-.002 1.525 0 2.287-.002.032 0 .084-.008.093-.028.069-.154.13-.312.205-.5m.898-1.211l-.02-.032h-3.212c-.366 0-.366 0-.363.364.001.164.001.164.161.164.833 0 1.668-.016 2.5.008.329.01.58-.064.773-.33.046-.064.107-.116.161-.174m-3.222 2.458c-.378 0-.374 0-.376.377 0 .117.037.153.155.152.588-.005 1.175-.002 1.763-.003.599 0 1.199-.002 1.798.002.103 0 .141-.036.135-.135-.004-.073-.001-.148-.001-.221-.001-.166-.005-.172-.171-.172m-1.752-3.206c.596 0 1.192-.002 1.788.002.103 0 .143-.035.138-.134-.004-.066 0-.132-.001-.2 0-.196 0-.196-.192-.196h-3.038c-.164 0-.327.004-.491-.001-.098-.003-.133.038-.129.13.004.079 0 .157.001.235 0 .164.001.164.16.164h1.764m1.031 2.528c.053-.02.079-.027.104-.037.22-.088.441-.174.66-.265a.443.443 0 0 0 .146-.091c.821-.818 1.64-1.64 2.462-2.458.065-.065.052-.107-.006-.163-.134-.13-.269-.26-.395-.397-.072-.077-.117-.082-.196-.003-.748.755-1.49 1.517-2.258 2.25-.314.3-.392.696-.557 1.059-.01.024.026.069.04.105m-1.603-4.794h-.657a.43.43 0 0 0-.406.249c-.036.073-.083.09-.156.09h-.736c-.272.002-.401.13-.401.402v6.275c0 .28.125.406.405.406h5.048c.279 0 .402-.127.402-.41v-2.933c0-.04-.005-.08-.009-.154-.107.105-.183.194-.273.265-.14.109-.175.243-.173.416.01.658.004 1.317.004 1.975 0 .168 0 .168-.164.168h-4.628c-.161 0-.162 0-.162-.17v-5.023c0-.211.005-.421-.002-.631-.003-.105.036-.137.136-.133.16.007.32.002.479.002.176 0 .176 0 .176.177 0 .153 0 .154.153.154h2.992c.224 0 .228 0 .229-.227.001-.084.031-.107.11-.105.183.004.366.006.549-.001.103-.003.135.033.134.135-.005.37-.002.74-.001 1.11 0 .045.005.09.01.17.135-.135.253-.241.356-.36a.323.323 0 0 0 .08-.191c.009-.304.005-.608.004-.912-.001-.277-.129-.403-.409-.405h-.736c-.07 0-.112-.02-.146-.087a.438.438 0 0 0-.416-.252h-.647c-.041-.46-.238-.676-.589-.67-.332.006-.532.238-.556.67"
        fill="#FB953B"></path>
      <path d="M22.78 17.478a.34.34 0 0 0 .334-.333.336.336 0 0 0-.67.003.335.335 0 0 0 .335.33m-.573-.222c.024-.433.224-.665.556-.671.351-.006.548.212.59.67h.645c.19 0 .331.086.415.252.035.067.077.089.146.088.246-.002.491-.001.737 0 .28 0 .408.128.41.405 0 .303.004.607-.005.91a.323.323 0 0 1-.08.192c-.103.119-.22.225-.356.36-.005-.08-.01-.125-.01-.17 0-.37-.004-.74.001-1.11.001-.102-.03-.138-.134-.135a9.135 9.135 0 0 1-.549 0c-.079-.001-.109.022-.11.106 0 .227-.005.227-.229.227h-2.992c-.153 0-.153 0-.153-.154 0-.177 0-.177-.176-.177-.16 0-.319.005-.479-.001-.1-.004-.139.027-.136.132.007.21.002.42.002.63v5.026c0 .169.001.169.162.169h4.628c.164 0 .164-.001.164-.17 0-.657.005-1.315-.004-1.974-.002-.172.033-.307.173-.416.09-.07.166-.16.273-.264.004.073.01.113.01.153v2.933c0 .283-.125.41-.403.41h-5.048c-.28 0-.405-.125-.405-.406v-6.275c0-.272.128-.4.401-.401.246-.001.491-.002.736 0 .073 0 .12-.018.156-.091a.432.432 0 0 1 .406-.248h.657"
        fill="#FB953B"></path>
      <path d="M23.81 22.049c-.016-.036-.052-.081-.04-.105.164-.363.242-.759.556-1.058.768-.734 1.51-1.496 2.258-2.251.078-.079.124-.075.195.003.127.137.261.267.396.397.058.056.071.098.006.163-.822.818-1.64 1.639-2.463 2.458a.433.433 0 0 1-.146.091c-.218.091-.439.177-.659.265l-.104.037m-1.031-2.528h-1.764c-.16 0-.16 0-.16-.165 0-.078.002-.156 0-.233-.006-.094.03-.135.128-.132.163.006.327.002.491.002h3.038c.191 0 .192 0 .192.197 0 .066-.003.133 0 .2.005.098-.034.134-.137.133-.596-.004-1.192-.002-1.788-.002m1.672.748c-.055.058-.116.11-.162.174-.193.266-.444.34-.773.33-.833-.024-1.667-.008-2.5-.008-.16 0-.16 0-.16-.164-.004-.363-.004-.363.362-.363h3.213l.02.03m-.9 1.213c-.074.187-.135.345-.204.5-.01.018-.061.026-.093.027-.762.001-1.524 0-2.287.002-.08 0-.114-.029-.112-.108.002-.094.004-.187-.001-.28-.007-.107.038-.144.144-.143.432.004.863.002 1.295.002h1.259zm4.292-3.013c-.02.04-.03.086-.057.116-.092.1-.187.198-.288.289-.019.018-.084.014-.105-.005-.158-.15-.312-.303-.461-.462-.019-.02-.015-.09.005-.114.079-.091.167-.175.254-.258.08-.076.176-.097.262-.021.119.105.229.22.338.337.027.029.034.076.052.118m-5.062-.99a.335.335 0 0 1-.337-.33.336.336 0 0 1 .671-.003.34.34 0 0 1-.335.333"
        fill="#FB953B"></path>
      <path d="M25.945 11.044c-.535.386-1.145.598-1.764.789a15.403 15.403 0 0 1-3.897.66c-1.21.053-2.426.104-3.636.052-1.768-.077-3.521-.309-5.191-.951-.312-.12-.61-.28-.906-.437-.127-.068-.233-.178-.366-.283.374-.385.815-.571 1.262-.738 1.22-.457 2.49-.685 3.782-.833a27.072 27.072 0 0 1 4.391-.125c1.533.074 3.052.265 4.528.708.636.191 1.263.405 1.809.807.196.144.161.226-.012.351m1.304-.509c-.198-.515-.629-.801-1.08-1.053-1.021-.567-2.139-.854-3.273-1.066-1.568-.293-3.155-.413-5.037-.416-1.858.036-3.986.195-6.055.814-.81.243-1.598.533-2.257 1.086-.334.281-.564.614-.546 1.084.017.454-.009.911.011 1.365a.641.641 0 0 0 .164.389 1996.9 1996.9 0 0 0 6.506 6.511.6.6 0 0 1 .193.465c-.007 1.753.004 3.506-.009 5.26-.004.444.177.763.556.935.364.164.752.31 1.144.368.813.12 1.615.046 2.353-.365.268-.15.442-.624.51-.9h-.589c-.321 0-.463-.143-.463-.464V17.66c0-.31.147-.456.458-.458.28-.001.56-.001.841.001.082 0 .136-.021.178-.104a.491.491 0 0 1 .463-.284h.75c.027-.493.256-.759.635-.766.33-.005.534.173.624.525 1.279-1.278 2.561-2.555 3.836-3.836a.558.558 0 0 0 .149-.345c.017-.505.011-1.011.004-1.517a.989.989 0 0 0-.066-.341"
        fill="#666"></path>
    </g>
  </symbol>
  <symbol viewBox="0 0 36 34" xmlns="http://www.w3.org/2000/svg" id="Notifications">
    <title>Notifications</title>
    <path d="M17.011 11.883c-.53.098-.923.31-1.162.675-.306.468-.607.969-.763 1.499-.269.913-.449 1.854-.619 2.792-.205 1.13-.409 2.257-1.074 3.228-.235.342-.52.649-.788.98.516 0 1.032.012 1.548-.01a.52.52 0 0 0 .351-.19c.572-.796.828-1.717.966-2.667.184-1.27.305-2.548.498-3.815.134-.881.269-1.78 1.043-2.492zM11 22.31v-1.896c1.084-.412 1.616-1.28 1.884-2.293.29-1.094.443-2.224.68-3.332.176-.818.388-1.625.809-2.364.502-.88 1.206-1.495 2.198-1.757a.868.868 0 0 0 .112-.038c.017-.008.029-.025.043-.037-.483-.987-.388-1.726.284-2.254a1.599 1.599 0 0 1 2.015.036c.639.54.721 1.322.219 2.232.076.026.147.053.22.074 1.208.345 1.938 1.2 2.347 2.323.302.829.502 1.697.716 2.555.205.82.341 1.658.56 2.474.268.996.91 1.729 1.769 2.28.058.039.136.109.137.165.009.604.006 1.209.006 1.832H11zm8.978.994c0 .718-.302 1.26-.875 1.639-.703.465-1.443.477-2.16.037-.609-.373-.927-.93-.934-1.676h3.969z"
      fill="#666" fill-rule="evenodd"></path>
  </symbol>
  <symbol viewBox="0 0 36 34" xmlns="http://www.w3.org/2000/svg" id="Open">
    <title>Open</title>
    <g fill="none" fill-rule="evenodd">
      <path d="M27.398 21.2a4.181 4.181 0 1 1-8.362 0 4.181 4.181 0 0 1 8.362 0" fill="#FFF"></path>
      <path d="M27.362 21.181a4.181 4.181 0 1 1-8.362 0 4.181 4.181 0 0 1 8.362 0z" stroke="#33865F" stroke-width="1.5"></path>
      <path d="M15.649 12.545c-1.768-.076-3.522-.309-5.191-.95-.313-.12-.611-.28-.907-.438-.127-.068-.233-.178-.366-.282.374-.385.815-.571 1.262-.739 1.22-.457 2.491-.685 3.783-.833a27.056 27.056 0 0 1 4.39-.125c1.533.074 3.052.265 4.528.709.636.191 1.263.405 1.81.806.196.144.16.227-.013.351-.534.386-1.145.598-1.764.789a15.404 15.404 0 0 1-3.896.661c-1.211.052-2.427.103-3.636.051m1.933 8.684a5.533 5.533 0 0 1 5.533-5.533c.029 0 .057.003.086.004.987-.988 1.977-1.972 2.962-2.962a.563.563 0 0 0 .149-.345c.016-.505.01-1.011.004-1.517a1.024 1.024 0 0 0-.067-.341c-.198-.514-.629-.801-1.08-1.052-1.02-.568-2.138-.854-3.273-1.067-1.568-.293-3.155-.412-5.037-.416-1.858.036-3.986.195-6.055.814-.81.243-1.598.533-2.257 1.087-.334.28-.564.614-.546 1.083.017.455-.008.911.012 1.365.005.133.07.295.163.389 2.164 2.176 4.333 4.345 6.506 6.511a.596.596 0 0 1 .193.465c-.007 1.753.004 3.507-.009 5.26-.004.444.177.764.557.935.363.164.752.31 1.144.368.812.12 1.614.046 2.352-.365.253-.141.418-.329.493-.58a5.515 5.515 0 0 1-1.83-4.103"
        fill="#666"></path>
    </g>
  </symbol>
  <symbol viewBox="0 0 36 34" xmlns="http://www.w3.org/2000/svg" id="Owners">
    <title>Owners</title>
    <g fill="none" fill-rule="evenodd">
      <path d="M13.633 8c2.305.013 4.131 1.863 4.127 4.182a4.132 4.132 0 0 1-4.157 4.148c-2.333-.013-4.153-1.856-4.139-4.192A4.134 4.134 0 0 1 13.634 8m4.39 12.979c0-1.437.58-2.738 1.52-3.683a2.855 2.855 0 0 0-1.19-.654c-.523-.14-1.024-.18-1.47.215-.105.093-.235.159-.354.237-1.222.806-2.54 1.157-3.996.818a5.077 5.077 0 0 1-2.063-.977c-.615-.496-1.241-.446-1.916-.188-.991.378-1.541 1.163-1.914 2.092-.53 1.322-.672 2.713-.635 4.125.016.642.217 1.229.659 1.713.604.663 1.388.889 2.253.892 1.572.005 3.144.002 4.717.002 1.505 0 3.01.002 4.517-.002.245-.001.493-.011.736-.043a2.848 2.848 0 0 0 1.177-.43c-1.234-.956-2.041-2.436-2.041-4.117"
        fill="#666"></path>
      <path d="M26.014 20.953c-.006-.84-.731-1.548-1.573-1.536a1.573 1.573 0 0 0-1.53 1.58 1.56 1.56 0 0 0 1.559 1.516 1.56 1.56 0 0 0 1.544-1.56m-1.557 5.344h-.142c-.724 0-.724 0-.801-.714a4.599 4.599 0 0 1-.025-.31c-.007-.206-.094-.32-.31-.374a2.617 2.617 0 0 1-.623-.26c-.157-.088-.271-.086-.407.031-.193.166-.402.313-.6.474-.166.135-.311.143-.47-.022-.253-.266-.518-.523-.782-.78-.148-.143-.161-.284-.033-.448.203-.26.523-.508.563-.794.04-.282-.19-.613-.331-.907a.49.49 0 0 0-.296-.235c-.256-.06-.523-.076-.786-.102-.194-.019-.29-.12-.29-.313 0-.387-.016-.776.012-1.162.008-.1.139-.25.239-.277.273-.069.563-.064.837-.129.112-.026.233-.14.29-.246.119-.223.215-.462.288-.705a.463.463 0 0 0-.033-.344c-.136-.214-.307-.407-.47-.603-.146-.174-.151-.33.019-.495.258-.249.509-.506.76-.762.15-.15.3-.174.476-.036.259.203.508.515.795.56.272.041.584-.214.884-.319.164-.058.249-.146.265-.32.023-.264.066-.525.094-.788.019-.18.106-.275.292-.274.397.001.795-.016 1.19.012.099.007.24.144.269.248.064.234.083.483.098.728.014.214.086.348.31.405.19.05.388.117.548.225.239.161.41.092.597-.076.168-.15.356-.28.534-.42.144-.114.278-.098.404.027.275.273.55.545.824.82.137.136.138.28.017.427l-.017.023c-.195.265-.515.513-.552.798-.036.285.199.611.34.908a.434.434 0 0 0 .26.206c.268.058.542.083.814.11.21.021.298.128.295.335-.005.368-.004.737-.001 1.106 0 .205-.091.313-.3.332-.264.024-.53.044-.786.101a.525.525 0 0 0-.282.218c-.074.116-.07.285-.15.393-.295.396-.165.692.13 1.03.45.518.5.471-.058 1.01-.17.163-.341.327-.5.502-.16.178-.312.173-.49.026-.195-.164-.404-.31-.6-.474-.125-.106-.232-.114-.382-.034a3.709 3.709 0 0 1-.677.282c-.175.052-.25.147-.267.316-.026.254-.068.506-.088.76-.017.231-.147.31-.356.31h-.54"
        fill="#39B54A"></path>
    </g>
  </symbol>
  <symbol viewBox="0 0 36 34" xmlns="http://www.w3.org/2000/svg" id="RSVPs">
    <title>RSVPs</title>
    <path d="M26.398 13.046v-1.442c0-.849-.689-1.538-1.538-1.538h-1.394v-.889a1.177 1.177 0 0 0-2.355 0v.889h-6.68v-.889a1.177 1.177 0 0 0-2.355 0v.889h-1.538c-.849 0-1.538.689-1.538 1.538v1.442h17.398zm-2.462 5.946h-2.63v-2.63h2.63v2.63zm-.059 3.845h-2.63v-2.63h2.63v2.63zm-5.217.048h-2.63v-2.63h2.63v2.63zm-2.726-6.475h2.63v2.63h-2.63v-2.63zm-2.285 6.536h-2.63v-2.63h2.63v2.63zm-2.726-6.475h2.63v2.63h-2.63v-2.63zM9 14.343V24.1c0 .85.69 1.538 1.538 1.538H24.86c.85 0 1.538-.688 1.538-1.538v-9.756H9z"
      fill="#666" fill-rule="evenodd"></path>
  </symbol>
  <symbol viewBox="0 0 36 34" xmlns="http://www.w3.org/2000/svg" id="Schedule">
    <title>Schedule</title>
    <path d="M5 12h26V8H5zm0 7h26v-4H5zm0 7h26v-4H5z" fill="#99D3B5" fill-rule="evenodd"></path>
  </symbol>
  <symbol viewBox="0 0 36 34" xmlns="http://www.w3.org/2000/svg" id="Signup-Links">
    <title>signuplinks</title>
    <g fill="none" fill-rule="evenodd">
      <path d="M32.089 22.629c0 .481-.39.871-.871.871H4.871A.871.871 0 0 1 4 22.629V10.871c0-.481.39-.871.871-.871h26.347c.481 0 .871.39.871.871v11.758z" stroke="#666"></path>
      <path d="M12.43 19h-1.412l-.89-3.356h-.02L9.259 19H7.836L6.25 14H7.7l.92 3.395h.019L9.47 14h1.334l.851 3.385h.02L12.594 14h1.412l-1.576 5zm7.872 0H18.89L18 15.644h-.019L17.131 19h-1.423l-1.586-5h1.451l.919 3.395h.02l.83-3.395h1.335l.852 3.385h.019L20.467 14h1.412l-1.577 5zm7.873 0h-1.412l-.89-3.356h-.02L25.003 19H23.58l-1.586-5h1.45l.92 3.395h.018L25.215 14h1.335l.85 3.385h.02L28.34 14h1.412l-1.576 5z"
        fill="#666"></path>
    </g>
  </symbol>
  <symbol viewBox="0 0 36 34" xmlns="http://www.w3.org/2000/svg" id="Students">
    <title>Students</title>
    <g fill="none" fill-rule="evenodd">
      <path d="M13.633 8c2.305.013 4.131 1.863 4.127 4.182a4.132 4.132 0 0 1-4.157 4.148c-2.333-.013-4.153-1.856-4.139-4.192A4.134 4.134 0 0 1 13.634 8m16.464 12.973a5.275 5.275 0 1 1-10.549-.001 5.275 5.275 0 0 1 10.55.001" fill="#666"></path>
      <path d="M26.427 21.473c-.334 0-.669.003-1.003-.002-.105-.002-.137.03-.137.136.005.669.003 1.338.002 2.007a.466.466 0 0 1-.382.46.457.457 0 0 1-.498-.256.663.663 0 0 1-.048-.254c-.004-.646-.002-1.292-.002-1.938 0-.153 0-.153-.15-.153-.658 0-1.315.002-1.973-.001-.281-.001-.477-.191-.479-.455a.45.45 0 0 1 .465-.468c.361-.004.723-.001 1.084-.001.304 0 .608-.004.912.002.109.003.144-.031.143-.141-.004-.658-.003-1.315-.002-1.973.001-.234.115-.401.311-.467a.46.46 0 0 1 .618.436c.004.658.001 1.315.001 1.973 0 .17.001.17.168.17h1.949c.257.002.424.135.475.372a.45.45 0 0 1-.428.55c-.342.008-.684.002-1.026.002z"
        fill="#FFF"></path>
      <path d="M18.024 20.979c0-1.437.58-2.738 1.52-3.683a2.844 2.844 0 0 0-1.19-.654c-.523-.14-1.024-.18-1.47.215-.105.093-.235.159-.354.237-1.223.806-2.54 1.156-3.996.818a5.066 5.066 0 0 1-2.063-.978c-.615-.495-1.241-.445-1.916-.187-.991.378-1.541 1.162-1.914 2.092-.531 1.322-.672 2.713-.635 4.125.016.642.217 1.229.659 1.713.604.663 1.388.889 2.253.892 1.572.005 3.144.002 4.717.002 1.505 0 3.01.002 4.517-.002.245-.001.493-.011.736-.043a2.848 2.848 0 0 0 1.177-.43c-1.234-.956-2.041-2.436-2.041-4.117"
        fill="#666"></path>
    </g>
  </symbol>
  <symbol viewBox="0 0 36 34" xmlns="http://www.w3.org/2000/svg" id="Students(events)">
    <title>Students</title>
    <g fill="none" fill-rule="evenodd">
      <path d="M13.633 8c2.305.013 4.131 1.863 4.127 4.182a4.132 4.132 0 0 1-4.157 4.148c-2.333-.013-4.153-1.856-4.139-4.192A4.134 4.134 0 0 1 13.634 8" fill="#666"></path>
      <path d="M19.98 23.444c.063-.059.104-.093.141-.13.616-.643 1.23-1.289 1.851-1.926.117-.12.111-.188 0-.303-.627-.642-1.246-1.29-1.867-1.936-.03-.033-.07-.057-.126-.1v4.395zm8.934-4.396c-.047.03-.065.036-.077.05-.647.671-1.29 1.345-1.94 2.014-.105.106-.077.17.012.261.424.435.837.88 1.265 1.311.241.243.502.466.74.685v-4.32zm-6.103 3.09l-2.063 2.15h7.398l-2.17-2.259c-.06.082-.099.15-.15.203-.329.345-.655.691-.99 1.03-.223.221-.52.228-.745.031-.06-.053-.113-.118-.173-.172l-1.107-.983zm-2.088-3.973l3.724 3.88 3.722-3.88h-7.446zm3.721 7.264c-1.285 0-2.57-.014-3.856.005a1.715 1.715 0 0 1-1.75-1.76c.01-1.625.002-3.249.002-4.873.001-1.05.721-1.772 1.771-1.772h7.675c1.024 0 1.757.693 1.767 1.72.016 1.65.013 3.298.001 4.947-.007.89-.523 1.51-1.38 1.706-.114.027-.236.026-.355.026-1.29.002-2.583.001-3.875.001z"
        fill="#3E7BAA"></path>
      <path d="M17.519 23.96c.01-1.773.003-3.546.003-5.32 0-.903.493-1.577 1.26-1.825-.138-.063-.271-.131-.428-.173-.523-.14-1.025-.18-1.47.215-.106.093-.235.159-.354.237-1.223.805-2.54 1.156-3.997.818-.757-.176-1.46-.492-2.062-.978-.616-.495-1.241-.445-1.916-.187-.992.378-1.541 1.162-1.914 2.092-.531 1.322-.672 2.713-.635 4.125.016.642.217 1.229.658 1.713.605.663 1.389.889 2.253.892 1.573.005 3.144.002 4.717.002 1.506 0 3.01.002 4.517-.002.064 0 .128-.01.192-.011a1.882 1.882 0 0 1-.824-1.598"
        fill="#666"></path>
    </g>
  </symbol>
  
  
  
  <symbol viewBox="0 0 36 34" xmlns="http://www.w3.org/2000/svg" id="ClassmateList">
    <g fill="none" fill-rule="evenodd" transform="translate(9,8)">
      <path d="M11.6089,17.9521 C11.6909,17.9661 11.7459,17.9931 11.7869,17.9781 C12.4199,17.7591 13.0529,17.5381 13.6809,17.3031 C13.7329,17.2831 13.7839,17.1511 13.7719,17.0841 C13.6909,16.6691 13.6019,16.2551 13.4939,15.8461 C13.4419,15.6531 13.2399,15.6231 13.1029,15.7731 C13.0439,15.8381 13.0099,15.9251 12.9599,15.9971 C12.5429,16.5921 12.1239,17.1851 11.7069,17.7801 C11.6739,17.8261 11.6509,17.8781 11.6089,17.9521 M1.8949,10.4261 C1.9199,10.4311 1.9439,10.4341 1.9689,10.4391 C2.0919,10.2831 2.2039,10.1171 2.3399,9.9731 C2.8469,9.4391 3.3659,8.9161 3.8699,8.3791 C3.9439,8.3011 3.9599,8.1681 4.0019,8.0601 C3.9099,8.0241 3.8179,7.9601 3.7259,7.9571 C3.2809,7.9461 2.8369,7.9651 2.3929,7.9461 C2.1469,7.9351 2.0299,8.0241 2.0059,8.2641 C1.9459,8.8601 1.8759,9.4571 1.8249,10.0551 C1.8139,10.1761 1.8699,10.3021 1.8949,10.4261 M17.5339,6.9751 L17.5759,6.9051 C16.7939,5.0311 15.4889,3.6291 13.6849,2.6981 C12.9999,2.3451 12.2769,2.0701 11.4849,2.0051 C11.5199,2.1241 11.5739,2.2111 11.6329,2.2951 C12.0899,2.9491 12.5449,3.6071 13.0129,4.2551 C13.0789,4.3471 13.2079,4.4251 13.3189,4.4451 C13.9999,4.5651 14.6149,5.0041 14.7729,5.6821 C14.7979,5.7921 14.9089,5.9371 15.0089,5.9661 C15.8159,6.1971 16.5809,6.5241 17.3219,6.9121 C17.3859,6.9451 17.4629,6.9551 17.5339,6.9751 M13.7269,10.0971 C13.7129,10.0941 13.6979,10.0921 13.6839,10.0891 C13.6629,9.6441 13.6649,9.1981 13.6149,8.7571 C13.5659,8.3191 13.4739,7.8851 13.3779,7.4531 C13.3589,7.3651 13.2439,7.2461 13.1579,7.2321 C12.7049,7.1581 12.3619,6.9171 12.1169,6.5511 C11.9969,6.3721 11.8599,6.3431 11.6719,6.3411 C10.8529,6.3341 10.0499,6.4121 9.2449,6.5981 C8.4519,6.7811 7.6929,7.0351 6.9639,7.3861 C6.8899,7.4211 6.8009,7.5201 6.8019,7.5891 C6.8029,7.6551 6.8989,7.7461 6.9739,7.7821 C7.4229,7.9951 7.8849,8.1811 8.3309,8.4011 C9.9829,9.2181 11.3179,10.4141 12.4319,11.8681 C12.6429,12.1431 12.8289,12.4371 13.0369,12.7151 C13.0769,12.7671 13.1739,12.8201 13.2309,12.8071 C13.2919,12.7951 13.3549,12.7131 13.3829,12.6461 C13.4319,12.5341 13.4709,12.4121 13.4849,12.2911 C13.5699,11.5591 13.6469,10.8281 13.7269,10.0971 M18.2159,10.0371 C18.1599,9.5451 18.1139,9.0511 18.0389,8.5611 C18.0209,8.4391 17.9359,8.2921 17.8359,8.2251 C16.9669,7.6491 16.0529,7.1651 15.0469,6.8651 C14.8259,6.8001 14.6539,6.7231 14.4359,6.9021 C14.1989,7.0981 14.1979,7.3021 14.2599,7.5631 C14.4549,8.3871 14.5409,9.2261 14.5349,10.0691 C14.5289,10.9551 14.4449,11.8381 14.2509,12.7081 C14.2189,12.8491 14.2519,13.0591 14.3409,13.1671 C14.9039,13.8561 14.9129,14.5121 14.3439,15.2131 C14.2909,15.2781 14.2509,15.3921 14.2679,15.4711 C14.3429,15.8151 14.4409,16.1561 14.5319,16.4981 C14.5799,16.6791 14.6659,16.7341 14.8359,16.6061 C15.5359,16.0761 16.1609,15.4691 16.6649,14.7501 C17.6539,13.3381 18.1829,11.7711 18.2159,10.0371 M11.0499,5.5081 C11.2639,5.5081 11.4799,5.5271 11.6909,5.5031 C11.9759,5.4711 11.9149,5.1481 12.0709,5.0011 C12.1089,4.9651 12.1389,4.9191 12.1779,4.8831 C12.2979,4.7701 12.2859,4.6551 12.2059,4.5241 C11.6279,3.5781 10.9569,2.7071 10.1239,1.9691 C10.0509,1.9041 9.9349,1.8481 9.8429,1.8531 C9.3229,1.8901 8.7959,1.9041 8.2879,2.0071 C7.1509,2.2351 6.1149,2.7151 5.1799,3.4041 C3.9719,4.2951 3.0729,5.4301 2.4779,6.8091 C2.3769,7.0451 2.4769,7.0661 2.6649,7.0721 C2.9759,7.0811 3.2869,7.0951 3.5969,7.1171 C3.9289,7.1411 4.2569,7.1801 4.4589,6.8241 C4.4839,6.7811 4.5389,6.7541 4.5829,6.7241 C5.0709,6.4061 5.5719,6.3871 6.0989,6.6321 C6.2129,6.6841 6.3789,6.6991 6.4959,6.6581 C6.8379,6.5391 7.1649,6.3761 7.5039,6.2441 C8.6439,5.8011 9.8299,5.5741 11.0499,5.5081 M10.0129,18.2001 C10.0819,18.1621 10.2129,18.1211 10.3029,18.0371 C11.0579,17.3351 11.6729,16.5201 12.2049,15.6391 C12.3039,15.4741 12.3239,15.3601 12.1839,15.1931 C11.7739,14.7071 11.7609,13.9321 12.1579,13.4361 C12.3069,13.2511 12.2879,13.1291 12.1659,12.9481 C11.5479,12.0361 10.8449,11.2041 9.9929,10.5021 C9.0509,9.7251 8.0199,9.1041 6.8849,8.6541 C6.7269,8.5921 6.6179,8.5991 6.4939,8.7471 C6.0809,9.2361 5.3969,9.4651 4.7429,9.1021 C4.5469,8.9941 4.4259,9.0351 4.2719,9.1671 C3.4159,9.8981 2.7479,10.7831 2.1529,11.7281 C2.0959,11.8211 2.0689,11.9781 2.1069,12.0771 C2.3399,12.6971 2.5319,13.3461 2.8549,13.9191 C4.4049,16.6771 6.8159,18.0421 10.0129,18.2001 M10.0569,20.0001 C7.1489,19.9341 4.6919,18.9141 2.7139,16.8291 C0.8979,14.9151 -0.0061,12.5811 0.0059,9.9871 C0.0189,7.1591 1.0739,4.6861 3.1669,2.7161 C5.0869,0.9071 7.4109,-0.0059 10.0069,0.0001 C12.7139,0.0061 15.1089,0.9811 17.0589,2.9231 C19.0079,4.8641 19.9979,7.2591 20.0069,9.9601 C20.0169,12.6921 19.0369,15.1221 17.0549,17.0771 C15.1039,19.0031 12.7289,19.9411 10.0569,20.0001" fill="#99D3B5"></path>
    </g>
  </symbol>
  
  <symbol viewBox="0 0 36 34" xmlns="http://www.w3.org/2000/svg" id="Networks">
    <g fill="none" fill-rule="evenodd" transform="translate(6,4)">
      <path d="M3.7261,3.2295 C3.7261,3.3115 3.7261,3.3935 3.7261,3.4755 C3.9351,3.6125 4.1521,3.8665 4.3511,3.8525 C4.5351,3.8395 4.8031,3.5645 4.8481,3.3645 C4.9161,3.0535 4.6771,2.7845 4.3471,2.8335 C4.1251,2.8675 3.9321,3.0905 3.7261,3.2295 M22.6841,18.5675 L22.9191,18.5615 C23.0591,18.3475 23.2931,18.1435 23.3191,17.9165 C23.3561,17.5855 23.0611,17.3595 22.7591,17.4315 C22.5571,17.4805 22.2791,17.7615 22.2751,17.9435 C22.2711,18.1485 22.5371,18.3595 22.6841,18.5675 M11.5211,22.5995 C11.5121,23.1995 11.9991,23.7325 12.5741,23.7495 C13.1331,23.7645 13.6811,23.2315 13.6991,22.6515 C13.7181,22.0565 13.2291,21.5505 12.6231,21.5395 C11.9851,21.5255 11.5321,21.9615 11.5211,22.5995 M2.9671,21.5375 C2.3621,21.5355 1.8431,22.0295 1.8351,22.6155 C1.8281,23.1665 2.3871,23.7355 2.9441,23.7455 C3.5211,23.7555 4.0361,23.2355 4.0441,22.6345 C4.0521,22.0015 3.5971,21.5385 2.9671,21.5375 M22.2491,4.4415 C22.8411,4.4345 23.3511,3.9255 23.3501,3.3435 C23.3491,2.7525 22.7871,2.2095 22.1991,2.2305 C21.6181,2.2505 21.1291,2.7765 21.1391,3.3695 C21.1481,3.9715 21.6431,4.4495 22.2491,4.4415 M12.6051,14.6275 C13.5141,14.6265 14.2521,13.8905 14.2491,12.9895 C14.2471,12.0615 13.4901,11.3185 12.5621,11.3315 C11.6611,11.3435 10.9461,12.0855 10.9531,13.0035 C10.9591,13.9115 11.6891,14.6285 12.6051,14.6275 M13.1751,18.1365 C13.1751,18.5945 13.1921,19.0535 13.1701,19.5105 C13.1541,19.8385 13.2911,19.9945 13.5901,20.1065 C14.8831,20.5895 15.5261,21.8305 15.2511,23.2675 C15.0211,24.4725 13.8311,25.4295 12.5761,25.4195 C11.3351,25.4115 10.1181,24.4045 9.9231,23.2265 C9.6831,21.7695 10.3311,20.5765 11.6441,20.0925 C11.9591,19.9775 12.0991,19.8015 12.0921,19.4555 C12.0731,18.5565 12.0721,17.6565 12.0931,16.7575 C12.1001,16.4295 11.9661,16.2725 11.6811,16.1525 C10.6381,15.7095 10.6381,15.7015 9.8241,16.5135 C8.4201,17.9165 7.0251,19.3265 5.6131,20.7185 C5.3641,20.9635 5.2981,21.1505 5.4451,21.5005 C6.2061,23.3215 5.0501,25.2525 3.0911,25.3765 C1.9031,25.4515 0.7411,24.7085 0.3461,23.4475 C-0.0119,22.3035 0.3051,21.3325 1.1761,20.5575 C2.0681,19.7645 3.1021,19.7035 4.1641,20.1665 C4.4431,20.2895 4.5961,20.2335 4.7821,20.0465 C6.3951,18.4235 8.0181,16.8095 9.6201,15.1735 C9.7301,15.0615 9.7781,14.7585 9.7081,14.6185 C9.1161,13.4245 9.1471,12.2815 9.8441,11.1375 C9.9261,11.0035 9.8971,10.6935 9.7941,10.5715 C8.3831,8.9005 6.9561,7.2435 5.5121,5.6015 C5.4051,5.4795 5.1241,5.4385 4.9411,5.4685 C3.6571,5.6775 2.6481,5.1845 2.2811,4.0685 C2.0011,3.2185 2.1401,2.4095 2.8151,1.7755 C3.4941,1.1375 4.3051,0.9705 5.1681,1.3345 C6.0001,1.6855 6.4961,2.3165 6.5011,3.2545 C6.5031,3.5235 6.5391,3.8445 6.4131,4.0525 C6.1121,4.5495 6.3461,4.8535 6.6531,5.2085 C7.9741,6.7335 9.2811,8.2695 10.5861,9.8085 C10.7771,10.0335 10.9531,10.0895 11.2441,9.9715 C12.2531,9.5645 13.2501,9.5935 14.2381,10.0925 C14.3771,10.1635 14.6821,10.1055 14.7971,9.9915 C16.4331,8.3905 18.0481,6.7685 19.6711,5.1555 C19.8631,4.9645 19.8981,4.8075 19.7721,4.5355 C18.8891,2.6245 20.2331,0.7605 22.0231,0.5925 C23.1531,0.4875 24.2881,1.1925 24.7401,2.2005 C25.2171,3.2655 25.0321,4.3685 24.2351,5.2095 C23.4021,6.0895 22.2661,6.3405 21.1161,5.8355 C20.7901,5.6945 20.6061,5.7195 20.3681,5.9595 C18.8071,7.5395 17.2391,9.1125 15.6621,10.6765 C15.4101,10.9265 15.3281,11.1275 15.5301,11.4635 C15.8931,12.0685 15.9341,12.7525 15.8431,13.4355 C15.7911,13.8205 15.9311,14.0195 16.2701,14.1785 C17.7251,14.8635 19.1761,15.5555 20.6131,16.2765 C20.9521,16.4465 21.1671,16.4305 21.4711,16.1995 C22.1401,15.6875 22.9061,15.5985 23.6771,15.9455 C24.4631,16.2985 24.9291,16.9365 24.9901,17.7965 C25.0751,18.9915 24.0491,20.0815 22.8521,20.1305 C21.7011,20.1775 20.6371,19.2045 20.6251,18.0125 C20.6211,17.5535 20.4441,17.3555 20.0661,17.1765 C18.6271,16.4975 17.2001,15.7925 15.7701,15.0925 C15.4621,14.9425 15.2491,14.9965 14.9671,15.2335 C14.5511,15.5835 14.0531,15.8475 13.5651,16.0995 C13.3101,16.2305 13.1551,16.3485 13.1691,16.6615 C13.1911,17.1525 13.1751,17.6445 13.1751,18.1365" fill="#666666"></path>
    </g>
  </symbol>
  
  <symbol viewBox="0 0 36 34" xmlns="http://www.w3.org/2000/svg" id="Searches">
    <g fill="none" fill-rule="evenodd" transform="translate(10,8)">
      <path d="M12.4219,7.6895 C12.4219,4.8445 10.1759,2.5965 7.3269,2.5885 C4.4859,2.5825 2.2149,4.8315 2.2019,7.6665 C2.1889,10.5105 4.4789,12.8035 7.3299,12.8005 C10.1549,12.7975 12.4219,10.5225 12.4219,7.6895 M11.1599,13.4015 C7.2959,15.7745 3.4219,14.0955 1.7359,11.6775 C-0.2171,8.8775 0.1179,5.0645 2.5069,2.7985 C5.0349,0.4025 8.8039,0.1775 11.5239,2.2715 C14.0639,4.2275 15.1849,8.0485 13.0669,11.4615 C14.6639,12.8945 16.1219,14.4485 17.6209,15.9585 C18.1629,16.5035 18.1029,17.4015 17.5719,17.9235 C17.0069,18.4805 16.1789,18.5125 15.5659,17.9605 C15.0899,17.5335 14.6529,17.0635 14.1999,16.6115 C13.4249,15.8375 12.6439,15.0705 11.8799,14.2865 C11.6269,14.0245 11.4179,13.7205 11.1599,13.4015" fill="#666666"></path>
    </g>
  </symbol>
  
  <symbol viewBox="0 0 36 34" xmlns="http://www.w3.org/2000/svg" id="Links">
    <g fill="none" fill-rule="evenodd" transform="translate(12,10)">
      <path d="M6.1206,6.8916 C5.6806,7.3306 5.2776,7.7246 4.8906,8.1336 C4.8506,8.1756 4.8836,8.3306 4.9306,8.4016 C5.5016,9.2676 6.3196,9.7856 7.3326,9.9286 C8.5016,10.0936 9.5446,9.7686 10.3966,8.9226 C11.2486,8.0776 12.1116,7.2436 12.9396,6.3746 C13.9456,5.3216 14.2496,4.0856 13.7916,2.6826 C13.0256,0.3406 9.9886,-0.5214 8.1376,1.0996 C7.4626,1.6906 6.8516,2.3526 6.2136,2.9836 C6.1636,3.0346 6.1326,3.1036 6.0636,3.2076 C6.8086,3.1376 7.4756,3.1946 8.1236,3.4336 C8.1886,3.4566 8.3136,3.3886 8.3786,3.3286 C8.6456,3.0786 8.8866,2.7986 9.1626,2.5596 C9.6486,2.1376 10.1866,1.9486 10.8546,2.1126 C12.0906,2.4166 12.7316,4.0036 11.7286,5.0706 C10.8696,5.9836 9.9726,6.8626 9.0696,7.7326 C8.5236,8.2596 7.7326,8.3256 7.0556,7.9946 C6.6076,7.7746 6.3506,7.4036 6.1206,6.8916 M8.3206,7.1056 C8.3946,7.0706 8.4426,7.0606 8.4726,7.0326 C8.8336,6.6816 9.1936,6.3296 9.5516,5.9756 C9.6826,5.8466 9.6076,5.7346 9.5246,5.6126 C8.3276,3.8486 5.7186,3.5316 4.1246,5.0856 C3.2586,5.9296 2.3986,6.7806 1.5596,7.6516 C0.5346,8.7156 0.2036,9.9616 0.6896,11.3846 C1.1856,12.8366 2.4426,13.6686 3.8136,13.7776 C4.8356,13.8586 5.7466,13.5256 6.4956,12.8166 C7.0886,12.2566 7.6586,11.6726 8.2356,11.0976 C8.2946,11.0376 8.3376,10.9626 8.3996,10.8796 C8.3316,10.8616 8.3066,10.8466 8.2816,10.8486 C7.6346,10.9136 7.0056,10.8416 6.3886,10.6296 C6.3116,10.6036 6.1736,10.6566 6.1056,10.7186 C5.8426,10.9586 5.6066,11.2306 5.3396,11.4676 C4.8506,11.9036 4.3096,12.0946 3.6286,11.9396 C2.4236,11.6636 1.7316,10.0796 2.7206,9.0096 C3.5826,8.0756 4.4966,7.1856 5.4196,6.3106 C5.9116,5.8446 6.5226,5.7416 7.1826,5.9606 C7.7456,6.1486 8.0966,6.5416 8.3206,7.1056" id="Fill-121" fill="#666666"></path>
    </g>
  </symbol>
  
<!--
  <symbol viewBox="0 0 36 34" xmlns="http://www.w3.org/2000/svg" id="Endorsements">
    <g fill="none" fill-rule="evenodd" transform="translate(8,10)">
      <path d="M2,-1 L3,-1 C3.55228475,-1 4,-0.55228475 4,9.54791801e-15 L4,7 L19,7 C19.5522847,7 20,7.44771525 20,8 L20,9 C20,9.55228475 19.5522847,10 19,10 L2,10 C1.44771525,10 1,9.55228475 1,9 L1,2.22044605e-16 C1,-0.55228475 1.44771525,-1 2,-1 Z" id="Rectangle" fill="#99D3B5" transform="translate(10.500000, 4.500000) rotate(-45.000000) translate(-10.500000, -4.500000) "></path>
    </g>
  </symbol>
-->
  
  <symbol viewBox="0 0 36 34" xmlns="http://www.w3.org/2000/svg" id="Classmate-packet">
    <g fill="#99D3B5" fill-rule="evenodd" transform="translate(4,10)">
      <path d="M14.4691,0.6455 C12.8701,0.6545 11.6041,1.9375 11.6061,3.5455 C11.6091,5.1485 12.8951,6.4315 14.4901,6.4225 C16.1081,6.4135 17.3701,5.1355 17.3601,3.5155 C17.3501,1.9095 16.0681,0.6365 14.4691,0.6455"></path>
      <path d="M6.5125,1.817 C4.7895,1.826 3.4245,3.21 3.4275,4.943 C3.4305,6.67 4.8155,8.053 6.5345,8.044 C8.2795,8.034 9.6395,6.657 9.6285,4.91 C9.6175,3.18 8.2355,1.808 6.5125,1.817"></path>
      <path d="M0.8829,13.0028 C0.8559,11.9478 0.9609,10.9078 1.3579,9.9188 C1.5349,9.4778 1.7779,9.0908 2.1119,8.7868 C2.1059,8.7808 2.1009,8.7718 2.0949,8.7658 C2.1519,8.7138 2.2209,8.6748 2.2829,8.6298 C2.2889,8.6248 2.2949,8.6208 2.3009,8.6158 C2.4459,8.5118 2.6069,8.4258 2.7839,8.3578 C2.7859,8.3568 2.7869,8.3558 2.7889,8.3548 C2.7909,8.3548 2.7929,8.3538 2.7949,8.3538 C2.8589,8.3288 2.9149,8.2958 2.9839,8.2768 C3.2829,8.1968 3.5729,8.1638 3.8409,8.2828 C3.9689,8.3288 4.0949,8.3938 4.2209,8.4958 C4.6709,8.8578 5.1959,9.0948 5.7629,9.2268 C6.0309,9.2888 6.2929,9.3188 6.5489,9.3218 C6.8049,9.3188 7.0669,9.2888 7.3349,9.2268 C7.9019,9.0948 8.4259,8.8578 8.8769,8.4958 C9.0019,8.3938 9.1289,8.3288 9.2569,8.2828 C9.5249,8.1638 9.8139,8.1968 10.1139,8.2768 C10.1829,8.2958 10.2389,8.3288 10.3029,8.3538 C10.3049,8.3538 10.3069,8.3548 10.3089,8.3548 C10.3109,8.3558 10.3119,8.3578 10.3139,8.3578 C10.4909,8.4258 10.6519,8.5118 10.7959,8.6158 C10.8029,8.6208 10.8089,8.6248 10.8149,8.6298 C10.8769,8.6758 10.9459,8.7138 11.0029,8.7658 C10.9969,8.7718 10.9919,8.7808 10.9859,8.7868 C11.3199,9.0908 11.5629,9.4778 11.7399,9.9188 C12.1359,10.9078 12.2419,11.9478 12.2149,13.0028 C12.2019,13.4828 12.0519,13.9218 11.7219,14.2838 C11.6139,14.4018 11.4979,14.4998 11.3759,14.5828 C11.3819,14.5868 11.3869,14.5928 11.3919,14.5968 C11.1389,14.7598 10.8439,14.8748 10.5129,14.9178 C10.4469,14.9268 10.3809,14.9248 10.3149,14.9298 C10.2229,14.9378 10.1329,14.9498 10.0379,14.9508 C8.9679,14.9538 7.8979,14.9518 6.8269,14.9508 L6.5859,14.9508 L6.5489,14.9508 L6.5119,14.9508 L6.2709,14.9508 C5.1999,14.9518 4.1299,14.9538 3.0599,14.9508 C2.9649,14.9498 2.8749,14.9378 2.7829,14.9298 C2.7169,14.9248 2.6499,14.9268 2.5849,14.9178 C2.2539,14.8748 1.9589,14.7598 1.7059,14.5968 C1.7109,14.5928 1.7159,14.5868 1.7219,14.5828 C1.5999,14.4998 1.4829,14.4018 1.3749,14.2838 C1.0449,13.9218 0.8949,13.4828 0.8829,13.0028"></path>
      <path d="M15.4879203,12.8316554 C15.2457232,12.831519 15.0035116,12.8314 14.7613,12.8314 L14.2443,12.8314 C13.7613,12.8314 13.2773,12.8304 12.7943,12.8304 C12.8103,12.7294 12.8223,12.6264 12.8253,12.5204 C12.8523,11.4654 12.7473,10.4254 12.3503,9.4364 C12.1733,8.9954 11.9303,8.6084 11.5963,8.3044 C11.6023,8.2984 11.6073,8.2894 11.6133,8.2834 C11.5563,8.2314 11.4883,8.1934 11.4253,8.1474 C11.4193,8.1424 11.4133,8.1384 11.4073,8.1334 C11.2623,8.0284 11.1013,7.9434 10.9253,7.8754 C10.9223,7.8754 10.9213,7.8734 10.9193,7.8724 C10.9173,7.8724 10.9163,7.8714 10.9133,7.8714 C10.8493,7.8464 10.7933,7.8124 10.7243,7.7944 C10.4273,7.7154 10.1403,7.6834 9.8733,7.7994 C10.0133,7.5434 10.1743,7.3044 10.3863,7.1124 C10.3803,7.1064 10.3763,7.0984 10.3703,7.0924 C10.4233,7.0444 10.4873,7.0084 10.5443,6.9664 C10.5503,6.9614 10.5563,6.9574 10.5623,6.9534 C10.6963,6.8564 10.8453,6.7764 11.0093,6.7144 C11.0113,6.7134 11.0123,6.7124 11.0133,6.7114 C11.0163,6.7114 11.0173,6.7104 11.0203,6.7094 C11.0793,6.6874 11.1303,6.6554 11.1943,6.6384 C11.4733,6.5644 11.7413,6.5344 11.9913,6.6444 C12.1083,6.6874 12.2263,6.7474 12.3433,6.8414 C12.7603,7.1784 13.2483,7.3984 13.7733,7.5204 C14.0223,7.5774 14.2653,7.6064 14.5033,7.6084 C14.7403,7.6064 14.9833,7.5774 15.2323,7.5204 C15.6354915,7.42670598 16.0162706,7.27521166 16.3605957,7.05731087 C17.4749377,5.5896789 19.2384811,4.642 21.2235,4.642 C24.5937136,4.642 27.3255,7.37378644 27.3255,10.744 C27.3255,14.1142136 24.5937136,16.846 21.2235,16.846 C18.5865836,16.846 16.3404984,15.1736598 15.4879203,12.8316554 Z M25.8255,10.744 C25.8255,8.20221356 23.7652864,6.142 21.2235,6.142 C18.6817136,6.142 16.6215,8.20221356 16.6215,10.744 C16.6215,13.2857864 18.6817136,15.346 21.2235,15.346 C23.7652864,15.346 25.8255,13.2857864 25.8255,10.744 Z"></path>
      <path d="M20.0936,13.5237 C20.0846,13.5237 20.0756,13.5237 20.0666,13.5227 C19.8926,13.5157 19.7286,13.4367 19.6146,13.3057 L18.3196,11.8157 C18.0896,11.5507 18.1176,11.1497 18.3826,10.9197 C18.6476,10.6897 19.0496,10.7177 19.2786,10.9817 L20.1336,11.9647 L23.6506,8.5507 C23.9016,8.3067 24.3036,8.3127 24.5486,8.5647 C24.7926,8.8167 24.7866,9.2187 24.5346,9.4627 L20.5356,13.3447 C20.4166,13.4597 20.2586,13.5237 20.0936,13.5237"></path>
    </g>
  </symbol>
  
  <symbol viewBox="0 0 36 34" xmlns="http://www.w3.org/2000/svg" id="Classmate-students">
    <g fill="#666666" fill-rule="evenodd" transform="translate(6,9)">
      <path d="M8.0526,0.9877 C5.8686,0.9997 4.1386,2.7527 4.1426,4.9487 C4.1466,7.1377 5.9026,8.8897 8.0806,8.8777 C10.2916,8.8667 12.0146,7.1207 12.0016,4.9077 C11.9876,2.7147 10.2366,0.9757 8.0526,0.9877"></path>
      <path d="M0.9188,15.1623 C0.8848,13.8253 1.0178,12.5073 1.5208,11.2553 C1.7448,10.6953 2.0528,10.2053 2.4768,9.8203 C2.4688,9.8113 2.4628,9.8013 2.4538,9.7923 C2.5268,9.7273 2.6138,9.6783 2.6928,9.6203 C2.6998,9.6143 2.7078,9.6093 2.7158,9.6033 C2.8998,9.4713 3.1038,9.3623 3.3278,9.2763 C3.3298,9.2753 3.3308,9.2733 3.3338,9.2733 C3.3358,9.2723 3.3388,9.2713 3.3418,9.2703 C3.4228,9.2403 3.4928,9.1973 3.5808,9.1733 C3.9608,9.0723 4.3268,9.0303 4.6678,9.1813 C4.8288,9.2393 4.9898,9.3223 5.1488,9.4503 C5.7198,9.9103 6.3848,10.2103 7.1018,10.3773 C7.4418,10.4563 7.7738,10.4943 8.0988,10.4973 C8.4228,10.4943 8.7548,10.4563 9.0948,10.3773 C9.8128,10.2103 10.4778,9.9103 11.0488,9.4503 C11.2078,9.3223 11.3678,9.2393 11.5298,9.1813 C11.8698,9.0303 12.2368,9.0723 12.6168,9.1733 C12.7038,9.1973 12.7738,9.2403 12.8558,9.2703 C12.8588,9.2713 12.8608,9.2723 12.8638,9.2733 C12.8658,9.2733 12.8678,9.2753 12.8698,9.2763 C13.0938,9.3623 13.2978,9.4713 13.4808,9.6033 C13.4888,9.6093 13.4968,9.6143 13.5048,9.6203 C13.5838,9.6793 13.6708,9.7273 13.7428,9.7923 C13.7348,9.8013 13.7288,9.8113 13.7208,9.8203 C14.1448,10.2053 14.4518,10.6953 14.6768,11.2553 C15.1788,12.5073 15.3128,13.8253 15.2788,15.1623 C15.2628,15.7703 15.0728,16.3273 14.6548,16.7853 C14.5178,16.9353 14.3698,17.0583 14.2148,17.1643 C14.2228,17.1693 14.2288,17.1763 14.2358,17.1823 C13.9148,17.3883 13.5418,17.5343 13.1218,17.5893 C13.0388,17.6003 12.9548,17.5983 12.8708,17.6043 C12.7538,17.6143 12.6398,17.6303 12.5198,17.6303 C11.1638,17.6343 9.8078,17.6313 8.4508,17.6313 L8.1448,17.6313 L8.0988,17.6313 L8.0518,17.6313 L7.7458,17.6313 C6.3898,17.6313 5.0338,17.6343 3.6768,17.6303 C3.5568,17.6303 3.4428,17.6143 3.3258,17.6043 C3.2428,17.5983 3.1578,17.6003 3.0748,17.5893 C2.6558,17.5343 2.2818,17.3883 1.9608,17.1823 C1.9688,17.1763 1.9748,17.1693 1.9818,17.1643 C1.8268,17.0583 1.6798,16.9353 1.5428,16.7853 C1.1248,16.3273 0.9348,15.7703 0.9188,15.1623"></path>
      <polygon points="14.8485 5.5296 14.8485 4.5296 24.9435 4.5296 24.9435 5.5296"></polygon>
      <polygon points="16.7621 10.5098 16.7621 9.5098 25.0161 9.5098 25.0161 10.5098"></polygon>
      <polygon points="17.6827 15.4178 17.6827 14.4178 25.0157 14.4178 25.0157 15.4178"></polygon>
    </g>
  </symbol>
  
  <symbol viewBox="0 0 36 34" xmlns="http://www.w3.org/2000/svg" id="Packets">
    <g fill="#666666" fill-rule="evenodd" transform="translate(9,6)">
      <path d="M2.4942,1.7096 C2.5292,1.8596 2.5382,1.9676 2.5792,2.0616 C3.1572,3.3946 4.2042,4.0616 5.6292,4.0836 C7.7202,4.1166 9.8132,4.1096 11.9052,4.0926 C13.1832,4.0816 14.2052,3.5606 14.8622,2.4286 C14.9822,2.2226 15.0472,1.9846 15.1582,1.7096 L2.4942,1.7096 Z M15.3072,4.4736 C15.0862,4.6006 14.9872,4.6446 14.9042,4.7076 C14.0352,5.3626 13.0402,5.6316 11.9702,5.6366 C9.8612,5.6466 7.7522,5.6456 5.6432,5.6366 C4.7422,5.6336 3.8812,5.4336 3.0992,4.9716 C2.7962,4.7936 2.5242,4.5626 2.1472,4.2896 L2.1472,4.9176 C2.1472,6.6446 2.1482,8.3726 2.1482,10.1006 C2.1482,14.5406 2.1532,15.3886 2.1422,19.8286 C2.1412,20.2126 2.2372,20.3476 2.6422,20.3456 C6.6862,20.3316 10.7292,20.3306 14.7732,20.3426 C15.1722,20.3446 15.2822,20.2206 15.2792,19.8306 C15.2692,17.8656 15.2862,19.4906 15.2912,17.5246 C15.2972,14.2436 15.3022,10.9616 15.3072,7.6806 C15.3092,6.6526 15.3072,5.6246 15.3072,4.4736 Z M16.8442,12.8066 C16.8442,16.6766 16.8452,16.9566 16.8432,20.8266 C16.8422,21.6556 16.5972,21.9066 15.7692,21.9066 C11.0732,21.9106 6.3782,21.9096 1.6822,21.9076 C0.8122,21.9076 0.5702,21.6546 0.5702,20.7616 C0.5712,13.4016 0.5732,9.6326 0.5752,2.2716 C0.5752,1.8756 0.5732,1.4786 0.5802,1.0826 C0.5932,0.3786 0.8602,0.1006 1.5592,0.0986 C4.3672,0.0926 7.1752,0.0956 9.9822,0.0946 C11.8702,0.0946 13.7582,0.0936 15.6452,0.0936 C16.6252,0.0936 16.8422,0.3156 16.8422,1.2906 C16.8412,5.1286 16.8412,8.9676 16.8412,12.8066 L16.8442,12.8066 Z"></path>
      <path d="M8.6864,9.2483 C9.7434,9.2543 10.5814,10.1023 10.5794,11.1663 C10.5774,12.2253 9.7274,13.0743 8.6724,13.0683 C7.6024,13.0623 6.7684,12.2173 6.7744,11.1463 C6.7814,10.0843 7.6294,9.2423 8.6864,9.2483"></path>
      <path d="M12.14,16.1104 C12.157,15.4634 12.092,14.8254 11.849,14.2184 C11.74,13.9474 11.591,13.7104 11.386,13.5244 C11.39,13.5204 11.392,13.5154 11.397,13.5114 C11.361,13.4794 11.319,13.4554 11.281,13.4274 C11.277,13.4244 11.274,13.4224 11.27,13.4194 C11.181,13.3554 11.082,13.3024 10.974,13.2604 C10.973,13.2604 10.972,13.2594 10.971,13.2594 C10.97,13.2584 10.968,13.2584 10.967,13.2584 C10.928,13.2434 10.894,13.2224 10.851,13.2114 C10.667,13.1624 10.49,13.1414 10.325,13.2154 C10.247,13.2434 10.169,13.2834 10.092,13.3454 C9.816,13.5674 9.494,13.7134 9.146,13.7934 C8.982,13.8324 8.821,13.8504 8.664,13.8524 C8.507,13.8504 8.346,13.8324 8.182,13.7934 C7.834,13.7134 7.512,13.5674 7.236,13.3454 C7.159,13.2834 7.081,13.2434 7.003,13.2154 C6.838,13.1414 6.661,13.1624 6.477,13.2114 C6.435,13.2224 6.4,13.2434 6.361,13.2584 C6.36,13.2584 6.359,13.2584 6.357,13.2594 C6.356,13.2594 6.355,13.2604 6.354,13.2614 C6.246,13.3024 6.147,13.3554 6.058,13.4194 C6.055,13.4224 6.051,13.4244 6.047,13.4274 C6.009,13.4554 5.967,13.4794 5.932,13.5114 C5.936,13.5154 5.938,13.5204 5.942,13.5244 C5.737,13.7104 5.588,13.9474 5.48,14.2184 C5.236,14.8254 5.171,15.4634 5.188,16.1104 C5.196,16.4044 5.288,16.6744 5.49,16.8964 C5.557,16.9684 5.628,17.0284 5.703,17.0794 C5.699,17.0824 5.696,17.0854 5.693,17.0884 C5.848,17.1884 6.029,17.2584 6.232,17.2854 C6.272,17.2904 6.313,17.2894 6.354,17.2924 C6.41,17.2974 6.465,17.3054 6.524,17.3054 C7.18,17.3074 7.837,17.3054 8.494,17.3054 L8.641,17.3054 L8.664,17.3054 L8.687,17.3054 L8.835,17.3054 C9.492,17.3054 10.148,17.3074 10.805,17.3054 C10.863,17.3054 10.918,17.2974 10.974,17.2924 C11.015,17.2894 11.056,17.2904 11.096,17.2854 C11.299,17.2584 11.48,17.1884 11.635,17.0884 C11.632,17.0854 11.629,17.0824 11.625,17.0794 C11.7,17.0284 11.772,16.9684 11.838,16.8964 C12.04,16.6744 12.132,16.4044 12.14,16.1104"></path>
    </g>
  </symbol>
  
  <symbol viewBox="0 0 36 34" xmlns="http://www.w3.org/2000/svg" id="Review-questions">
    <g fill="#666666" fill-rule="evenodd" transform="translate(9,6)">
      <path d="M0.3397,11.0295 C0.3397,8.0245 0.3397,5.0185 0.3397,2.0135 C0.3397,1.0375 0.9817,0.3885 1.9547,0.3875 C6.4677,0.3855 10.9807,0.3855 15.4937,0.3875 C16.4677,0.3875 17.1037,1.0085 17.1127,1.9745 C17.1217,2.8475 17.1107,3.7205 17.1187,4.5935 C17.1207,4.8055 17.0647,4.9035 16.8347,4.8895 C16.5777,4.8725 16.3187,4.8745 16.0617,4.8885 C15.8427,4.9005 15.7667,4.8245 15.7697,4.6005 C15.7817,3.7975 15.7747,2.9945 15.7747,2.1905 C15.7747,1.7225 15.7737,1.7215 15.3147,1.7215 C10.9307,1.7205 6.5467,1.7205 2.1627,1.7205 C1.6877,1.7205 1.6737,1.7345 1.6737,2.2025 C1.6737,8.0045 1.6737,13.8065 1.6737,19.6095 C1.6737,20.4405 1.6087,20.3605 2.4247,20.3605 C6.7187,20.3615 11.0137,20.3615 15.3087,20.3615 C15.7737,20.3615 15.7747,20.3605 15.7747,19.9025 C15.7747,19.1685 15.7807,18.4345 15.7707,17.7005 C15.7667,17.4855 15.8227,17.3925 16.0527,17.4065 C16.3297,17.4235 16.6087,17.4165 16.8857,17.4095 C17.0487,17.4045 17.1187,17.4635 17.1167,17.6325 C17.1107,18.5255 17.1277,19.4185 17.1027,20.3105 C17.0827,21.0315 16.4397,21.6455 15.7087,21.6905 C15.5897,21.6975 15.4707,21.6955 15.3517,21.6955 C10.9277,21.6955 6.5037,21.6785 2.0807,21.7075 C1.0037,21.7145 0.3177,20.9635 0.3287,19.9565 C0.3597,16.9805 0.3397,14.0055 0.3397,11.0295"></path>
      <path d="M19.5536,8.9147 C19.7846,8.6107 19.9966,8.3427 20.1926,8.0617 C20.2266,8.0137 20.2056,7.9057 20.1776,7.8387 C19.8696,7.0967 19.3036,6.6867 18.5136,6.5837 C18.4436,6.5747 18.3406,6.5967 18.2986,6.6447 C18.0776,6.8927 17.8726,7.1547 17.6376,7.4407 C18.4706,7.7007 19.0716,8.1947 19.5536,8.9147 M11.1656,17.4357 C11.3216,17.3777 11.4126,17.3477 11.5006,17.3087 C12.0616,17.0647 12.6156,16.8057 13.1836,16.5797 C13.4366,16.4797 13.4496,16.3367 13.3766,16.1227 C13.1706,15.5197 12.5916,15.0827 11.9516,15.0407 C11.7916,15.0297 11.7246,15.0797 11.6906,15.2387 C11.6056,15.6437 11.5006,16.0447 11.4036,16.4467 C11.3286,16.7577 11.2536,17.0687 11.1656,17.4357 M14.5536,15.4627 C15.9126,13.6827 17.2306,11.9607 18.5396,10.2317 C18.5906,10.1647 18.5926,10.0217 18.5596,9.9357 C18.2956,9.2407 17.7856,8.8337 17.0606,8.6787 C16.8056,8.6237 16.6176,8.6637 16.4396,8.8847 C15.4006,10.1727 14.3466,11.4487 13.2986,12.7297 C13.0316,13.0547 12.7656,13.3817 12.4646,13.7497 C13.4236,14.0147 14.1066,14.5597 14.5536,15.4627 M18.2926,5.2167 C19.8486,5.2157 21.1856,6.2827 21.5626,7.6957 C21.6766,8.1227 21.6056,8.4457 21.3396,8.7917 C19.2346,11.5227 17.1466,14.2667 15.0426,16.9977 C14.9046,17.1777 14.7026,17.3377 14.4956,17.4297 C13.1576,18.0257 11.8106,18.5987 10.4676,19.1827 C10.2096,19.2947 9.9826,19.2477 9.7786,19.0727 C9.5806,18.9037 9.5146,18.6837 9.5746,18.4307 C9.8866,17.1017 10.2136,15.7757 10.5066,14.4427 C10.6026,14.0087 10.8046,13.6637 11.0826,13.3277 C13.1706,10.7987 15.2546,8.2657 17.3226,5.7197 C17.6176,5.3557 17.9596,5.2107 18.2926,5.2167"></path>
      <path d="M8.6134,8.3909 C9.6644,8.3909 10.7164,8.3829 11.7674,8.3939 C12.3354,8.3999 12.6584,8.9229 12.3714,9.3749 C12.2864,9.5099 12.1084,9.5929 11.9584,9.6759 C11.8874,9.7159 11.7844,9.7089 11.6954,9.7089 C9.6234,9.7109 7.5504,9.7099 5.4774,9.7109 C5.1644,9.7119 4.9094,9.6109 4.7854,9.3039 C4.6054,8.8589 4.8824,8.4219 5.3704,8.3969 C5.7564,8.3779 6.1444,8.3899 6.5304,8.3899 C7.2254,8.3889 7.9194,8.3899 8.6134,8.3899 L8.6134,8.3909 Z"></path>
      <path d="M8.6002,4.9141 C9.6612,4.9141 10.7222,4.9111 11.7832,4.9161 C12.1062,4.9171 12.3532,5.0961 12.4392,5.3781 C12.5232,5.6511 12.4582,5.9071 12.2302,6.0701 C12.0862,6.1721 11.8862,6.2471 11.7112,6.2481 C9.6382,6.2601 7.5662,6.2581 5.4942,6.2531 C5.0862,6.2511 4.8022,6.0141 4.7412,5.6671 C4.6912,5.3791 4.8442,5.0831 5.1302,4.9731 C5.2542,4.9251 5.4002,4.9161 5.5362,4.9151 C6.5572,4.9111 7.5792,4.9131 8.6002,4.9131 L8.6002,4.9141 Z"></path>
      <path d="M6.8612,13.3125 C6.3962,13.3125 5.9312,13.3175 5.4662,13.3105 C5.0252,13.3045 4.7402,13.0465 4.7302,12.6625 C4.7202,12.2875 5.0112,12.0055 5.4472,12.0015 C6.3872,11.9925 7.3282,11.9925 8.2682,12.0015 C8.7222,12.0055 8.9762,12.2575 8.9742,12.6635 C8.9722,13.0645 8.7062,13.3075 8.2572,13.3115 C7.7912,13.3155 7.3262,13.3125 6.8612,13.3125"></path>
    </g>
  </symbol>

  <symbol viewBox="0 0 36 34" xmlns="http://www.w3.org/2000/svg" id="Endorsements">
    <g fill="#666666" fill-rule="evenodd" transform="translate(6,5)">
      <path d="M22.5121,12.181 C22.5121,18.3935479 17.4759792,23.43 11.2631,23.43 C5.05105507,23.43 0.0151,18.3933822 0.0151,12.181 C0.0151,5.96861778 5.05105507,0.932 11.2631,0.932 C17.4759792,0.932 22.5121,5.9684521 22.5121,12.181 Z M21.0121,12.181 C21.0121,6.79685713 16.64753,2.432 11.2631,2.432 C5.87952638,2.432 1.5151,6.79700072 1.5151,12.181 C1.5151,17.5649993 5.87952638,21.93 11.2631,21.93 C16.64753,21.93 21.0121,17.5651429 21.0121,12.181 Z M9.0467,17.6339 C9.0287,17.6339 9.0117,17.6339 8.9937,17.6329 C8.6517,17.6179 8.3307,17.4639 8.1057,17.2059 L5.5677,14.2829 C5.1157,13.7629 5.1717,12.9759 5.6907,12.5249 C6.2107,12.0749 6.9977,12.1289 7.4487,12.6479 L9.1237,14.5759 L16.0247,7.8789 C16.5167,7.3999 17.3067,7.4109 17.7867,7.9059 C18.2647,8.3999 18.2537,9.1879 17.7597,9.6679 L9.9137,17.2819 C9.6817,17.5089 9.3697,17.6339 9.0467,17.6339 Z"></path>

    </g>
  </symbol>

</svg>