<?xml version="1.0" encoding="utf-8"?>
<!-- Generator: Adobe Illustrator 17.1.0, SVG Export Plug-In . SVG Version: 6.00 Build 0)  -->
<!DOCTYPE svg PUBLIC "-//W3C//DTD SVG 1.1//EN" "http://www.w3.org/Graphics/SVG/1.1/DTD/svg11.dtd">
<svg version="1.1" id="Layer_1" xmlns="http://www.w3.org/2000/svg" xmlns:xlink="http://www.w3.org/1999/xlink" x="0px" y="0px"
	 viewBox="0 0 12 12" enable-background="new 0 0 12 12" xml:space="preserve">
<g>
	<g>
		<path fill="#BBBBBB" d="M9.767,8.776L9.48,9.028l1.412,1.654H1.108L2.52,9.028L2.233,8.776l-1.378,1.619V4.068L6,8.293
			l5.145-4.226v6.327L9.767,8.776z M6,7.742L1.223,3.7h3.871v2.205L8.009,3.7h2.769L6,7.742z M5.633,3.161H3.795V2.034h1.837V0.393
			l2.94,2.205l-2.94,2.205V3.161z"/>
	</g>
	<polygon fill="#C23E28" points="1.375,11.997 6.104,7.347 10.625,12 12,10.578 7.484,5.931 11.928,1.427 10.553,0.005 6.112,4.505 
		1.921,0 0.546,1.422 4.732,5.923 0,10.575 	"/>
</g>
</svg>
