<?xml version="1.0" encoding="utf-8"?>
<!-- Generator: Adobe Illustrator 17.1.0, SVG Export Plug-In . SVG Version: 6.00 Build 0)  -->
<!DOCTYPE svg PUBLIC "-//W3C//DTD SVG 1.1//EN" "http://www.w3.org/Graphics/SVG/1.1/DTD/svg11.dtd">
<svg version="1.1" id="Layer_1" xmlns="http://www.w3.org/2000/svg" xmlns:xlink="http://www.w3.org/1999/xlink" x="0px" y="0px"
	 viewBox="0 0 12 12" enable-background="new 0 0 12 12" xml:space="preserve">
<g>
	<g>
		<path fill="#BBBBBB" d="M9.011,8.08L8.781,8.282L9.91,9.603H2.09l1.129-1.322L2.99,8.08L1.888,9.374V4.317L6,7.694l4.112-3.378
			v5.057L9.011,8.08z M6,7.254L2.182,4.023h3.094v1.762l2.33-1.762h2.213L6,7.254z M5.706,3.592H4.238V2.691h1.468V1.38l2.35,1.762
			l-2.35,1.762V3.592z"/>
	</g>
	<path fill="#8C8C8C" d="M6,0C2.692,0,0,2.692,0,6c0,3.308,2.692,6,6,6c3.308,0,6-2.692,6-6C12,2.692,9.308,0,6,0z M6,1.168
		c1.347,0,2.565,0.555,3.442,1.447L6.072,5.231L5.234,5.895L1.841,8.447C1.416,7.729,1.168,6.894,1.168,6
		C1.168,3.336,3.336,1.168,6,1.168z M6,10.832c-1.244,0-2.376-0.476-3.233-1.251l3.372-2.536l4.16-3.241
		c0.339,0.66,0.534,1.405,0.534,2.197C10.832,8.664,8.665,10.832,6,10.832z"/>
</g>
</svg>
