<?xml version="1.0" encoding="utf-8"?>
<!-- Generator: Adobe Illustrator 19.1.0, SVG Export Plug-In . SVG Version: 6.00 Build 0)  -->
<svg version="1.1" id="Layer_1" xmlns="http://www.w3.org/2000/svg" xmlns:xlink="http://www.w3.org/1999/xlink" x="0px" y="0px"
	 viewBox="-293 384 25 25" style="enable-background:new -293 384 25 25;" xml:space="preserve">
<style type="text/css">
	.st0{fill:#DD5057;}
</style>
<g>
	<g>
		<path class="st0" d="M-278,399.1c-0.1-0.1-0.1-0.2-0.2-0.2c-0.1,0-0.2-0.1-0.4-0.1c-0.1,0-0.3,0-0.4,0.1s-0.3,0.1-0.4,0.2v-1.3
			h-1.1v4.6h1l0.1-0.3c0.1,0.1,0.3,0.2,0.4,0.3c0.1,0.1,0.2,0.1,0.4,0.1c0.2,0,0.3,0,0.4-0.1c0.1-0.1,0.2-0.2,0.3-0.3
			c0-0.1,0-0.3,0-0.6v-1.8c0-0.3,0-0.2,0-0.3C-278,399.3-278,399.2-278,399.1z M-279,401.3c0,0.2,0,0.4,0,0.4c0,0.1-0.2,0.1-0.3,0.1
			c-0.1,0-0.1,0-0.1-0.1c0-0.1,0-0.2,0-0.4v-1.7c0-0.2,0-0.1,0-0.1c0,0,0.1-0.1,0.1-0.1c0.1,0,0.2,0,0.3,0.1c0,0.1,0-0.1,0,0.1
			V401.3z M-282,401.2c0,0.3,0,0.5,0,0.5c0,0.1-0.1,0.1-0.2,0.1c-0.1,0-0.2,0-0.2-0.1c0-0.1,0-0.2,0-0.5v-2.4h-1.1v2.4
			c0,0.3,0,0.5,0,0.6s0,0.2,0.1,0.3c0.1,0.1,0.1,0.2,0.2,0.2c0.1,0.1,0.3,0.1,0.5,0.1c0.1,0,0.3,0,0.4-0.1c0.1-0.1,0.2-0.2,0.3-0.3
			l0,0.3h1.1v-3.6h-1L-282,401.2L-282,401.2z M-281.3,394.8c0.1,0,0.3,0,0.3-0.1c0-0.1,0-0.2,0-0.4v-2.1c0-0.3,0-0.4,0-0.5
			c0-0.1-0.1-0.1-0.2-0.1s-0.2,0-0.2,0.1c0,0.1,0,0.2,0,0.5v2c0,0.2,0,0.4,0,0.5C-281.5,394.7-281.4,394.8-281.3,394.8z M-275.4,399
			c-0.2-0.1-0.5-0.2-0.8-0.2c-0.3,0-0.4,0-0.6,0.1c-0.2,0.1-0.4,0.2-0.5,0.4c-0.1,0.2-0.1,0.2-0.1,0.5v1.2c0,0.3,0,0.5,0.1,0.6
			s0.1,0.3,0.2,0.4s0.3,0.2,0.5,0.3c0.2,0.1,0.3,0.1,0.6,0.1c0.2,0,0.4,0,0.6-0.1c0.2-0.1,0.3-0.2,0.4-0.3c0.1-0.1,0.2-0.3,0.2-0.4
			c0-0.1,0-0.3,0-0.5v-0.3h-1v0.5c0,0.2,0,0.3,0,0.4c0,0.1-0.1,0.1-0.2,0.1c-0.1,0-0.2,0-0.2-0.1c0,0,0-0.2,0-0.3v-1h1.5v-0.2
			c0-0.4,0-0.5-0.1-0.7C-275.1,399.3-275.2,399.1-275.4,399z M-276,399.9h-0.4v-0.2c0-0.2,0-0.1,0-0.2s0.1-0.1,0.2-0.1
			c0.1,0,0.1,0,0.2,0.1c0,0.1,0,0,0,0.2L-276,399.9L-276,399.9z M-280.5,384c-6.9,0-12.5,5.6-12.5,12.5s5.6,12.5,12.5,12.5
			s12.5-5.6,12.5-12.5S-273.6,384-280.5,384z M-278.9,390.6h1.5v3.5c0,0.4,0,0.6,0,0.7c0,0.1,0.1,0.1,0.2,0.1c0.1,0,0.2,0,0.3-0.1
			c0-0.1,0-0.3,0-0.7v-3.5h1.5v5.1h-1.5l0-0.4c-0.1,0.2-0.2,0.3-0.4,0.3c-0.2,0.1-0.3,0.1-0.5,0.1c-0.2,0-0.5,0-0.6-0.1
			s-0.3-0.1-0.3-0.3c-0.1-0.1-0.1-0.3-0.1-0.4c0-0.1,0-0.4,0-0.9L-278.9,390.6L-278.9,390.6z M-282.4,390.9c0.3-0.2,0.8-0.2,1.2-0.2
			c0.3,0,0.5,0.1,0.7,0.2c0.2,0.1,0.4,0.2,0.6,0.4c0.1,0.2,0.2,0.3,0.3,0.5c0,0.2,0.1,0.4,0.1,0.8v1.3c0,0.4,0,0.8-0.1,1
			c0,0.2-0.1,0.4-0.3,0.6c-0.1,0.2-0.3,0.3-0.6,0.4c-0.2,0.1-0.4,0.1-0.7,0.1c-0.3,0-0.8,0-1-0.1c-0.2-0.1-0.5-0.1-0.6-0.3
			c-0.1-0.1-0.2-0.3-0.3-0.5c-0.1-0.2-0.1-0.5-0.1-1v-1.3c0-0.5,0.1-0.8,0.2-1.1C-282.8,391.2-282.6,391-282.4,390.9z M-285.3,389.6
			c0.2,1.2,0.4,2.2,0.4,2.6c0.1-0.6,0.2-1.5,0.4-2.6l1.5,0l-1.1,3.9v2.2h-1.5v-2.2l-1.1-3.9H-285.3z M-273.4,400.9
			c0,1.4-1.1,2.5-2.5,2.5h-9.2c-1.4,0-2.6-1.1-2.6-2.5v-1.5c0-1.4,1.1-2.6,2.6-2.6h9.2c1.4,0,2.5,1.1,2.5,2.6
			C-273.4,399.4-273.4,400.9-273.4,400.9z M-286.1,398.8h0.5v3.6h1.1v-3.6h0.5v-1h-2.1L-286.1,398.8L-286.1,398.8z"/>
	</g>
</g>
</svg>
