<?xml version="1.0" encoding="utf-8"?>
<!-- Generator: Adobe Illustrator 19.1.0, SVG Export Plug-In . SVG Version: 6.00 Build 0)  -->
<svg version="1.1" id="Layer_1" xmlns="http://www.w3.org/2000/svg" xmlns:xlink="http://www.w3.org/1999/xlink" x="0px" y="0px"
	 viewBox="-293 384 25 25" style="enable-background:new -293 384 25 25;" xml:space="preserve">
<style type="text/css">
	.st0{fill:#11C1FF;}
</style>
<g>
	<g>
		<path class="st0" d="M-280.5,384c-6.9,0-12.5,5.6-12.5,12.5s5.6,12.5,12.5,12.5s12.5-5.6,12.5-12.5S-273.6,384-280.5,384z
			 M-274.8,393.6c0,0.1,0,0.3,0,0.4c0,3.9-2.9,8.3-8.3,8.3c-1.7,0-3.2-0.5-4.5-1.3c0.2,0,0.5,0,0.7,0c1.4,0,2.6-0.5,3.6-1.3
			c-1.3,0-2.4-0.9-2.7-2c0.2,0,0.4,0.1,0.6,0.1c0.3,0,0.5,0,0.8-0.1c-1.3-0.3-2.4-1.5-2.4-2.9c0,0,0,0,0,0c0.4,0.2,0.8,0.4,1.3,0.4
			c-0.8-0.5-1.3-1.4-1.3-2.4c0-0.5,0.1-1,0.4-1.5c1.4,1.8,3.6,2.9,6,3.1c-0.1-0.2-0.1-0.4-0.1-0.7c0-1.6,1.3-2.9,2.9-2.9
			c0.8,0,1.6,0.4,2.1,0.9c0.7-0.1,1.3-0.4,1.9-0.7c-0.2,0.7-0.7,1.3-1.3,1.6c0.6-0.1,1.2-0.2,1.7-0.5
			C-273.8,392.7-274.2,393.2-274.8,393.6z"/>
	</g>
</g>
</svg>
