<?xml version="1.0" encoding="utf-8"?>
<!-- Generator: Adobe Illustrator 17.1.0, SVG Export Plug-In . SVG Version: 6.00 Build 0)  -->
<!DOCTYPE svg PUBLIC "-//W3C//DTD SVG 1.1//EN" "http://www.w3.org/Graphics/SVG/1.1/DTD/svg11.dtd">
<svg version="1.1" id="Layer_1" xmlns="http://www.w3.org/2000/svg" xmlns:xlink="http://www.w3.org/1999/xlink" x="0px" y="0px"
	 viewBox="0 0 25 25" enable-background="new 0 0 25 25" xml:space="preserve">
<g>
	<g>
		<path fill-rule="evenodd" clip-rule="evenodd" fill="#A7A9AC" d="M18.366,17.028c0,0.147,0.119,0.266,0.266,0.266h1.064
			c0.147,0,0.266-0.119,0.266-0.266c0-0.147-0.119-0.283-0.266-0.283h-1.064C18.485,16.745,18.366,16.881,18.366,17.028z
			 M18.366,8.25H6.646v6.916h11.72V8.25z M14.559,16.723h-3.574c-0.294,0-0.366,0.139-0.366,0.31c0,0.171,0.072,0.277,0.366,0.277
			h3.558c0.294,0,0.399-0.105,0.399-0.277C14.941,16.862,14.852,16.723,14.559,16.723z M12.5,0C5.596,0,0,5.596,0,12.5
			S5.596,25,12.5,25C19.404,25,25,19.404,25,12.5S19.404,0,12.5,0z M20.998,16.762c0,0-0.033,1.064-0.992,1.064H4.978
			c-1.003,0-0.975-1.064-0.975-1.064l0.015-1.065l1.581,0.001V8.25c0-1.064,1.011-1.075,1.011-1.075l11.84,0.013
			c0.931,0,0.98,1.018,0.98,1.018v7.481h1.568V16.762z"/>
	</g>
</g>
</svg>
