<?xml version="1.0" encoding="UTF-8"?>
<svg width="720px" height="385px" viewBox="0 0 720 385" version="1.1" xmlns="http://www.w3.org/2000/svg" xmlns:xlink="http://www.w3.org/1999/xlink">
    <!-- Generator: Sketch 51 (57462) - http://www.bohemiancoding.com/sketch -->
    <title>browser-support</title>
    <desc>Created with Sketch.</desc>
    <defs></defs>
    <g id="browser-support" stroke="none" stroke-width="1" fill="none" fill-rule="evenodd">
        <path d="M110,214 L610,214 C613.333333,221.333333 615,227 615,231 C615,235 613.333333,237 610,237 L610,374 L110,374 L110,237 C106.666667,237 105,234.666667 105,230 C105,225.333333 106.666667,220 110,214 Z M112,237 L112,372 L608,372 L608,237 C601.641026,230.333333 595.282051,227 588.923077,227 C579.384615,227 579.384615,237 569.846154,237 C560.307692,237 560.307692,227 550.769231,227 C541.230769,227 541.230769,237 531.692308,237 C522.153846,237 522.153846,227 512.615385,227 C503.076923,227 503.076923,237 493.538462,237 C484,237 484,227 474.461538,227 C464.923077,227 464.923077,237 455.384615,237 C445.846154,237 445.846154,227 436.307692,227 C426.769231,227 426.769231,237 417.230769,237 C407.692308,237 407.692308,227 398.153846,227 C388.615385,227 388.615385,237 379.076923,237 C369.538462,237 369.538462,227 360,227 C350.461538,227 350.461538,237 340.923077,237 C331.384615,237 331.384615,227 321.846154,227 C312.307692,227 312.307692,237 302.769231,237 C293.230769,237 293.230769,227 283.692308,227 C274.153846,227 274.153846,237 264.615385,237 C255.076923,237 255.076923,227 245.538462,227 C236,227 236,237 226.461538,237 C216.923077,237 216.923077,227 207.384615,227 C197.846154,227 197.846154,237 188.307692,237 C178.769231,237 178.769231,227 169.230769,227 C159.692308,227 159.692308,237 150.153846,237 C140.615385,237 140.615385,227 131.076923,227 C124.717949,227 118.358974,230.333333 112,237 Z" id="Rectangle" fill="#EDEDED"></path>
        <g id="iconmonstr-internet-explorer-1" transform="translate(598.000000, 278.000000)">
            <path d="M63.6044922,79.6201172 C73.311849,74.9661458 89.662751,65 105.53418,61.5859375 C131.178929,56.0695609 97,89.1787109 100.019531,89.1787109 C108.511525,89.1787109 111,91 116,89.1787109" id="Path-2" stroke="#606669"></path>
            <path d="M91.3,29.908 C99.744,11.124 93.492,0 78.416,0 C71.248,0 61.384,3.72 54.368,7.188 C29.412,6.916 15.076,24.584 10.412,41.332 C17.744,32.416 27.14,24.132 33.164,22.416 C13.908,38.144 -3.55271368e-15,63.704 -3.55271368e-15,80.44 C-3.55271368e-15,89.68 4.108,96 13.64,96 C21.46,96 27.756,92.284 33.596,89.656 C39.036,92.588 45.04,94.328 51.18,94.328 C73.66,94.328 87.9,82.728 94.244,64 L70.188,64 C66.6,70.492 61.612,74.464 53.02,74.464 C42.452,74.464 34.932,65.508 34.668,56 L95.912,56 C95.968,54.704 96,53.428 96,52.172 C96,43.804 94.632,36.4 91.3,29.908 Z M12.66,65.916 C15.872,74.608 22.392,82.572 30.516,87.844 C6.648,99.908 2.604,83.32 12.66,65.916 Z M34.928,44 C35.276,36.892 42.456,26.752 53.744,26.752 C64.308,26.752 71.732,35.648 71.992,44 L34.928,44 Z M69.244,10.248 C82.348,4.132 98.5,4.876 89.468,26.716 C85.256,20.24 78.764,14.76 69.244,10.248 Z" id="Shape" fill="#CECCCA" fill-rule="nonzero"></path>
            <path d="M33,63 C32,71.5441989 78.704192,71.5441989 85,69 C92.4237215,66 82.6777792,56.0333377 79,45 C73,27 67,33 75,47" id="Path-3" stroke="#606669"></path>
            <path d="M53.6044922,85.6201172 C63.311849,80.9661458 79.662751,71 95.5341797,67.5859375 C121.178929,62.0695609 87,95.1787109 90.0195313,95.1787109 C98.5115248,95.1787109 101,97 106,95.1787109" id="Path-2" stroke="#606669"></path>
        </g>
        <g id="iconmonstr-firefox-1" transform="translate(185.000000, 75.000000)">
            <path d="M59,17 C32.492,17 11,38.492 11,65 C11,91.508 32.492,113 59,113 C85.508,113 107,91.508 107,65 C107,38.492 85.508,17 59,17 Z M91.012,51.628 C85.908,38.344 73.172,33.208 68.876,33.48 C82.992,38.984 86.368,57.716 85.116,63.244 C83.888,56.76 79.972,51.176 77.628,49.704 C91.296,81.724 58.288,91.564 48.216,80.452 C50.812,81.124 55.94,80.792 59.78,78.224 C63.372,75.816 63.712,75.672 66.02,75.492 C68.764,75.28 65.856,69.868 59.864,70.784 C57.4,71.16 53.336,74.06 48.344,72.148 C42.312,69.844 42.504,61.612 48.728,64.088 C50.076,62.34 49.08,59.036 49.08,59.036 C50.888,57.38 53.168,56.212 54.56,55.392 C55.472,54.852 57.876,53.364 57.74,50.472 C57.248,50.088 56.46,49.596 54.676,49.7 C47.732,50.14 47.268,47.628 46.808,46.468 C47.12,43.796 48.904,40.332 52.252,38.744 C47.224,37.972 43.132,40.332 41.096,43.36 C37.86,42.664 35.876,42.628 32.624,43.236 C31.36,42.276 29.96,40.556 29.112,38.512 C36.44,30.248 47.108,25 59,25 C82.648,25 92.052,42.132 91.012,51.628 Z" id="Shape" fill="#3E7AAB" fill-rule="nonzero"></path>
            <path d="M17,55.1972656 C-4.46594983,39.2781973 1,45 3,20 C5,-5 12.6103702,9 7,20" id="Path-6" stroke="#606669"></path>
            <path d="M102.908203,54.7724609 C106,46 108.637963,41.8497199 111.324873,36.4455994 C113.267144,32.5391539 115.378018,24.3263029 116,11 C116.697566,-3.94573302 108.222177,-1.76171875 111.852299,13.2382813 C115.482422,28.2382813 112.454102,31 116.454102,37 C119.120768,41 124.302734,46.9241536 132,54.7724609" id="Path-7" stroke="#606669"></path>
            <path d="M42.0605469,103.904297 C38,110 34.9521484,113.268466 34.9521484,120 C34.9521484,137 42.0605469,138.953125 27.84375,138.953125" id="Path-4" stroke="#606669"></path>
            <path d="M78,105 C79.2532552,110.708333 85.4785156,114.568359 84,123 C81.2458926,138.706052 68,137 84.4902344,139.494141" id="Path-5" stroke="#606669"></path>
        </g>
        <g id="iconmonstr-chrome-1" transform="translate(313.000000, 79.000000)">
            <path d="M11.588,29.724 C21.308,18.412 34.64,13 47.876,13 C65.028,13 82.016,22.092 90.744,39.216 C79.856,39.22 62.808,39.216 53.572,39.216 C46.876,39.22 42.552,39.068 37.868,41.532 C32.364,44.428 28.208,49.8 26.76,56.108 L11.588,29.724 Z M32.028,61 C32.028,69.8 39.184,76.96 47.98,76.96 C56.776,76.96 63.932,69.8 63.932,61 C63.932,52.2 56.776,45.036 47.98,45.036 C39.184,45.036 32.028,52.2 32.028,61 Z M54.172,81.892 C45.22,84.556 34.74,81.6 29,71.696 C24.62,64.132 13.044,43.964 7.78,34.796 C2.46,42.956 0,51.972 0,60.824 C0,82.616 14.904,103.424 38.692,108.096 L54.172,81.892 Z M62.804,45.036 C70.26,51.972 71.888,63.204 66.832,71.912 C63.028,78.476 50.88,98.976 44.992,108.904 C73.748,110.676 96,87.464 96,61.016 C96,55.764 95.12,50.376 93.24,45.036 L62.804,45.036 Z" id="Shape" fill="#3E7AAB" fill-rule="nonzero"></path>
            <path d="M29.0605469,99.9042969 C21.9521484,108 21,110.697177 21,117.428711 C21,134.428711 29.0605469,134.953125 14.84375,134.953125" id="Path-4" stroke="#606669"></path>
            <path d="M63,101 C64.2532552,106.708333 70.4785156,110.568359 69,119 C66.2458926,134.706052 60,134.706052 76,135" id="Path-5" stroke="#606669"></path>
            <path d="M91.9082031,50.7724609 C98.6379631,47 100,42 103,34 C104.96913,28.748986 106,27.4765625 109,12.2382813 C112,-3 101.852299,-2.5234375 104,12.2382813 C106.147701,27 107.454102,27 109,33 C110.030599,37 114.030599,42.9241536 121,50.7724609" id="Path-7" stroke="#606669"></path>
        </g>
        <g id="iconmonstr-safari-1" transform="translate(430.000000, 84.000000)">
            <path d="M42.4124111,51.5844269 L29.2718419,84.2748458 L54.6222451,60.7770909 L67.5334387,28.5586561 L42.4124111,51.5844269 Z M49.2230988,60.4947826 C46.8631779,60.8388458 44.6708775,59.2111621 44.3224032,56.8600632 C43.9739289,54.5089644 45.6104348,52.3210751 47.9703557,51.9770119 C50.3302767,51.6329486 52.5269881,53.2606324 52.8710514,55.6117312 C53.2151146,57.9672411 51.5830198,60.1507194 49.2230988,60.4947826 Z M35.7472885,62.6341502 L18.7867352,62.4180079 L34.3666245,55.0427036 C34.4945455,53.168 34.988585,51.3903399 35.7825771,49.7847115 L28.5748933,42.3300079 L38.2924743,46.2205692 C39.3687747,45.1089802 40.6215178,44.1694229 42.0065929,43.45483 L42.9152727,26.5957312 L49.9156364,41.9153676 L47.5204269,44.1120791 C39.981913,44.7340395 34.8386087,52.1578656 37.0353202,59.4317154 L35.7472885,62.6341502 Z M48.5217391,8.33391304 C46.5720474,8.33391304 44.6532332,8.44860079 42.7608854,8.67356522 C39.6996047,9.08379447 38.5968379,9.08379447 36.1354625,9.92189723 C15.3416917,15.3783874 0,34.2445217 0,56.6792095 C0,83.3793992 21.7245059,105.024506 48.5217391,105.024506 C75.3189723,105.024506 97.0434783,83.3793992 97.0434783,56.6792095 C97.0434783,29.9790198 75.3189723,8.33391304 48.5217391,8.33391304 Z M59.0597787,94.7643636 L55.8441107,90.0048221 L55.0324743,95.6377549 C33.7534862,99.1269091 14.3271462,85.2541028 9.85432411,65.4087115 L14.1639368,62.6606166 L9.16619763,61.372585 C6.71364427,40.6758577 20.4894071,22.7139921 39.2717312,18.2632253 L41.9183715,22.3875731 L42.8976285,17.5795099 C63.3693913,14.699083 81.6797312,27.698498 86.7524585,46.2029249 L82.5751779,49.4803478 L87.5861502,49.9258656 C91.1458814,70.6446482 78.0450119,89.5813597 59.0597787,94.7643636 Z M77.462751,50.5301818 L62.6062767,57.6275889 C62.4430672,59.0258972 62.0769486,60.3668617 61.5387984,61.6107826 L69.0684901,69.3125059 L59.1700553,65.3249012 C58.0364111,66.6129328 56.6689802,67.6936443 55.1339289,68.5008696 L54.7413439,85.6378656 L47.3704506,70.3094071 L50.025913,67.8480316 C57.2291858,66.9437628 62.0593043,59.8198893 60.0566798,52.7665929 L61.2520791,49.7891225 L77.462751,50.5301818 Z" id="Shape" fill="#3E7AAB" fill-rule="nonzero"></path>
            <path d="M92,50 C109,28 101,41 103,16 C105,-9 96,1.9817481e-14 99,15" id="Path-6" stroke="#606669"></path>
            <path d="M68,96 C71.2458926,105.568359 74.9819377,104.989899 74.5,111 C73,129.706052 65,129.706052 81,130" id="Path-5" stroke="#606669"></path>
            <path d="M34.0605469,94.9042969 C29,102 24,105 26,112.428711 C28.5955952,122.069674 34.0605469,129.953125 19.84375,129.953125" id="Path-4" stroke="#606669"></path>
        </g>
        <text id="InternetExplorer-is" font-family="HelveticaNeue, Helvetica Neue" font-size="14" font-weight="normal" fill="#4D4D4D">
            <tspan x="257.432" y="277">InternetExplorer is not supported</tspan>
        </text>
        <text id="Please-use-Chrome,-F" font-family="HelveticaNeue-Bold, Helvetica Neue" font-size="14" font-weight="bold" fill="#3E7AAB">
            <tspan x="212.712" y="298">Please use Chrome, Firefox, Safari or Edge.</tspan>
        </text>
    </g>
</svg>