<?xml version="1.0" encoding="UTF-8"?>
<svg width="7px" height="11px" viewBox="0 0 7 11" version="1.1" xmlns="http://www.w3.org/2000/svg" xmlns:xlink="http://www.w3.org/1999/xlink">
    <!-- Generator: Sketch 51 (57462) - http://www.bohemiancoding.com/sketch -->
    <title>bulb</title>
    <desc>Created with Sketch.</desc>
    <defs></defs>
    <g id="Page-1" stroke="none" stroke-width="1" fill="none" fill-rule="evenodd">
        <g id="Artboard-2" transform="translate(-438.000000, -342.000000)" fill="#FCD721">
            <g id="Group-77">
                <g id="Group-76" transform="translate(0.000000, 0.157000)">
                    <path d="M441.338,350.4662 L441.338,350.4652 C441.673,350.4652 442.009,350.4692 442.344,350.4642 C442.545,350.4612 442.676,350.3452 442.68,350.1852 C442.684,350.0202 442.548,349.9032 442.34,349.8942 C442.314,349.8932 442.288,349.8942 442.261,349.8942 C441.648,349.8942 441.035,349.8932 440.422,349.8942 C440.359,349.8942 440.295,349.8962 440.235,349.9092 C440.093,349.9372 440.02,350.0322 440.015,350.1742 C440.008,350.3532 440.128,350.4612 440.347,350.4652 C440.678,350.4702 441.008,350.4662 441.338,350.4662 M442.502,350.9282 L440.181,350.9282 C440.167,351.2702 440.416,351.4912 440.687,351.5772 C440.749,351.5972 440.817,351.6582 440.844,351.7172 C440.937,351.9172 441.091,352.0362 441.301,352.0522 C441.525,352.0692 441.724,351.9752 441.814,351.7632 C441.871,351.6282 441.958,351.5832 442.08,351.5402 C442.355,351.4452 442.525,351.1932 442.502,350.9282 M441.342,349.4392 C441.714,349.4392 442.086,349.4322 442.458,349.4422 C442.601,349.4462 442.639,349.3972 442.632,349.2622 C442.622,349.0532 442.626,348.8432 442.632,348.6332 C442.634,348.5692 442.646,348.4942 442.68,348.4422 C442.944,348.0462 443.196,347.6402 443.487,347.2652 C444.063,346.5252 444.285,345.7062 444.083,344.7892 C443.731,343.1852 442.033,342.2342 440.462,342.7512 C438.726,343.3222 437.982,345.3722 438.961,346.9112 C439.236,347.3432 439.546,347.7532 439.844,348.1702 C439.994,348.3812 440.09,348.6012 440.056,348.8692 C440.039,348.9982 440.06,349.1312 440.051,349.2612 C440.041,349.3962 440.083,349.4462 440.226,349.4422 C440.598,349.4332 440.97,349.4392 441.342,349.4392" id="bulb"></path>
                </g>
            </g>
        </g>
    </g>
</svg>