<?xml version="1.0" encoding="UTF-8"?>
<svg width="13px" height="13px" viewBox="0 0 13 13" version="1.1" xmlns="http://www.w3.org/2000/svg" xmlns:xlink="http://www.w3.org/1999/xlink">
    <!-- Generator: Sketch 50.2 (55047) - http://www.bohemiancoding.com/sketch -->
    <title>calendar</title>
    <desc>Created with Sketch.</desc>
    <defs></defs>
    <g id="Page-1" stroke="none" stroke-width="1" fill="none" fill-rule="evenodd">
        <g id="6.28-237PM-create_schedule" transform="translate(-656.000000, -361.000000)" fill="#4D4D4D">
            <g id="Group-75" transform="translate(0.000000, -0.667000)">
                <g id="calendar" transform="translate(656.000000, 362.000000)">
                    <path d="M9.5369,2.2428 C9.5369,2.3268 9.5369,2.3908 9.5369,2.4548 C9.5359,2.6398 9.5449,2.8258 9.5319,3.0098 C9.5169,3.2288 9.3519,3.3638 9.1359,3.3518 C8.9419,3.3418 8.8109,3.1948 8.8079,2.9808 C8.8059,2.7848 8.8029,2.5888 8.8099,2.3928 C8.8129,2.2828 8.7819,2.2388 8.6639,2.2388 C8.0109,2.2438 7.3579,2.2438 6.7049,2.2398 C6.5879,2.2388 6.5539,2.2828 6.5569,2.3928 C6.5629,2.5828 6.5609,2.7738 6.5579,2.9638 C6.5529,3.2128 6.4199,3.3528 6.1959,3.3518 C5.9729,3.3518 5.8419,3.2098 5.8389,2.9598 C5.8359,2.7638 5.8339,2.5678 5.8389,2.3718 C5.8409,2.2728 5.7999,2.2398 5.7029,2.2398 C5.0389,2.2428 4.3759,2.2428 3.7119,2.2408 C3.6219,2.2398 3.5859,2.2718 3.5879,2.3648 C3.5919,2.5818 3.5919,2.7998 3.5859,3.0168 C3.5819,3.2008 3.4339,3.3438 3.2539,3.3518 C3.0189,3.3638 2.8659,3.2138 2.8609,2.9558 C2.8559,2.7228 2.8599,2.4908 2.8599,2.2418 L2.6749,2.2418 C2.2399,2.2418 1.8049,2.2408 1.3699,2.2418 C1.0689,2.2418 0.9959,2.3148 0.9959,2.6158 C0.9949,5.4618 0.9949,8.3068 0.9959,11.1518 C0.9959,11.4668 1.0639,11.5358 1.3769,11.5358 C4.5869,11.5358 7.7969,11.5358 11.0069,11.5358 C11.3339,11.5358 11.4009,11.4698 11.4009,11.1478 C11.4009,8.3078 11.4009,5.4678 11.4009,2.6278 C11.4009,2.5848 11.4029,2.5408 11.3989,2.4978 C11.3889,2.3528 11.2939,2.2458 11.1519,2.2448 C10.6249,2.2398 10.0979,2.2428 9.5369,2.2428 M0.2559,11.4588 L0.2559,2.3168 C0.2699,2.2878 0.2899,2.2598 0.2989,2.2298 C0.4109,1.8518 0.6599,1.6048 1.0449,1.5398 C1.3099,1.4948 1.5859,1.5088 1.8569,1.5048 C2.1819,1.4998 2.5069,1.5028 2.8469,1.5028 C2.8519,1.4288 2.8579,1.3708 2.8589,1.3128 C2.8609,1.1278 2.8539,0.9428 2.8619,0.7578 C2.8729,0.5378 3.0379,0.3838 3.2409,0.3908 C3.4339,0.3978 3.5839,0.5588 3.5869,0.7708 C3.5909,0.9728 3.5909,1.1738 3.5879,1.3748 C3.5859,1.4618 3.6099,1.5048 3.7059,1.5038 C4.3749,1.5018 5.0439,1.5018 5.7129,1.5038 C5.8039,1.5038 5.8399,1.4688 5.8379,1.3788 C5.8349,1.1828 5.8359,0.9868 5.8379,0.7908 C5.8419,0.5488 5.9829,0.3928 6.1959,0.3918 C6.4089,0.3898 6.5519,0.5448 6.5569,0.7878 C6.5619,0.9838 6.5609,1.1798 6.5579,1.3758 C6.5569,1.4628 6.5859,1.5038 6.6799,1.5038 C7.3489,1.5018 8.0179,1.5018 8.6869,1.5038 C8.7799,1.5048 8.8109,1.4678 8.8089,1.3778 C8.8049,1.1768 8.8039,0.9758 8.8099,0.7748 C8.8119,0.7068 8.8259,0.6328 8.8589,0.5748 C8.9379,0.4308 9.1029,0.3628 9.2469,0.3978 C9.4149,0.4388 9.5269,0.5758 9.5339,0.7688 C9.5419,0.9648 9.5419,1.1608 9.5349,1.3568 C9.5319,1.4708 9.5729,1.5068 9.6869,1.5058 C10.1599,1.4998 10.6329,1.4978 11.1059,1.5068 C11.2389,1.5088 11.3789,1.5338 11.5029,1.5798 C11.9119,1.7298 12.1399,2.0968 12.1399,2.5808 C12.1409,5.4418 12.1409,8.3038 12.1409,11.1648 C12.1409,11.8708 11.7339,12.2748 11.0259,12.2748 C8.3379,12.2748 5.6509,12.2748 2.9629,12.2748 C2.3969,12.2748 1.8319,12.2818 1.2659,12.2728 C0.8289,12.2658 0.5129,12.0568 0.3329,11.6538 C0.3039,11.5898 0.2809,11.5238 0.2559,11.4588" id="Fill-47"></path>
                    <path d="M4.3281,8.5728 C4.3281,8.9248 4.3301,9.2608 4.3231,9.5958 C4.3231,9.6218 4.2581,9.6668 4.2221,9.6678 C3.8091,9.6728 3.3951,9.6698 2.9821,9.6718 C2.8891,9.6718 2.8581,9.6268 2.8591,9.5398 C2.8611,9.2578 2.8561,8.9738 2.8641,8.6918 C2.8651,8.6508 2.9231,8.5788 2.9551,8.5778 C3.4061,8.5708 3.8561,8.5728 4.3281,8.5728" id="Fill-49"></path>
                    <path d="M8.8071,8.5719 C9.0081,8.5719 9.2101,8.5739 9.4111,8.5709 C9.5001,8.5699 9.5391,8.6009 9.5381,8.6939 C9.5341,8.9769 9.5351,9.2599 9.5371,9.5429 C9.5381,9.6309 9.5031,9.6719 9.4121,9.6719 C9.0041,9.6699 8.5961,9.6699 8.1881,9.6719 C8.1081,9.6729 8.0651,9.6469 8.0651,9.5609 C8.0661,9.2669 8.0671,8.9729 8.0641,8.6799 C8.0631,8.5899 8.1091,8.5699 8.1871,8.5709 C8.3931,8.5739 8.6001,8.5719 8.8071,8.5719" id="Fill-51"></path>
                    <path d="M3.6185,4.8564 C3.8145,4.8564 4.0105,4.8584 4.2055,4.8554 C4.2955,4.8544 4.3325,4.8904 4.3315,4.9814 C4.3295,5.2634 4.3285,5.5464 4.3325,5.8294 C4.3335,5.9234 4.2915,5.9504 4.2035,5.9504 C3.8015,5.9474 3.3985,5.9464 2.9965,5.9504 C2.8865,5.9514 2.8565,5.9044 2.8585,5.8024 C2.8625,5.5364 2.8635,5.2694 2.8575,5.0034 C2.8545,4.8844 2.9085,4.8524 3.0145,4.8554 C3.2165,4.8594 3.4175,4.8564 3.6185,4.8564" id="Fill-53"></path>
                    <path d="M8.7862,5.949 C8.5902,5.949 8.3942,5.946 8.1992,5.95 C8.1012,5.953 8.0622,5.919 8.0642,5.819 C8.0672,5.542 8.0672,5.264 8.0642,4.987 C8.0622,4.887 8.1052,4.854 8.2002,4.855 C8.5972,4.858 8.9942,4.859 9.3912,4.855 C9.5082,4.854 9.5402,4.905 9.5382,5.013 C9.5332,5.274 9.5312,5.535 9.5392,5.796 C9.5432,5.924 9.4872,5.954 9.3732,5.951 C9.1782,5.945 8.9822,5.949 8.7862,5.949" id="Fill-55"></path>
                    <path d="M3.6024,7.8092 C3.4124,7.8092 3.2214,7.8042 3.0314,7.8112 C2.9104,7.8152 2.8524,7.7802 2.8574,7.6462 C2.8654,7.3852 2.8624,7.1242 2.8584,6.8632 C2.8564,6.7622 2.8864,6.7142 2.9964,6.7152 C3.3984,6.7192 3.8004,6.7192 4.2034,6.7152 C4.3064,6.7142 4.3334,6.7582 4.3324,6.8522 C4.3284,7.1242 4.3284,7.3962 4.3324,7.6682 C4.3344,7.7742 4.2954,7.8132 4.1894,7.8102 C3.9944,7.8052 3.7984,7.8092 3.6024,7.8092" id="Fill-57"></path>
                    <path d="M8.8032,6.7166 C8.9992,6.7166 9.1952,6.7196 9.3902,6.7156 C9.4902,6.7136 9.5402,6.7426 9.5382,6.8536 C9.5332,7.1256 9.5342,7.3976 9.5382,7.6696 C9.5402,7.7776 9.4912,7.8106 9.3902,7.8096 C8.9932,7.8076 8.5972,7.8076 8.2002,7.8106 C8.1032,7.8116 8.0622,7.7766 8.0642,7.6776 C8.0672,7.4006 8.0672,7.1226 8.0632,6.8456 C8.0622,6.7456 8.1032,6.7126 8.1992,6.7146 C8.4012,6.7196 8.6022,6.7166 8.8032,6.7166" id="Fill-59"></path>
                    <path d="M6.1896,5.9489 C5.9996,5.9489 5.8096,5.9449 5.6196,5.9509 C5.5096,5.9539 5.4626,5.9179 5.4656,5.8019 C5.4706,5.5359 5.4706,5.2699 5.4656,5.0039 C5.4626,4.8879 5.5106,4.8539 5.6206,4.8549 C6.0056,4.8589 6.3916,4.8589 6.7766,4.8549 C6.8876,4.8539 6.9336,4.8899 6.9316,5.0049 C6.9256,5.2709 6.9256,5.5369 6.9316,5.8029 C6.9336,5.9199 6.8856,5.9539 6.7756,5.9509 C6.5806,5.9449 6.3846,5.9489 6.1896,5.9489" id="Fill-61"></path>
                    <path d="M6.2147,6.7166 C6.4047,6.7166 6.5947,6.7196 6.7847,6.7156 C6.8877,6.7126 6.9327,6.7476 6.9307,6.8556 C6.9257,7.1266 6.9267,7.3986 6.9307,7.6696 C6.9327,7.7776 6.8867,7.8116 6.7847,7.8106 C6.3937,7.8076 6.0027,7.8076 5.6117,7.8106 C5.5087,7.8116 5.4637,7.7766 5.4657,7.6686 C5.4697,7.3976 5.4697,7.1256 5.4657,6.8546 C5.4637,6.7456 5.5097,6.7126 5.6117,6.7156 C5.8127,6.7196 6.0137,6.7166 6.2147,6.7166" id="Fill-63"></path>
                    <path d="M6.1818,9.6713 C5.9918,9.6713 5.8018,9.6683 5.6118,9.6723 C5.5078,9.6753 5.4638,9.6373 5.4658,9.5303 C5.4698,9.2533 5.4698,8.9763 5.4658,8.6993 C5.4638,8.5963 5.5098,8.5703 5.6038,8.5703 C5.9998,8.5733 6.3968,8.5733 6.7928,8.5703 C6.8868,8.5703 6.9318,8.5973 6.9308,8.6993 C6.9268,8.9763 6.9268,9.2533 6.9308,9.5303 C6.9318,9.6373 6.8878,9.6753 6.7848,9.6723 C6.5838,9.6683 6.3828,9.6713 6.1818,9.6713" id="Fill-65"></path>
                </g>
            </g>
        </g>
    </g>
</svg>