<?xml version="1.0" encoding="UTF-8"?>
<svg width="28px" height="17px" viewBox="0 0 28 17" version="1.1" xmlns="http://www.w3.org/2000/svg" xmlns:xlink="http://www.w3.org/1999/xlink">
    <!-- Generator: Sketch 50.2 (55047) - http://www.bohemiancoding.com/sketch -->
    <title>chevron-big</title>
    <desc>Created with Sketch.</desc>
    <defs>
        <rect id="path-1" x="0" y="0" width="28" height="18"></rect>
    </defs>
    <g id="Page-1" stroke="none" stroke-width="1" fill="none" fill-rule="evenodd">
        <g id="toolbar" transform="translate(-73.000000, -13.000000)">
            <g id="chevron-big" transform="translate(73.000000, 13.000000)">
                <mask id="mask-2" fill="white">
                    <use xlink:href="#path-1"></use>
                </mask>
                <g id="Rectangle-3"></g>
                <g id="chevron" mask="url(#mask-2)" fill="#FFFFFF">
                    <g transform="translate(14.142136, 14.142136) rotate(-45.000000) translate(-14.142136, -14.142136) translate(4.142136, 4.142136)" id="Rectangle-2">
                        <path d="M20,2 L20,18 C20,19.1045695 19.1045695,20 18,20 C16.8954305,20 16,19.1045695 16,18 L16,4 L2,4 C0.8954305,4 1.3527075e-16,3.1045695 0,2 C-1.3527075e-16,0.8954305 0.8954305,2.98630855e-13 2,2.98427949e-13 L18,2.98427949e-13 C19.1045695,2.98225043e-13 20,0.8954305 20,2 Z"></path>
                    </g>
                </g>
            </g>
        </g>
    </g>
</svg>