<?xml version="1.0" encoding="UTF-8"?>
<svg width="10px" height="10px" viewBox="0 0 10 10" version="1.1" xmlns="http://www.w3.org/2000/svg" xmlns:xlink="http://www.w3.org/1999/xlink">
    <!-- Generator: Sketch 51 (57462) - http://www.bohemiancoding.com/sketch -->
    <title>download</title>
    <desc>Created with Sketch.</desc>
    <defs></defs>
    <g id="Page-1" stroke="none" stroke-width="1" fill="none" fill-rule="evenodd">
        <g id="Group-108" transform="translate(-499.000000, -432.000000)" fill="#3E7AAB">
            <g id="Group-105" transform="translate(0.000000, 0.571000)">
                <path d="M504.6947,436.5001 C504.6737,436.4891 504.6527,436.4781 504.6317,436.4671 C504.6277,436.3841 504.6187,436.3011 504.6187,436.2171 C504.6187,434.8691 504.6187,433.5201 504.6187,432.1711 C504.6187,432.0981 504.6227,432.0241 504.6117,431.9521 C504.5797,431.7311 504.3777,431.5551 504.1747,431.5631 C503.9697,431.5711 503.7797,431.7581 503.7597,431.9781 C503.7537,432.0501 503.7567,432.1241 503.7567,432.1971 C503.7567,433.5391 503.7577,434.8801 503.7567,436.2221 C503.7567,436.3041 503.7477,436.3871 503.7387,436.5271 C503.6277,436.4221 503.5587,436.3611 503.4937,436.2961 C503.2307,436.0311 502.9707,435.7631 502.7067,435.4991 C502.4967,435.2911 502.2567,435.2801 502.0637,435.4621 C501.9017,435.6161 501.9097,435.9091 502.0927,436.0951 C502.6687,436.6801 503.2457,437.2621 503.8277,437.8401 C504.0777,438.0891 504.2997,438.0881 504.5507,437.8381 C505.1317,437.2591 505.7087,436.6761 506.2847,436.0921 C506.4607,435.9131 506.4747,435.6321 506.3247,435.4751 C506.1427,435.2841 505.8927,435.2871 505.6817,435.4861 C505.5807,435.5811 505.4857,435.6821 505.3887,435.7821 C505.1567,436.0211 504.9257,436.2611 504.6947,436.5001 M504.1657,441.2271 C505.3827,441.2271 506.5997,441.2271 507.8157,441.2271 C508.2397,441.2271 508.3977,441.0711 508.3977,440.6441 C508.3997,439.9181 508.3987,439.1931 508.3977,438.4671 C508.3977,438.4011 508.3997,438.3341 508.3887,438.2701 C508.3467,438.0341 508.1677,437.8791 507.9517,437.8871 C507.7517,437.8951 507.5797,438.0611 507.5467,438.2841 C507.5377,438.3491 507.5407,438.4151 507.5407,438.4811 C507.5397,439.0381 507.5367,439.5961 507.5417,440.1531 C507.5437,440.2981 507.5017,440.3631 507.3427,440.3631 C505.2397,440.3591 503.1357,440.3591 501.0317,440.3631 C500.8737,440.3631 500.8317,440.2971 500.8337,440.1521 C500.8387,439.6901 500.8357,439.2291 500.8357,438.7671 C500.8347,438.6201 500.8417,438.4731 500.8317,438.3271 C500.8137,438.0761 500.6407,437.8951 500.4237,437.8871 C500.1897,437.8791 500.0107,438.0511 499.9807,438.3141 C499.9757,438.3571 499.9777,438.4021 499.9777,438.4461 C499.9767,439.1861 499.9757,439.9261 499.9777,440.6671 C499.9787,441.0641 500.1427,441.2271 500.5377,441.2271 C501.7467,441.2271 502.9567,441.2271 504.1657,441.2271" id="download"></path>
            </g>
        </g>
    </g>
</svg>