<?xml version="1.0" encoding="UTF-8" standalone="no"?>
<svg width="8px" height="6px" viewBox="0 0 8 6" version="1.1" xmlns="http://www.w3.org/2000/svg" xmlns:xlink="http://www.w3.org/1999/xlink">
    <!-- Generator: Sketch 44.1 (41455) - http://www.bohemiancoding.com/sketch -->
    <title>folder</title>
    <desc>Created with Sketch.</desc>
    <defs></defs>
    <g id="Page-1" stroke="none" stroke-width="1" fill="none" fill-rule="evenodd">
        <g transform="translate(-283.000000, -83.000000)" id="Group-97" fill="#B3B3B3">
            <g transform="translate(283.000000, 79.306000)">
                <path d="M3.9513,9.156 C5.0043,9.156 6.0583,9.156 7.1113,9.156 C7.3513,9.156 7.4593,9.048 7.4593,8.81 C7.4593,7.586 7.4593,6.362 7.4593,5.139 C7.4593,4.902 7.3523,4.791 7.1173,4.793 C6.3283,4.802 5.5403,4.797 4.7513,4.797 C4.3193,4.796 3.8883,4.796 3.4563,4.797 C3.3783,4.797 3.3123,4.786 3.2563,4.719 C3.0733,4.497 2.8803,4.283 2.6973,4.061 C2.6073,3.95 2.4983,3.903 2.3573,3.904 C1.8363,3.907 1.3163,3.905 0.7963,3.905 C0.5493,3.905 0.4433,4.011 0.4433,4.256 C0.4433,5.767 0.4433,7.279 0.4433,8.79 C0.4433,9.057 0.5423,9.156 0.8103,9.156 C1.8573,9.156 2.9043,9.156 3.9513,9.156" id="folder"></path>
            </g>
        </g>
    </g>
</svg>