<?xml version="1.0" encoding="UTF-8" standalone="no"?>
<svg width="13px" height="14px" viewBox="0 0 13 14" version="1.1" xmlns="http://www.w3.org/2000/svg" xmlns:xlink="http://www.w3.org/1999/xlink">
    <!-- Generator: Sketch 44.1 (41455) - http://www.bohemiancoding.com/sketch -->
    <title>gear</title>
    <desc>Created with Sketch.</desc>
    <defs></defs>
    <g id="Page-1" stroke="none" stroke-width="1" fill="none" fill-rule="evenodd">
        <g transform="translate(-922.000000, -43.000000)" id="Group-43" fill="#808080">
            <g transform="translate(155.000000, 37.306000)">
                <path d="M770.8102,12.6281 C770.7462,13.9511 771.8432,15.2741 773.4282,15.2711 C774.9682,15.2681 776.0922,14.1081 776.0902,12.6181 C776.0892,11.1561 774.9952,9.9941 773.4522,9.9751 C771.8842,9.9561 770.7462,11.2581 770.8102,12.6281 M778.5572,9.1131 C778.4622,9.3081 778.3972,9.4881 778.2932,9.6411 C778.1992,9.7801 778.0612,9.8881 777.9432,10.0111 C777.7182,10.2461 777.6472,10.5231 777.7652,10.8261 C777.8872,11.1371 778.1292,11.3111 778.4682,11.3321 C778.6492,11.3431 778.8322,11.3301 779.0122,11.3491 C779.4632,11.3971 779.6872,11.6271 779.7042,12.0761 C779.7192,12.4391 779.7182,12.8031 779.7052,13.1651 C779.6872,13.6111 779.4572,13.8531 779.0162,13.9011 C778.8242,13.9221 778.6302,13.9041 778.4382,13.9191 C778.1142,13.9441 777.8852,14.1171 777.7622,14.4141 C777.6362,14.7171 777.6872,15.0121 777.9332,15.2241 C778.7142,15.8921 778.6752,16.4091 777.8882,17.0981 C777.7942,17.1801 777.7122,17.2751 777.6222,17.3601 C777.2002,17.7611 776.7532,17.7661 776.3262,17.3731 C776.2182,17.2731 776.1192,17.1631 776.0082,17.0671 C775.7972,16.8841 775.5552,16.7981 775.2842,16.9071 C774.9952,17.0231 774.7802,17.2181 774.7462,17.5501 C774.7282,17.7301 774.7372,17.9121 774.7272,18.0931 C774.6972,18.6441 774.4182,18.9221 773.8712,18.9351 C773.5762,18.9431 773.2812,18.9441 772.9862,18.9341 C772.4482,18.9151 772.1782,18.6421 772.1582,18.1091 C772.1522,17.9391 772.1682,17.7661 772.1462,17.5991 C772.1012,17.2541 771.9082,17.0151 771.5772,16.9011 C771.2742,16.7971 771.0222,16.9001 770.8042,17.1151 C770.7482,17.1711 770.6922,17.2281 770.6352,17.2831 C770.1082,17.7941 769.6842,17.7901 769.1742,17.2721 C768.9912,17.0871 768.7992,16.9091 768.6212,16.7181 C768.2862,16.3561 768.2872,15.9301 768.6172,15.5601 C768.7162,15.4511 768.8202,15.3461 768.9252,15.2431 C769.1582,15.0171 769.2542,14.7551 769.1292,14.4421 C768.9992,14.1181 768.7562,13.9371 768.4042,13.9131 C768.1782,13.8981 767.9482,13.9101 767.7262,13.8721 C767.3502,13.8091 767.1372,13.5831 767.1152,13.2061 C767.0922,12.8221 767.0922,12.4341 767.1142,12.0491 C767.1372,11.6541 767.3512,11.4331 767.7502,11.3681 C767.9502,11.3361 768.1572,11.3431 768.3602,11.3351 C768.7252,11.3211 768.9862,11.1521 769.1252,10.8121 C769.2612,10.4841 769.1502,10.2171 768.9082,9.9851 C768.8182,9.8981 768.7292,9.8101 768.6452,9.7191 C768.2742,9.3191 768.2772,8.8771 768.6612,8.4831 C768.8742,8.2641 769.0932,8.0491 769.3202,7.8431 C769.6962,7.5011 770.1332,7.5031 770.5112,7.8421 C770.6122,7.9331 770.7072,8.0311 770.8042,8.1271 C771.0312,8.3531 771.2932,8.4591 771.6062,8.3381 C771.9442,8.2081 772.1332,7.9541 772.1582,7.5911 C772.1702,7.4101 772.1582,7.2271 772.1702,7.0461 C772.1982,6.6311 772.4672,6.3471 772.8822,6.3221 C773.2212,6.3011 773.5622,6.3041 773.9022,6.3151 C774.4122,6.3311 774.6892,6.5991 774.7352,7.1131 C774.7522,7.2931 774.7402,7.4761 774.7502,7.6571 C774.7692,8.0051 774.9772,8.2171 775.2802,8.3411 C775.5632,8.4571 775.8152,8.3701 776.0332,8.1751 C776.1602,8.0611 776.2752,7.9351 776.4052,7.8251 C776.7852,7.5031 777.2062,7.5061 777.5682,7.8411 C777.8172,8.0721 778.0672,8.3061 778.2842,8.5661 C778.4072,8.7141 778.4622,8.9171 778.5572,9.1131" id="gear"></path>
            </g>
        </g>
    </g>
</svg>