<svg id="Layer_1" data-name="Layer 1" xmlns="http://www.w3.org/2000/svg" viewBox="0 0 68.44 17.41"><defs><style>.cls-1{fill:#fff;}</style></defs><title>Artboard 95</title><g id="logo"><polygon class="cls-1" points="44.89 2.21 51.47 2.21 44.89 9.81 44.89 11.9 54.62 11.9 54.62 9.81 48.23 9.81 54.62 2.21 54.62 0.12 44.89 0.12 44.89 2.21"/><path class="cls-1" d="M68.43,5.71h0A6.15,6.15,0,0,0,56.15,6a6.1,6.1,0,0,0,6.15,6,6.16,6.16,0,0,0,4-1.47V11.9h2.13V6.26c0-.07,0-.15,0-.22s0-.15,0-.22ZM62.3,9.89a3.85,3.85,0,1,1,0-7.7A3.89,3.89,0,0,1,66.22,6,3.89,3.89,0,0,1,62.3,9.89Z"/><polygon class="cls-1" points="32.95 2.21 39.52 2.21 32.95 9.81 32.95 11.9 42.67 11.9 42.67 9.81 36.28 9.81 42.67 2.21 42.67 0.12 32.95 0.12 32.95 2.21"/><path class="cls-1" d="M6,.17A5.92,5.92,0,0,0,0,5.69L0,17.41h2.1V10.53A6,6,0,0,0,6,11.9a5.91,5.91,0,0,0,6-5.86A5.92,5.92,0,0,0,6,.17Zm0,9.59a3.64,3.64,0,1,1,0-7.27,3.64,3.64,0,1,1,0,7.27Z"/><path class="cls-1" d="M30.79,5.71h0A6.15,6.15,0,0,0,18.51,6a6.1,6.1,0,0,0,6.15,6,6.21,6.21,0,0,0,4-1.47V11.9h2.12V6.26a1.62,1.62,0,0,0,0-.22,1.55,1.55,0,0,0,0-.22ZM24.66,9.89a3.85,3.85,0,1,1,0-7.7A3.89,3.89,0,0,1,28.58,6,3.89,3.89,0,0,1,24.66,9.89Z"/><rect class="cls-1" x="14.06" y="0.18" width="2.14" height="11.73"/></g></svg>