<?xml version="1.0" encoding="UTF-8"?>
<svg width="19px" height="18px" viewBox="0 0 19 18" version="1.1" xmlns="http://www.w3.org/2000/svg" xmlns:xlink="http://www.w3.org/1999/xlink">
    <!-- Generator: Sketch 51 (57462) - http://www.bohemiancoding.com/sketch -->
    <title>o-link</title>
    <desc>Created with Sketch.</desc>
    <defs></defs>
    <g id="Page-1" stroke="none" stroke-width="1" fill="none" fill-rule="evenodd">
        <g id="Artboard" transform="translate(-997.000000, -67.000000)" fill="#3E7AAB">
            <g id="Group-53">
                <g id="Group-52" transform="translate(0.000000, 0.391000)">
                    <path d="M1005.643,73.4492 C1005.739,73.4432 1005.795,73.4502 1005.845,73.4342 C1006.179,73.3292 1006.515,73.3492 1006.831,73.4722 C1007.025,73.5472 1007.129,73.4902 1007.254,73.3612 C1007.636,72.9682 1008.023,72.5802 1008.416,72.1982 C1008.819,71.8072 1009.404,71.7362 1009.859,72.0112 C1010.522,72.4122 1010.627,73.2892 1010.065,73.8642 C1009.349,74.5942 1008.622,75.3122 1007.898,76.0342 C1007.322,76.6082 1006.68,76.6122 1006.084,76.0482 C1005.812,75.7912 1005.521,75.7752 1005.281,76.0062 C1005.041,76.2362 1005.055,76.5512 1005.317,76.8292 C1006.19,77.7542 1007.6,77.8172 1008.528,76.9362 C1009.34,76.1642 1010.135,75.3722 1010.905,74.5582 C1011.56,73.8652 1011.7,73.0312 1011.343,72.1482 C1010.735,70.6472 1008.828,70.2752 1007.645,71.4202 C1007.01,72.0342 1006.394,72.6672 1005.771,73.2932 C1005.733,73.3312 1005.703,73.3762 1005.643,73.4492 M1007.335,78.1122 C1007.248,78.1122 1007.192,78.0992 1007.144,78.1142 C1006.81,78.2202 1006.474,78.2002 1006.157,78.0782 C1005.964,78.0042 1005.86,78.0572 1005.734,78.1872 C1005.346,78.5862 1004.954,78.9802 1004.554,79.3672 C1004.165,79.7422 1003.564,79.8082 1003.129,79.5402 C1002.465,79.1302 1002.359,78.2612 1002.921,77.6862 C1003.636,76.9562 1004.364,76.2372 1005.088,75.5162 C1005.664,74.9412 1006.306,74.9382 1006.901,75.5032 C1007.172,75.7602 1007.464,75.7752 1007.704,75.5452 C1007.937,75.3212 1007.93,75.0052 1007.685,74.7392 C1006.843,73.8242 1005.43,73.7212 1004.512,74.5682 C1003.653,75.3612 1002.827,76.1932 1002.032,77.0492 C1001.404,77.7252 1001.291,78.5502 1001.639,79.4022 C1002.245,80.8852 1004.133,81.2782 1005.302,80.1672 C1005.96,79.5412 1006.589,78.8862 1007.23,78.2432 C1007.262,78.2112 1007.287,78.1722 1007.335,78.1122 M997.6524,75.7792 C997.6514,70.9072 1001.628,66.9322 1006.501,66.9352 C1011.362,66.9382 1015.331,70.9102 1015.333,75.7712 C1015.334,80.6442 1011.357,84.6192 1006.484,84.6152 C1001.624,84.6122 997.6544,80.6402 997.6524,75.7792" id="o-link"></path>
                </g>
            </g>
        </g>
    </g>
</svg>