<?xml version="1.0" encoding="UTF-8"?>
<svg width="10px" height="10px" viewBox="0 0 10 10" version="1.1" xmlns="http://www.w3.org/2000/svg" xmlns:xlink="http://www.w3.org/1999/xlink">
    <!-- Generator: Sketch 50.2 (55047) - http://www.bohemiancoding.com/sketch -->
    <title>pen</title>
    <desc>Created with Sketch.</desc>
    <defs>
        <polygon id="path-1" points="0.000245815751 0.7463 9.23017522 0.7463 9.23017522 10 0.000245815751 10"></polygon>
    </defs>
    <g id="Page-1" stroke="none" stroke-width="1" fill="none" fill-rule="evenodd">
        <g id="Artboard" transform="translate(-352.000000, -75.000000)">
            <g id="pen" transform="translate(352.000000, 75.000000)">
                <mask id="mask-2" fill="white">
                    <use xlink:href="#path-1"></use>
                </mask>
                <g id="Clip-9"></g>
                <path d="M7.5503,0.7463 C7.4173,0.8193 7.2803,0.8663 7.1823,0.9553 C6.9333,1.1803 6.7013,1.4243 6.4633,1.6613 C6.2723,1.8513 6.2703,1.8553 6.4563,2.0413 C6.9983,2.5813 7.5463,3.1163 8.0833,3.6623 C8.1883,3.7693 8.2483,3.7623 8.3383,3.6573 C8.5793,3.3773 8.8273,3.1033 9.0703,2.8263 C9.2813,2.5853 9.2873,2.3373 9.0653,2.1103 C8.6813,1.7153 8.2903,1.3273 7.8933,0.9453 C7.8073,0.8623 7.6823,0.8203 7.5503,0.7463 M7.5673,4.3183 C7.5373,4.2783 7.5193,4.2493 7.4973,4.2263 C6.9183,3.6463 6.3383,3.0673 5.7613,2.4853 C5.6583,2.3813 5.5933,2.4333 5.5133,2.5143 C5.0793,2.9543 4.6403,3.3913 4.2053,3.8303 C2.8453,5.2003 1.4863,6.5693 0.1313,7.9443 C0.0643,8.0123 0.0103,8.1273 0.0083,8.2213 C-0.0037,8.7393 0.0073,9.2583 0.0003,9.7763 C-0.0017,9.9403 0.0513,10.0023 0.2203,9.9993 C0.7253,9.9913 1.2303,9.9913 1.7343,10.0003 C1.8903,10.0023 2.0003,9.9503 2.1063,9.8423 C3.8333,8.0983 5.5623,6.3563 7.2903,4.6123 C7.3833,4.5183 7.4723,4.4203 7.5673,4.3183" id="Fill-8" fill="#3E7AAB" mask="url(#mask-2)"></path>
            </g>
        </g>
    </g>
</svg>