<?xml version="1.0" encoding="UTF-8"?>
<svg width="134px" height="27px" viewBox="0 0 134 27" version="1.1" xmlns="http://www.w3.org/2000/svg" xmlns:xlink="http://www.w3.org/1999/xlink">
    <!-- Generator: Sketch 52.5 (67469) - http://www.bohemiancoding.com/sketch -->
    <title>Group 2</title>
    <desc>Created with Sketch.</desc>
    <g id="Page-1" stroke="none" stroke-width="1" fill="none" fill-rule="evenodd">
        <g id="Group-2" transform="translate(-1.000000, -0.528000)" fill="#3E7BAA">
            <polygon id="Fill-1" points="98.3664 4.1121 108.4744 4.1121 98.3664 15.7901 98.3664 19.0071 113.3164 19.0071 113.3164 15.7901 103.4934 15.7901 113.3164 4.1121 113.3164 0.8941 98.3664 0.8941"></polygon>
            <path d="M125.121,15.9117 C121.794,15.9117 119.095,13.2627 119.095,9.9917 C119.095,6.7237 121.794,4.0737 125.121,4.0737 C128.45,4.0737 131.149,6.7237 131.149,9.9917 C131.149,13.2627 128.45,15.9117 125.121,15.9117 Z M134.553,9.4947 L134.547,9.4947 C134.281,4.6007 130.168,0.7097 125.121,0.7097 C119.903,0.7097 115.672,4.8657 115.672,9.9917 C115.672,15.1187 119.903,19.2757 125.121,19.2757 C127.479,19.2757 129.628,18.4217 131.285,17.0197 L131.285,19.0067 L134.553,19.0067 L134.553,10.3327 C134.559,10.2187 134.571,10.1077 134.571,9.9917 C134.571,9.8777 134.559,9.7667 134.553,9.6517 L134.553,9.4947 Z" id="Fill-3"></path>
            <polygon id="Fill-4" points="79.9994 4.1121 90.1094 4.1121 79.9994 15.7901 79.9994 19.0071 94.9514 19.0071 94.9514 15.7901 85.1254 15.7901 94.9514 4.1121 94.9514 0.8941 79.9994 0.8941"></polygon>
            <path d="M38.4254,15.7115 C35.2874,15.7115 32.7424,13.2105 32.7424,10.1265 C32.7424,7.0435 35.2874,4.5435 38.4254,4.5435 C41.5654,4.5435 44.1104,7.0435 44.1104,10.1265 C44.1104,13.2105 41.5654,15.7115 38.4254,15.7115 M38.4944,0.9775 C33.6104,0.9775 29.6304,4.7275 29.3454,9.4545 L29.3744,27.4825 L32.6054,27.4825 L32.6054,16.9015 C34.1994,18.2155 36.2524,19.0075 38.4944,19.0075 C43.5624,19.0075 47.6704,14.9705 47.6704,9.9915 C47.6704,5.0125 43.5624,0.9775 38.4944,0.9775" id="Fill-5"></path>
            <path d="M67.2554,15.9117 C63.9284,15.9117 61.2294,13.2627 61.2294,9.9917 C61.2294,6.7237 63.9284,4.0737 67.2554,4.0737 C70.5844,4.0737 73.2814,6.7237 73.2814,9.9917 C73.2814,13.2627 70.5844,15.9117 67.2554,15.9117 Z M76.6884,9.4947 L76.6794,9.4947 C76.4164,4.6007 72.3034,0.7097 67.2554,0.7097 C62.0374,0.7097 57.8074,4.8657 57.8074,9.9917 C57.8074,15.1187 62.0374,19.2757 67.2554,19.2757 C69.6134,19.2757 71.7634,18.4217 73.4194,17.0197 L73.4194,19.0067 L76.6884,19.0067 L76.6884,10.3327 C76.6924,10.2187 76.7054,10.1077 76.7054,9.9917 C76.7054,9.8777 76.6924,9.7667 76.6884,9.6517 L76.6884,9.4947 Z" id="Fill-6"></path>
            <polygon id="Fill-7" points="50.958 19.007 54.245 19.007 54.245 0.978 50.958 0.978"></polygon>
            <path d="M11.6878,9.3336 C10.5768,9.3376 9.6388,10.2866 9.6468,11.4016 C9.6538,12.5026 10.5948,13.4196 11.7088,13.4126 C12.8188,13.4056 13.7438,12.4726 13.7368,11.3666 C13.7298,10.2676 12.7848,9.3296 11.6878,9.3336 M11.6798,15.4096 C9.5168,15.4676 7.6478,13.6476 7.6438,11.3996 C7.6408,9.1456 9.4408,7.3256 11.6878,7.3226 C13.9238,7.3186 15.7168,9.1286 15.7358,11.3676 C15.7548,13.6186 13.8618,15.4846 11.6798,15.4096" id="Fill-8"></path>
            <path d="M10.4452,22.8936 C10.8492,23.4026 11.2542,23.9116 11.6812,24.4486 C11.7772,24.3406 11.8442,24.2716 11.9042,24.1956 C13.8642,21.7306 15.8172,19.2586 17.7872,16.8006 C18.6982,15.6636 19.3752,14.4176 19.6662,12.9846 C19.9282,11.6946 19.8672,10.4156 19.5002,9.1446 C19.1572,7.9556 18.5822,6.8996 17.7602,5.9846 C16.4762,4.5566 14.8852,3.6746 12.9802,3.3576 C11.8202,3.1646 10.6772,3.2296 9.5522,3.5336 C8.4532,3.8306 7.4582,4.3476 6.5752,5.0716 C5.0382,6.3296 4.0792,7.9416 3.6972,9.8836 C3.4452,11.1646 3.5262,12.4356 3.9052,13.6956 C4.2032,14.6876 4.6612,15.5906 5.2952,16.3986 L10.4452,22.8936 Z M11.5592,1.2066 C14.9172,1.3316 17.6012,2.5526 19.6422,5.0926 C20.3582,5.9836 20.8952,6.9716 21.2672,8.0556 C21.7002,9.3196 21.9092,10.6166 21.8242,11.9476 C21.7032,13.8376 21.1352,15.5926 20.0302,17.1376 C19.3102,18.1456 18.5182,19.1026 17.7492,20.0746 C16.5162,21.6356 15.2772,23.1896 14.0402,24.7476 C13.6622,25.2216 13.2982,25.7076 12.9042,26.1686 C12.1872,27.0096 11.1832,27.0176 10.4772,26.1686 C9.7302,25.2696 9.0202,24.3396 8.2922,23.4236 C6.8892,21.6616 5.4912,19.8956 4.0802,18.1406 C3.2072,17.0556 2.4742,15.8876 2.0572,14.5576 C1.6372,13.2156 1.3882,11.8366 1.6152,10.4206 C1.7312,9.6936 1.8202,8.9496 2.0442,8.2526 C2.6552,6.3516 3.7522,4.7616 5.3082,3.4976 C6.3652,2.6376 7.5512,2.0206 8.8532,1.6386 C9.3402,1.4956 9.8502,1.4216 10.3532,1.3436 C10.7942,1.2736 11.2422,1.2416 11.5592,1.2066 Z" id="Fill-9"></path>
            <path d="M11.6687,3.7958 C11.0137,3.7958 10.3497,3.8858 9.6947,4.0628 C8.6807,4.3368 7.7477,4.8178 6.9217,5.4948 C5.4957,6.6638 4.5917,8.1758 4.2347,9.9898 C4.0057,11.1528 4.0717,12.3468 4.4297,13.5378 C4.7117,14.4748 5.1477,15.3238 5.7257,16.0598 L11.6927,23.5818 L13.2667,21.5998 C14.6287,19.8838 15.9897,18.1668 17.3597,16.4578 C18.2997,15.2858 18.8777,14.1148 19.1297,12.8758 C19.3697,11.6918 19.3187,10.4868 18.9737,9.2968 C18.6527,8.1808 18.1067,7.1898 17.3527,6.3508 C16.1527,5.0158 14.6517,4.1908 12.8897,3.8978 C12.4837,3.8298 12.0737,3.7958 11.6687,3.7958 Z M11.6577,25.2998 L4.8667,16.7388 C4.2017,15.8918 3.7017,14.9218 3.3807,13.8538 C2.9707,12.4888 2.8967,11.1178 3.1597,9.7778 C3.5667,7.7078 4.5997,5.9818 6.2277,4.6478 C7.1747,3.8718 8.2447,3.3198 9.4087,3.0048 C10.6187,2.6778 11.8527,2.6148 13.0697,2.8168 C15.0827,3.1518 16.7967,4.0948 18.1677,5.6188 C19.0337,6.5818 19.6587,7.7178 20.0257,8.9928 C20.4197,10.3548 20.4787,11.7348 20.2027,13.0938 C19.9157,14.5068 19.2657,15.8318 18.2147,17.1428 C16.8457,18.8508 15.4847,20.5658 14.1247,22.2798 L12.3327,24.5368 C12.2867,24.5948 12.2367,24.6498 12.1767,24.7158 L11.6577,25.2998 Z M11.5757,1.7558 L11.3117,1.7818 C11.0497,1.8068 10.7417,1.8368 10.4377,1.8838 L10.3097,1.9038 C9.8517,1.9758 9.4187,2.0428 9.0077,2.1638 C7.7707,2.5268 6.6427,3.1188 5.6537,3.9218 C4.1777,5.1218 3.1387,6.6348 2.5657,8.4208 C2.3937,8.9538 2.3077,9.5198 2.2157,10.1188 L2.1557,10.5078 C1.9727,11.6508 2.1077,12.8868 2.5807,14.3938 C2.9327,15.5198 3.5447,16.6018 4.5067,17.7968 C5.5777,19.1298 6.6417,20.4678 7.7047,21.8058 L8.7207,23.0828 C8.9607,23.3848 9.1987,23.6878 9.4367,23.9908 C9.9177,24.6048 10.3997,25.2188 10.8987,25.8198 C11.3747,26.3928 11.9977,26.3868 12.4877,25.8138 C12.7557,25.4998 13.0087,25.1758 13.2627,24.8508 L14.7057,23.0298 C15.5787,21.9328 16.4507,20.8358 17.3197,19.7358 L17.8957,19.0118 C18.4637,18.3008 19.0517,17.5648 19.5847,16.8188 C20.5907,15.4138 21.1597,13.7628 21.2777,11.9128 C21.3547,10.7168 21.1767,9.4788 20.7487,8.2328 C20.3967,7.2038 19.8807,6.2628 19.2157,5.4348 C17.3287,3.0888 14.8297,1.8838 11.5757,1.7558 Z M11.6827,27.3498 C11.0797,27.3498 10.5017,27.0548 10.0557,26.5198 C9.5517,25.9108 9.0627,25.2888 8.5747,24.6668 C8.3387,24.3658 8.1017,24.0648 7.8637,23.7648 L6.8477,22.4878 C5.7857,21.1508 4.7227,19.8138 3.6527,18.4838 C2.6037,17.1778 1.9297,15.9828 1.5357,14.7218 C1.0097,13.0458 0.8637,11.6518 1.0747,10.3338 L1.1337,9.9538 C1.2277,9.3388 1.3247,8.7018 1.5227,8.0858 C2.1617,6.0948 3.3197,4.4078 4.9627,3.0718 C6.0657,2.1758 7.3227,1.5168 8.6997,1.1128 C9.1797,0.9718 9.6687,0.8958 10.1417,0.8218 L10.2687,0.8018 C10.5957,0.7508 10.9257,0.7188 11.2077,0.6918 L11.5397,0.6578 L11.5797,0.6598 C15.1877,0.7938 17.9647,2.1308 20.0687,4.7488 C20.8137,5.6768 21.3917,6.7288 21.7847,7.8778 C22.2587,9.2608 22.4567,10.6418 22.3707,11.9818 C22.2397,14.0398 21.6017,15.8818 20.4757,17.4568 C19.9247,18.2258 19.3287,18.9728 18.7507,19.6958 L18.1797,20.4148 C17.3097,21.5148 16.4357,22.6138 15.5627,23.7108 L14.1257,25.5248 C13.8617,25.8618 13.5987,26.1988 13.3207,26.5238 C12.8667,27.0568 12.2857,27.3498 11.6827,27.3498 Z" id="Fill-10"></path>
        </g>
    </g>
</svg>