<?xml version="1.0" encoding="UTF-8" standalone="no"?>
<svg width="10px" height="10px" viewBox="0 0 10 10" version="1.1" xmlns="http://www.w3.org/2000/svg" xmlns:xlink="http://www.w3.org/1999/xlink">
    <!-- Generator: Sketch 44.1 (41455) - http://www.bohemiancoding.com/sketch -->
    <title>plus</title>
    <desc>Created with Sketch.</desc>
    <defs></defs>
    <g id="Page-1" stroke="none" stroke-width="1" fill="none" fill-rule="evenodd">
        <g id="Artboard" transform="translate(-516.000000, -45.000000)" fill-rule="nonzero" fill="#666666">
            <g id="Page-1" transform="translate(-3.000000, -1.000000)">
                <g id="Group-109" transform="translate(519.000000, 37.292000)">
                    <g id="plus" transform="translate(0.000000, 8.000000)">
                        <path d="M9.6317,5.6705 C9.6317,5.91070968 9.43663483,6.1065 9.1957,6.1065 L0.5367,6.1065 C0.296399905,6.1065 0.1017,5.91034711 0.1017,5.6705 L0.1017,5.2995 C0.1017,5.05879167 0.296265675,4.8635 0.5367,4.8635 L9.1957,4.8635 C9.43677119,4.8635 9.6317,5.05842881 9.6317,5.2995 L9.6317,5.6705 Z M4.681,10.25 C4.44079032,10.25 4.245,10.0549348 4.245,9.814 L4.245,1.155 C4.245,0.914699905 4.44115289,0.72 4.681,0.72 L5.052,0.72 C5.29270833,0.72 5.488,0.914565675 5.488,1.155 L5.488,9.814 C5.488,10.0550712 5.29307119,10.25 5.052,10.25 L4.681,10.25 Z"></path>
                    </g>
                </g>
            </g>
        </g>
    </g>
</svg>