<?xml version="1.0" encoding="UTF-8"?>
<svg width="16px" height="15px" viewBox="0 0 16 15" version="1.1" xmlns="http://www.w3.org/2000/svg" xmlns:xlink="http://www.w3.org/1999/xlink">
    <!-- Generator: Sketch 51 (57462) - http://www.bohemiancoding.com/sketch -->
    <title>remove</title>
    <desc>Created with Sketch.</desc>
    <defs></defs>
    <g id="Page-1" stroke="none" stroke-width="1" fill="none" fill-rule="evenodd">
        <g id="Artboard-2" transform="translate(-758.000000, -178.000000)">
            <g id="Group-56">
                <g id="Group-55" transform="translate(0.000000, 0.391000)">
                    <g id="remove" transform="translate(759.000000, 178.000000)">
                        <path d="M13.5892,7.4852 C13.5892,11.1212 10.6422,14.0682 7.0062,14.0682 C3.3702,14.0682 0.4222,11.1212 0.4222,7.4852 C0.4222,3.8492 3.3702,0.9022 7.0062,0.9022 C10.6422,0.9022 13.5892,3.8492 13.5892,7.4852 Z" id="Stroke-52" stroke="#000000"></path>
                        <path d="M9.6219,10.6086 C9.5589,10.6716 9.4569,10.6716 9.3939,10.6086 L4.0699,5.2856 C4.0069,5.2226 4.0069,5.1196 4.0699,5.0566 L4.2989,4.8286 C4.3619,4.7656 4.4639,4.7656 4.5269,4.8286 L9.8499,10.1526 C9.9129,10.2156 9.9129,10.3176 9.8499,10.3806 L9.6219,10.6086 Z" id="Fill-53" fill="#000000"></path>
                        <path d="M9.85,5.0571 C9.913,5.1201 9.913,5.2221 9.85,5.2851 L4.527,10.6091 C4.464,10.6721 4.361,10.6721 4.298,10.6091 L4.07,10.3801 C4.007,10.3171 4.007,10.2151 4.07,10.1521 L9.394,4.8291 C9.457,4.7661 9.559,4.7661 9.622,4.8291 L9.85,5.0571 Z" id="Fill-54" fill="#000000"></path>
                    </g>
                </g>
            </g>
        </g>
    </g>
</svg>