<?xml version="1.0" encoding="utf-8"?>
<!-- Generator: Adobe Illustrator 22.1.0, SVG Export Plug-In . SVG Version: 6.00 Build 0)  -->
<svg version="1.1" id="Layer_1" xmlns="http://www.w3.org/2000/svg" xmlns:xlink="http://www.w3.org/1999/xlink" x="0px" y="0px"
	 viewBox="0 0 16 15" style="enable-background:new 0 0 16 15;" xml:space="preserve">
<style type="text/css">
	.st0{fill:none;stroke:#3E7AAB;}
	.st1{fill:#3E7AAB;}
</style>
<title>remove</title>
<desc>Created with Sketch.</desc>
<g id="Page-1">
	<g id="Artboard-2" transform="translate(-758.000000, -178.000000)">
		<g id="Group-56">
			<g id="Group-55" transform="translate(0.000000, 0.391000)">
				<g id="remove" transform="translate(759.000000, 178.000000)">
					<path id="Stroke-52" class="st0" d="M13.6,7.5c0,3.6-2.9,6.6-6.6,6.6s-6.6-2.9-6.6-6.6S3.4,0.9,7,0.9S13.6,3.8,13.6,7.5z"/>
					<path id="Fill-54" class="st1" d="M10.9,7.9C10.9,8,10.8,8,10.7,8L3.2,8C3.1,8,3,8,3,7.9l0-0.3c0-0.1,0.1-0.2,0.2-0.2l7.5,0
						c0.1,0,0.2,0.1,0.2,0.2L10.9,7.9z"/>
				</g>
			</g>
		</g>
	</g>
</g>
</svg>
