<?xml version="1.0" encoding="UTF-8"?>
<svg width="14px" height="15px" viewBox="0 0 14 15" version="1.1" xmlns="http://www.w3.org/2000/svg" xmlns:xlink="http://www.w3.org/1999/xlink">
    <!-- Generator: Sketch 50.2 (55047) - http://www.bohemiancoding.com/sketch -->
    <title>search</title>
    <desc>Created with Sketch.</desc>
    <defs></defs>
    <g id="Page-1" stroke="none" stroke-width="1" fill="none" fill-rule="evenodd">
        <g id="6.28-237PM-create_schedule" transform="translate(-205.000000, -62.000000)" fill="#B3B3B3">
            <g id="Group-8" transform="translate(200.000000, 57.333000)">
                <path d="M7.2834,10.4097 C7.2834,8.1837 9.0874,6.3787 11.3134,6.3787 C13.5394,6.3787 15.3444,8.1837 15.3444,10.4097 C15.3444,12.6357 13.5394,14.4407 11.3134,14.4407 C9.0874,14.4407 7.2834,12.6357 7.2834,10.4097 M18.2434,16.7177 L15.6614,13.5277 C16.2924,12.6487 16.6684,11.5747 16.6684,10.4097 C16.6684,7.4527 14.2714,5.0547 11.3134,5.0547 C8.3564,5.0547 5.9594,7.4527 5.9594,10.4097 C5.9594,13.3667 8.3564,15.7647 11.3134,15.7647 C12.1954,15.7647 13.0254,15.5477 13.7594,15.1697 L16.3024,18.3107 C16.7424,18.8467 17.5344,18.9247 18.0704,18.4847 C18.6064,18.0447 18.6834,17.2537 18.2434,16.7177" id="search"></path>
            </g>
        </g>
    </g>
</svg>