<?xml version="1.0" encoding="utf-8"?><svg id="spinner" image-rendering="auto" baseProfile="basic" version="1.1" x="0px" y="0px" width="50" height="70" xmlns="http://www.w3.org/2000/svg" xmlns:xlink="http://www.w3.org/1999/xlink"><g id="Scene-1" overflow="visible"><path fill="#3E7AAB" stroke="none" d="M42.1 41.1Q49.4 34.15 49.4 23.8 49.4 13.4 42.35 6.45 35.2 -.2 25 0 15.25 -.2 8.35 6.35 1.25 12.8 .6 22.4L.6 70 8.95 70 8.95 42.1Q16.05 48 25 47.55 35.2 47.8 42.1 41.1M23.4 9.35L25 9.35Q31.1 9.15 35.6 13.2 40.3 17.25 40.5 23.35 40.85 29.45 36.65 33.95 32.5 38.65 26.4 39.1L25 39.1Q18.7 39.45 14.2 35.2 9.8 31.1 9.4 25 9.15 18.75 13.25 14.25 17.3 9.75 23.4 9.35Z"/><g id="hand3" transform="translate(25.05 24.5)"><animateTransform attributeName="transform" additive="replace" type="translate" repeatCount="indefinite" dur="12.5s" keyTimes="0;1" values="25.05,23;25.05,23"/><animateTransform attributeName="transform" additive="sum" type="rotate" repeatCount="indefinite" dur="12.5s" keyTimes="0;.497;.997;1" values="0,0,0;540,0,0;1080,0,0;1080,0,0"/><animateTransform attributeName="transform" additive="sum" type="translate" repeatCount="indefinite" dur="12.5s" keyTimes="0;1" values="0,1.5;0,1.5"/><path fill="#3E7AAB" stroke="none" d="M1.35 -11.9L-1.35 -11.9 -1.35 0 1.35 0 1.35 -11.9Z"/></g><g id="hand2" transform="translate(25 22)"><animateTransform attributeName="transform" additive="replace" type="translate" repeatCount="indefinite" dur="12.5s" keyTimes="0;1" values="25.05,23;25.05,23"/><animateTransform attributeName="transform" additive="sum" type="rotate" repeatCount="indefinite" dur="12.5s" keyTimes="0;.047;.1;.147;.2;.247;.3;.347;.4;.447;.5;.547;.6;.647;.7;.747;.8;.847;.9;.947;.997;1" values="0,0,0;540,0,0;1080,0,0;1620,0,0;2160,0,0;2700,0,0;3240,0,0;3780,0,0;4320,0,0;4860,0,0;5400,0,0;5940,0,0;6480,0,0;7020,0,0;7560,0,0;8100,0,0;8640,0,0;9180,0,0;9720,0,0;10260,0,0;10800,0,0;10800,0,0"/><animateTransform attributeName="transform" additive="sum" type="translate" repeatCount="indefinite" dur="12.5s" keyTimes="0;1" values="-.05,-1;-.05,-1"/><path fill="#3E7AAB" stroke="none" d="M.55 -.95L.55 -10.65 -.55 -10.65 -.55 -.95 .55 -.95Z"/></g></g></svg>