<?xml version="1.0" encoding="UTF-8"?>
<svg width="9px" height="10px" viewBox="0 0 9 10" version="1.1" xmlns="http://www.w3.org/2000/svg" xmlns:xlink="http://www.w3.org/1999/xlink">
    <!-- Generator: Sketch 50.2 (55047) - http://www.bohemiancoding.com/sketch -->
    <title>trash</title>
    <desc>Created with Sketch.</desc>
    <defs>
        <polygon id="path-1" points="0.982255524 0.288 9.16562057 0.288 9.16562057 2.51252672 0.982255524 2.51252672"></polygon>
    </defs>
    <g id="Page-1" stroke="none" stroke-width="1" fill="none" fill-rule="evenodd">
        <g id="Artboard" transform="translate(-370.000000, -75.000000)">
            <g id="trash" transform="translate(369.000000, 74.000000)">
                <path d="M6.9411,6.96119 L6.9411,5.21219 C6.9411,4.70919 6.9411,4.71819 6.4301,4.70619 C6.2331,4.70119 6.1811,4.76719 6.1821,4.95819 C6.1891,6.19719 6.1851,7.43719 6.1851,8.67619 C6.1851,9.20819 6.1851,9.20119 6.7171,9.20619 C6.9001,9.20819 6.9451,9.14019 6.9441,8.97119 C6.9371,8.30119 6.9411,7.63119 6.9411,6.96119 M3.2121,6.93819 L3.2121,8.72619 C3.2121,9.20219 3.2121,9.20219 3.6901,9.20219 C3.9601,9.20219 3.9601,9.20219 3.9601,8.92019 C3.9611,7.69519 3.9601,6.46919 3.9601,5.24419 C3.9601,4.70319 3.9601,4.71019 3.4231,4.70719 C3.2501,4.70619 3.2081,4.76819 3.2091,4.92919 C3.2161,5.59819 3.2121,6.26819 3.2121,6.93819 M4.6861,6.93919 C4.6861,7.62219 4.6891,8.30519 4.6841,8.98819 C4.6841,9.13719 4.7291,9.21519 4.8911,9.20419 C5.0181,9.19519 5.1461,9.19719 5.2731,9.20419 C5.4111,9.21119 5.4641,9.15419 5.4631,9.01519 C5.4611,7.63619 5.4611,6.25719 5.4631,4.87819 C5.4631,4.75919 5.4231,4.70519 5.3001,4.71019 C5.1671,4.71519 5.0321,4.71919 4.8991,4.70819 C4.7271,4.69419 4.6821,4.76919 4.6831,4.93019 C4.6901,5.60019 4.6861,6.26919 4.6861,6.93919 M5.0851,3.62019 C6.1041,3.62019 7.1241,3.61919 8.1431,3.62019 C8.4091,3.62019 8.4161,3.62719 8.4161,3.88919 C8.4161,5.74019 8.4081,7.59119 8.4201,9.44219 C8.4251,10.26019 7.8321,10.68119 7.1921,10.67219 C5.7641,10.65119 4.3351,10.66719 2.9071,10.66419 C2.3781,10.66319 1.9871,10.41019 1.8121,9.94119 C1.7591,9.80119 1.7441,9.64019 1.7431,9.48819 C1.7391,7.61019 1.7431,5.73219 1.7371,3.85419 C1.7371,3.66319 1.8081,3.61619 1.9861,3.61719 C3.0191,3.62319 4.0521,3.62019 5.0851,3.62019" id="Fill-1" fill="#999999"></path>
                <g id="Group-5" transform="translate(0.000000, 0.711990)">
                    <mask id="mask-2" fill="white">
                        <use xlink:href="#path-1"></use>
                    </mask>
                    <g id="Clip-4"></g>
                    <path d="M5.0864,1.4145 C5.3944,1.4145 5.7014,1.4175 6.0094,1.4115 C6.0674,1.4105 6.1664,1.3795 6.1734,1.3465 C6.1874,1.2845 6.1694,1.1875 6.1254,1.1475 C6.0614,1.0895 5.9634,1.0385 5.8794,1.0365 C5.3454,1.0265 4.8094,1.0285 4.2744,1.0335 C4.2054,1.0345 4.1134,1.0565 4.0734,1.1045 C4.0184,1.1685 4.0034,1.2665 3.9704,1.3495 C4.0344,1.3715 4.0984,1.4105 4.1634,1.4125 C4.4714,1.4185 4.7784,1.4145 5.0864,1.4145 M5.0904,2.5105 C3.8104,2.5105 2.5304,2.5105 1.2504,2.5105 C0.9954,2.5105 0.9874,2.5015 0.9884,2.2535 C0.9884,2.1865 0.9954,2.1195 0.9874,2.0535 C0.9644,1.8725 1.0144,1.7725 1.2214,1.7825 C1.2724,1.7855 1.3474,1.7205 1.3764,1.6675 C1.4754,1.4915 1.6094,1.4075 1.8154,1.4125 C2.2174,1.4215 2.6194,1.4125 3.0224,1.4165 C3.1474,1.4175 3.2114,1.3965 3.2234,1.2455 C3.2744,0.6285 3.6494,0.2925 4.2674,0.2915 C4.7964,0.2915 5.3264,0.3035 5.8554,0.2885 C6.4564,0.2715 6.9204,0.6545 6.9294,1.2515 C6.9314,1.3905 7.0064,1.4165 7.1234,1.4155 C7.5254,1.4135 7.9284,1.4215 8.3294,1.4125 C8.5424,1.4075 8.6844,1.4795 8.7794,1.6765 C8.8064,1.7345 8.9094,1.7795 8.9824,1.7855 C9.1194,1.7955 9.1694,1.8475 9.1654,1.9845 C9.1514,2.5925 9.2514,2.5075 8.6484,2.5095 C7.4624,2.5135 6.2764,2.5105 5.0904,2.5105" id="Fill-3" fill="#999999" mask="url(#mask-2)"></path>
                </g>
            </g>
        </g>
    </g>
</svg>