<?xml version="1.0" encoding="UTF-8" standalone="no"?>
<svg width="9px" height="11px" viewBox="0 0 9 11" version="1.1" xmlns="http://www.w3.org/2000/svg" xmlns:xlink="http://www.w3.org/1999/xlink">
    <!-- Generator: Sketch 44.1 (41455) - http://www.bohemiancoding.com/sketch -->
    <title>upload</title>
    <desc>Created with Sketch.</desc>
    <defs></defs>
    <g id="Page-1" stroke="none" stroke-width="1" fill="none" fill-rule="evenodd">
        <g id="Artboard-2" transform="translate(-510.000000, -98.000000)" fill="#3E7AAB">
            <g id="Page-1" transform="translate(-3.000000, 0.000000)">
                <g id="upload" transform="translate(513.000000, 98.071000)">
                    <path d="M4.4882,10.3678 C5.7052,10.3678 6.9222,10.3678 8.1382,10.3678 C8.5622,10.3678 8.7202,10.2118 8.7202,9.7848 C8.7222,9.0588 8.7212,8.3338 8.7202,7.6078 C8.7202,7.5418 8.7222,7.4748 8.7112,7.4108 C8.6692,7.1748 8.4902,7.0198 8.2742,7.0278 C8.0742,7.0358 7.9022,7.2018 7.8692,7.4248 C7.8602,7.4898 7.8632,7.5568 7.8632,7.6218 C7.8622,8.1798 7.8592,8.7368 7.8642,9.2938 C7.8662,9.4388 7.8242,9.5038 7.6652,9.5038 C5.5622,9.5008 3.4582,9.5008 1.3552,9.5038 C1.1962,9.5038 1.1542,9.4378 1.1562,9.2928 C1.1612,8.8308 1.1582,8.3698 1.1582,7.9078 C1.1572,7.7608 1.1642,7.6138 1.1542,7.4678 C1.1362,7.2168 0.9632,7.0358 0.7462,7.0278 C0.5122,7.0198 0.3332,7.1918 0.3032,7.4548 C0.2992,7.4978 0.3002,7.5428 0.3002,7.5868 C0.2992,8.3268 0.2982,9.0668 0.3002,9.8078 C0.3012,10.2048 0.4652,10.3678 0.8602,10.3678 C2.0692,10.3678 3.2792,10.3678 4.4882,10.3678" id="Fill-167"></path>
                    <path d="M4.0039,2.2297 C4.0249,2.2407 4.0459,2.2517 4.0669,2.2627 C4.0709,2.3457 4.0799,2.4287 4.0799,2.5127 C4.0799,3.8607 4.0799,5.2097 4.0799,6.5587 C4.0799,6.6317 4.0759,6.7057 4.0869,6.7777 C4.1189,6.9987 4.3209,7.1747 4.5239,7.1667 C4.7289,7.1587 4.9189,6.9717 4.9389,6.7517 C4.9449,6.6797 4.9419,6.6057 4.9419,6.5327 C4.9419,5.1907 4.9409,3.8497 4.9419,2.5077 C4.9419,2.4257 4.9509,2.3427 4.9599,2.2027 C5.0709,2.3077 5.1399,2.3687 5.2049,2.4337 C5.4679,2.6987 5.7279,2.9667 5.9919,3.2307 C6.2019,3.4387 6.4419,3.4497 6.6339,3.2677 C6.7969,3.1137 6.7889,2.8207 6.6059,2.6347 C6.0299,2.0497 5.4529,1.4677 4.8709,0.8897 C4.6209,0.6407 4.3989,0.6417 4.1479,0.8917 C3.5669,1.4707 2.9899,2.0537 2.4139,2.6377 C2.2379,2.8167 2.2239,3.0977 2.3739,3.2547 C2.5559,3.4457 2.8059,3.4427 3.0169,3.2437 C3.1179,3.1487 3.2129,3.0477 3.3099,2.9477 C3.5419,2.7087 3.7729,2.4687 4.0039,2.2297" id="Fill-169"></path>
                </g>
            </g>
        </g>
    </g>
</svg>