<?xml version="1.0" encoding="UTF-8"?>
<svg width="22px" height="20px" viewBox="0 0 22 20" version="1.1" xmlns="http://www.w3.org/2000/svg" xmlns:xlink="http://www.w3.org/1999/xlink">
    <!-- Generator: Sketch 51 (57462) - http://www.bohemiancoding.com/sketch -->
    <title>warning</title>
    <desc>Created with Sketch.</desc>
    <defs></defs>
    <g id="Page-1" stroke="none" stroke-width="1" fill="none" fill-rule="evenodd">
        <g id="Artboard-2" transform="translate(-615.000000, -615.000000)" fill="#808080">
            <g id="Group-193" transform="translate(202.000000, -489.000000)">
                <g id="Group-192" transform="translate(0.000000, 0.500000)">
                    <path d="M424.5825,1120.8876 C425.4245,1120.8866 426.0265,1120.2926 426.0245,1119.4666 C426.0215,1118.6636 425.3815,1118.0286 424.5765,1118.0306 C423.7345,1118.0326 423.1205,1118.6466 423.1175,1119.4896 C423.1155,1120.3006 423.7315,1120.8886 424.5825,1120.8876 Z M423.1435,1110.3246 C423.2295,1111.7026 423.2965,1113.0826 423.4105,1114.4586 C423.4635,1115.0976 423.5795,1115.7366 423.7235,1116.3626 C423.8115,1116.7406 424.1375,1116.9076 424.5245,1116.9066 C424.9095,1116.9066 425.2065,1116.7406 425.3405,1116.3716 C425.4415,1116.0926 425.5385,1115.8026 425.5675,1115.5116 C425.7165,1114.0146 425.8695,1112.5166 425.9665,1111.0156 C426.0125,1110.3016 425.9845,1109.5746 425.8995,1108.8636 C425.8155,1108.1656 425.4125,1107.8406 424.7665,1107.7856 C424.1135,1107.7306 423.4655,1108.0506 423.2975,1108.6376 C423.1445,1109.1746 423.1165,1110.3216 423.1435,1110.3246 Z M424.4305,1123.1426 C421.6885,1123.1426 418.9465,1123.1136 416.2055,1123.1536 C414.6145,1123.1766 413.4675,1121.6806 414.0075,1120.1396 C414.1085,1119.8506 414.2765,1119.5816 414.4295,1119.3126 C416.1925,1116.2056 417.9585,1113.0996 419.7225,1109.9936 C420.6325,1108.3926 421.5355,1106.7866 422.4495,1105.1876 C423.3465,1103.6196 425.4935,1103.6036 426.3965,1105.1706 C427.7505,1107.5236 429.0775,1109.8906 430.4175,1112.2516 C431.8185,1114.7196 433.2145,1117.1916 434.6245,1119.6556 C435.2945,1120.8256 435.0025,1122.1986 433.8635,1122.8336 C433.5125,1123.0286 433.0615,1123.1236 432.6555,1123.1276 C429.9135,1123.1526 427.1725,1123.1406 424.4305,1123.1406 L424.4305,1123.1426 Z" id="warning"></path>
                </g>
            </g>
        </g>
    </g>
</svg>