<?xml version="1.0" encoding="UTF-8"?>
<svg width="19px" height="19px" viewBox="0 0 19 19" version="1.1" xmlns="http://www.w3.org/2000/svg" xmlns:xlink="http://www.w3.org/1999/xlink">
    <!-- Generator: Sketch 50.2 (55047) - http://www.bohemiancoding.com/sketch -->
    <title>x</title>
    <desc>Created with Sketch.</desc>
    <defs></defs>
    <g id="Page-1" stroke="none" stroke-width="1" fill="none" fill-rule="evenodd">
        <g id="6.28-237PM-create_schedule" transform="translate(-985.000000, -17.000000)" fill="#717274">
            <g id="x" transform="translate(985.000000, 17.333000)">
                <path d="M17.6533,17.8151 C17.4653,18.0031 17.1593,18.0031 16.9713,17.8151 L1.0583,1.9021 C0.8703,1.7141 0.8703,1.4091 1.0583,1.2201 L1.7403,0.5381 C1.9293,0.3501 2.2343,0.3501 2.4223,0.5381 L18.3353,16.4511 C18.5233,16.6391 18.5233,16.9451 18.3353,17.1331 L17.6533,17.8151 Z" id="Fill-38"></path>
                <path d="M18.3353,1.2204 C18.5233,1.4084 18.5233,1.7144 18.3353,1.9024 L2.4223,17.8154 C2.2343,18.0034 1.9293,18.0034 1.7403,17.8154 L1.0583,17.1334 C0.8703,16.9444 0.8703,16.6394 1.0583,16.4514 L16.9713,0.5384 C17.1593,0.3504 17.4653,0.3504 17.6533,0.5384 L18.3353,1.2204 Z" id="Fill-40"></path>
            </g>
        </g>
    </g>
</svg>