<?xml version="1.0" encoding="utf-8"?>
<!-- Generator: Adobe Illustrator 19.2.1, SVG Export Plug-In . SVG Version: 6.00 Build 0)  -->
<svg version="1.1" id="Layer_1" xmlns="http://www.w3.org/2000/svg" xmlns:xlink="http://www.w3.org/1999/xlink" x="0px" y="0px"
	 viewBox="0 0 46.513 103.768" style="enable-background:new 0 0 46.513 103.768;" xml:space="preserve">
<style type="text/css">
	.st0{fill:#BBBBBB;}
	.st1{fill:#EAEFF4;}
</style>
<g>
	<path class="st0" d="M15.095,58.19c-4.032,2.474-7.635,4.688-11.242,6.895c-0.832,0.509-1.617,1.305-2.719,0.691
		c-1.157-0.644-1.049-1.779-1.047-2.868c0.017-8.583-0.272-17.18,0.119-25.745c0.516-11.327,0.186-22.648,0.299-33.97
		c0.023-2.345,0.652-3.279,3.119-3.186c7.9,0.295,15.805,0.439,23.71,0.585c2.032,0.037,2.848,0.95,2.748,2.941
		c-0.378,7.472-0.627,14.953-1.123,22.417c-0.142,2.136,0.434,1.919,1.96,1.309c3.938-1.575,7.934-3.009,11.913-4.481
		c1.005-0.372,2.024-0.856,3.055-0.008c1.181,0.972,0.399,2.031,0.058,2.964c-7.133,19.539-14.303,39.064-21.464,58.592
		c-2.12,5.78-4.24,11.56-6.345,17.346c-0.375,1.029-0.643,2.243-2.053,2.082c-1.556-0.178-1.572-1.44-1.555-2.668
		c0.196-13.654,0.382-27.309,0.569-40.963C15.101,59.629,15.095,59.136,15.095,58.19z"/>
	<path class="st1" d="M18.023,91.111c0.251-5.623,0.046-10.658,0.347-15.72c0.395-6.644,0.225-13.324,0.193-19.988
		c-0.01-2.064-1.139-2.635-2.986-1.553c-3.086,1.808-6.09,3.755-9.133,5.636c-0.827,0.511-1.565,1.238-2.867,1.196
		c0-0.848-0.001-1.659,0-2.469c0.015-9.831-0.109-19.665,0.092-29.492C3.829,20.9,4.108,13.082,4.008,5.259
		C3.991,3.904,4.253,3.442,5.785,3.491c6.318,0.203,12.644,0.066,18.959,0.544c1.414,0.107,1.909,0.566,1.822,1.946
		c-0.478,7.542-0.841,15.093-1.406,22.629c-0.242,3.227,0.816,4.159,3.894,3c3.659-1.377,7.329-2.724,11.001-4.064
		c0.429-0.156,0.985-0.579,1.319,0.006c0.156,0.273-0.021,0.797-0.156,1.167C33.694,49.26,26.159,69.797,18.622,90.333
		C18.595,90.406,18.525,90.462,18.023,91.111z"/>
</g>
</svg>
