<?xml version="1.0" encoding="utf-8"?>
<!-- Generator: Adobe Illustrator 19.1.0, SVG Export Plug-In . SVG Version: 6.00 Build 0)  -->
<svg version="1.1" id="Layer_1" xmlns="http://www.w3.org/2000/svg" xmlns:xlink="http://www.w3.org/1999/xlink" x="0px" y="0px"
	 viewBox="-289 381 32 32" style="enable-background:new -289 381 32 32;" xml:space="preserve">
<style type="text/css">
	.st0{fill:#999999;}
</style>
<path class="st0" d="M-258.2,384.7c0.3,0,0.6,0.1,0.9,0.4c0.2,0.2,0.4,0.5,0.4,0.9v20.9c0,0.3-0.1,0.6-0.4,0.9s-0.5,0.4-0.9,0.4
	c-0.3,0-0.6-0.1-0.9-0.4s-0.4-0.5-0.4-0.9v-20.9c0-0.3,0.1-0.6,0.4-0.9C-258.9,384.8-258.6,384.7-258.2,384.7z M-261.9,406.8
	l-16.6-4.9h-0.9l1.2,6.8c0,0.3,0,0.4-0.1,0.5c-0.1,0.1-0.4,0.1-0.7,0.1h-2.2c-0.3,0-0.6-0.1-0.8-0.3c-0.2-0.2-0.4-0.5-0.5-0.9
	c-0.9-5.5-1.4-8.4-1.4-8.6v-6.3c0-0.3,0-0.5,0-0.6c0-0.1,0.1-0.2,0.2-0.3c0.1-0.1,0.2-0.2,0.4-0.2h4.9l16.6-6.2L-261.9,406.8
	L-261.9,406.8z M-286.5,393.3v6.2c-0.1,0-0.2,0-0.3,0c-0.1,0-0.3-0.1-0.6-0.1c-0.3-0.1-0.5-0.2-0.7-0.4c-0.2-0.2-0.4-0.4-0.6-0.7
	s-0.3-0.7-0.3-1.2v-1.2c0-0.4,0.1-0.8,0.3-1.1s0.4-0.6,0.6-0.7c0.2-0.2,0.5-0.3,0.7-0.4s0.4-0.2,0.6-0.2L-286.5,393.3z"/>
</svg>
