<?xml version="1.0" encoding="utf-8"?>
<!-- Generated by IcoMoon.io -->
<!DOCTYPE svg PUBLIC "-//W3C//DTD SVG 1.1//EN" "http://www.w3.org/Graphics/SVG/1.1/DTD/svg11.dtd">
<svg version="1.1" xmlns="http://www.w3.org/2000/svg" xmlns:xlink="http://www.w3.org/1999/xlink" width="32" height="32" viewBox="0 0 32 32">
<path d="M24 0h2.667q0.56 0 0.947 0.387t0.387 0.947v1.333h1.333q0.56 0 0.947 0.387t0.387 0.947v4h-29.333v-4q0-0.56 0.387-0.947t0.947-0.387h1.333v-1.333q0-0.56 0.387-0.947t0.947-0.387h2.667q0.56 0 0.947 0.387t0.387 0.947v1.333h13.333v-1.333q0-0.56 0.387-0.947t0.947-0.387zM30.667 10.667v20q0 0.56-0.387 0.947t-0.947 0.387h-26.667q-0.56 0-0.947-0.387t-0.387-0.947v-20h29.333zM4 16v2.667h2.667v-2.667h-2.667zM9.333 16v2.667h2.667v-2.667h-2.667zM14.667 16v2.667h2.667v-2.667h-2.667zM20 16v2.667h2.667v-2.667h-2.667zM25.333 16v2.667h2.667v-2.667h-2.667zM4 21.333v2.667h2.667v-2.667h-2.667zM9.333 21.333v2.667h2.667v-2.667h-2.667zM14.667 21.333v2.667h2.667v-2.667h-2.667zM20 21.333v2.667h2.667v-2.667h-2.667zM25.333 21.333v2.667h2.667v-2.667h-2.667zM4 26.667v2.667h2.667v-2.667h-2.667zM9.333 26.667v2.667h2.667v-2.667h-2.667zM14.667 26.667v2.667h2.667v-2.667h-2.667zM20 26.667v2.667h2.667v-2.667h-2.667zM25.333 26.667v2.667h2.667v-2.667h-2.667z"></path>
</svg>
