<?xml version="1.0" encoding="utf-8"?>
<!-- Generator: Adobe Illustrator 19.1.0, SVG Export Plug-In . SVG Version: 6.00 Build 0)  -->
<svg version="1.1" id="Layer_1" xmlns="http://www.w3.org/2000/svg" xmlns:xlink="http://www.w3.org/1999/xlink" x="0px" y="0px"
	 viewBox="-289 381 32 32" style="enable-background:new -289 381 32 32;" xml:space="preserve">
<style type="text/css">
	.st0{fill:#C5D7E6;}
</style>
<path class="st0" d="M-265,381h2.7c0.4,0,0.7,0.1,0.9,0.4c0.3,0.3,0.4,0.6,0.4,0.9v1.3h1.3c0.4,0,0.7,0.1,0.9,0.4
	c0.3,0.3,0.4,0.6,0.4,0.9v4h-29.3v-4c0-0.4,0.1-0.7,0.4-0.9c0.3-0.3,0.6-0.4,0.9-0.4h1.3v-1.3c0-0.4,0.1-0.7,0.4-0.9
	s0.6-0.4,0.9-0.4h2.7c0.4,0,0.7,0.1,0.9,0.4c0.3,0.3,0.4,0.6,0.4,0.9v1.3h13.3v-1.3c0-0.4,0.1-0.7,0.4-0.9S-265.4,381-265,381
	L-265,381z M-258.3,391.7v20c0,0.4-0.1,0.7-0.4,0.9c-0.3,0.3-0.6,0.4-0.9,0.4h-26.7c-0.4,0-0.7-0.1-0.9-0.4
	c-0.3-0.3-0.4-0.6-0.4-0.9v-20H-258.3L-258.3,391.7z M-285,397v2.7h2.7V397C-282.3,397-285,397-285,397z M-279.7,397v2.7h2.7V397
	H-279.7z M-274.3,397v2.7h2.7V397H-274.3z M-269,397v2.7h2.7V397H-269z M-263.7,397v2.7h2.7V397H-263.7z M-285,402.3v2.7h2.7v-2.7
	C-282.3,402.3-285,402.3-285,402.3z M-279.7,402.3v2.7h2.7v-2.7H-279.7z M-274.3,402.3v2.7h2.7v-2.7H-274.3z M-269,402.3v2.7h2.7
	v-2.7H-269z M-263.7,402.3v2.7h2.7v-2.7H-263.7z M-285,407.7v2.7h2.7v-2.7C-282.3,407.7-285,407.7-285,407.7z M-279.7,407.7v2.7h2.7
	v-2.7H-279.7z M-274.3,407.7v2.7h2.7v-2.7H-274.3z M-269,407.7v2.7h2.7v-2.7H-269z M-263.7,407.7v2.7h2.7v-2.7H-263.7z"/>
</svg>
