<?xml version="1.0" encoding="utf-8"?>
<!-- Generated by IcoMoon.io -->
<!DOCTYPE svg PUBLIC "-//W3C//DTD SVG 1.1//EN" "http://www.w3.org/Graphics/SVG/1.1/DTD/svg11.dtd">
<svg version="1.1" xmlns="http://www.w3.org/2000/svg" xmlns:xlink="http://www.w3.org/1999/xlink" width="32" height="32" viewBox="0 0 32 32">
<path d="M13.333 0h5.333q0.56 0 0.947 0.387t0.387 0.947v12h5.093q0.533 0 0.68 0.307t-0.2 0.733l-8.72 10.667q-0.347 0.427-0.853 0.427t-0.853-0.427l-8.72-10.667q-0.347-0.427-0.2-0.733t0.68-0.307h5.093v-12q0-0.56 0.387-0.947t0.947-0.387zM28.667 21.333h1.333q0.267 0 0.467 0.2t0.2 0.467v9.333q0 0.267-0.2 0.467t-0.467 0.2h-28q-0.267 0-0.467-0.2t-0.2-0.467v-9.333q0-0.267 0.2-0.467t0.467-0.2h1.333q0.267 0 0.467 0.2t0.2 0.467v4.667h24v-4.667q0-0.267 0.2-0.467t0.467-0.2z"></path>
</svg>
