<?xml version="1.0" encoding="utf-8"?>
<!-- Generator: Adobe Illustrator 19.1.0, SVG Export Plug-In . SVG Version: 6.00 Build 0)  -->
<svg version="1.1" id="Layer_1" xmlns="http://www.w3.org/2000/svg" xmlns:xlink="http://www.w3.org/1999/xlink" x="0px" y="0px"
	 viewBox="-289 381 32 32" style="enable-background:new -289 381 32 32;" xml:space="preserve">
<style type="text/css">
	.st0{fill:#999999;}
</style>
<path class="st0" d="M-278.3,381l16,0.1c0.4,0,0.7,0.2,0.9,0.4s0.4,0.6,0.4,0.9l0,15.9c0,0.4-0.1,0.6-0.3,0.7s-0.4,0-0.7-0.3
	l-5.5-5.5l-4.1,4.1l-5.7-5.7l4.1-4.1l-5.6-5.6c-0.2-0.2-0.3-0.5-0.3-0.7S-278.7,381-278.3,381z M-273.7,399.3l-2,2.1
	c-0.3,0.2-0.6,0.4-1,0.4c-0.4,0-0.7-0.1-0.9-0.4l-3.8-3.8c-0.2-0.2-0.4-0.6-0.4-0.9c0-0.4,0.1-0.7,0.4-0.9l2.1-2.1L-273.7,399.3z
	 M-286.3,405h26.7c0.4,0,0.7,0.1,0.9,0.4s0.4,0.6,0.4,0.9v6.7h-29.3v-6.7c0-0.4,0.1-0.7,0.4-0.9C-287,405.1-286.7,405-286.3,405
	L-286.3,405z M-263.7,407.7v1.3h2.7v-1.3H-263.7z"/>
</svg>
