<?xml version="1.0" encoding="utf-8"?>
<!-- Generated by IcoMoon.io -->
<!DOCTYPE svg PUBLIC "-//W3C//DTD SVG 1.1//EN" "http://www.w3.org/Graphics/SVG/1.1/DTD/svg11.dtd">
<svg version="1.1" xmlns="http://www.w3.org/2000/svg" xmlns:xlink="http://www.w3.org/1999/xlink" width="32" height="32" viewBox="0 0 32 32">
<path d="M16 3.572q2.063 0 4.038 0.566t3.522 1.484 2.931 2.075 2.377 2.39 1.711 2.39 1.069 2.075 0.352 1.447-0.352 1.447-1.082 2.075-1.723 2.39-2.377 2.39-2.931 2.075-3.522 1.484-4.013 0.566-4.013-0.566-3.522-1.484-2.931-2.075-2.377-2.39-1.723-2.39-1.082-2.075-0.352-1.447 0.352-1.447 1.069-2.075 1.711-2.39 2.377-2.39 2.931-2.075 3.522-1.484 4.038-0.566zM23.245 10.239q-0.377-0.377-0.453-0.302t0.126 0.553q0.629 1.434 0.629 2.994 0 3.119-2.214 5.333t-5.333 2.214-5.333-2.214-2.214-5.333q0-1.484 0.579-2.868 0.201-0.478 0.113-0.553t-0.44 0.302q-1.761 1.736-4.025 4.629-0.327 0.402-0.377 1.019t0.226 1.069q0.553 0.906 1.182 1.786t1.761 2.063 2.327 2.038 2.843 1.472 3.358 0.616 3.358-0.604 2.843-1.472 2.327-2.050 1.761-2.050 1.182-1.774q0.277-0.453 0.226-1.069t-0.352-1.044q-2.264-2.943-4.101-4.755zM12.176 12.805l-0.88 0.906q-0.377 0.377-0.491 0.969t0.113 1.044q0.931 1.711 2.34 2.918 0.402 0.327 0.969 0.277t0.918-0.428l0.881-0.855q0.352-0.377 0.314-0.843t-0.415-0.843q-1.107-1.107-2.239-2.943-0.277-0.453-0.704-0.503t-0.805 0.302z"></path>
</svg>
