<?xml version="1.0" encoding="utf-8"?>
<!-- Generator: Adobe Illustrator 19.1.0, SVG Export Plug-In . SVG Version: 6.00 Build 0)  -->
<svg version="1.1" id="Layer_1" xmlns="http://www.w3.org/2000/svg" xmlns:xlink="http://www.w3.org/1999/xlink" x="0px" y="0px"
	 viewBox="-289 381 32 32" style="enable-background:new -289 381 32 32;" xml:space="preserve">
<style type="text/css">
	.st0{fill:#999999;}
</style>
<path class="st0" d="M-271.7,381v10.7c0,0.7,0.3,1.4,0.8,1.9s1.2,0.8,1.9,0.8h8v17.3c0,0.4-0.1,0.7-0.4,0.9
	c-0.3,0.3-0.6,0.4-0.9,0.4h-21.3c-0.4,0-0.7-0.1-0.9-0.4c-0.3-0.3-0.4-0.6-0.4-0.9v-29.3c0-0.4,0.1-0.7,0.4-0.9
	c0.3-0.3,0.6-0.4,0.9-0.4C-283.7,381-271.7,381-271.7,381z M-261,391.7h-6.7c-0.4,0-0.7-0.1-0.9-0.4c-0.3-0.3-0.4-0.6-0.4-0.9v-6.7
	L-261,391.7z"/>
</svg>
