<?xml version="1.0" encoding="utf-8"?>
<!-- Generator: Adobe Illustrator 19.1.0, SVG Export Plug-In . SVG Version: 6.00 Build 0)  -->
<svg version="1.1" id="Layer_1" xmlns="http://www.w3.org/2000/svg" xmlns:xlink="http://www.w3.org/1999/xlink" x="0px" y="0px"
	 viewBox="-289 381 32 32" style="enable-background:new -289 381 32 32;" xml:space="preserve">
<style type="text/css">
	.st0{fill:#CCCCCC;}
</style>
<path class="st0" d="M-285.7,382.3h1.3c0.2,0,0.3,0.1,0.5,0.2s0.2,0.3,0.2,0.5v28.7h-2.7V383c0-0.2,0.1-0.3,0.2-0.5
	S-285.8,382.3-285.7,382.3z M-260.3,383.6c0.1,0,0.2,0,0.2,0.1c0.3,0.1,0.4,0.3,0.4,0.6v11.2c0,0.1,0,0.2-0.1,0.3
	c-0.6,1-1.2,1.9-1.8,2.6c-0.6,0.7-1.2,1.2-1.7,1.5s-1.1,0.5-1.5,0.7c-0.4,0.1-0.9,0.2-1.4,0.2c-0.5,0-1-0.1-1.5-0.2
	c-0.6-0.1-1-0.2-1.4-0.4c-0.4-0.1-0.9-0.3-1.6-0.6c-0.7-0.3-1.3-0.5-1.7-0.6c-0.4-0.1-0.9-0.3-1.5-0.4s-1.2-0.2-1.7-0.2
	c-1.5,0-2.9,0.5-4.3,1.5c-0.1,0.1-0.3,0.1-0.4,0.1c-0.1,0-0.2,0-0.3-0.1c-0.2-0.1-0.4-0.3-0.4-0.6v-11.7c0.4-1,1.1-1.9,2.2-2.6
	c1.1-0.8,2.1-1.2,3.2-1.2c0.4,0,0.8,0,1.1,0c0.4,0,0.7,0.1,1.1,0.2s0.7,0.2,0.9,0.2c0.2,0.1,0.5,0.2,1,0.3s0.8,0.3,0.9,0.3
	c0.7,0.2,1.3,0.4,1.7,0.6s0.9,0.2,1.5,0.4c0.6,0.1,1.2,0.2,1.7,0.2c1.8,0,3.5-0.8,4.9-2.3C-260.7,383.7-260.5,383.6-260.3,383.6
	L-260.3,383.6z"/>
</svg>
