<?xml version="1.0" encoding="utf-8"?>
<!-- Generator: Adobe Illustrator 19.1.0, SVG Export Plug-In . SVG Version: 6.00 Build 0)  -->
<svg version="1.1" id="Layer_1" xmlns="http://www.w3.org/2000/svg" xmlns:xlink="http://www.w3.org/1999/xlink" x="0px" y="0px"
	 viewBox="-289 381 32 32" style="enable-background:new -289 381 32 32;" xml:space="preserve">
<style type="text/css">
	.st0{fill:#999999;}
</style>
<path class="st0" d="M-283,381h20c0.2,0,0.4,0.1,0.5,0.2s0.3,0.3,0.3,0.5l5,17.4c0.1,0.4,0.2,0.9,0.2,1.3v11.3c0,0.2,0,0.5-0.1,0.7
	c-0.1,0.3-0.2,0.4-0.2,0.5c-0.2,0.1-0.5,0.2-1,0.2h-29.3c-0.2,0-0.5,0-0.7-0.1c-0.3-0.1-0.4-0.1-0.5-0.2c-0.1-0.2-0.2-0.6-0.2-1
	l0-11.3c0-0.4,0.1-0.9,0.2-1.3l4.9-17.4c0.1-0.2,0.2-0.3,0.3-0.5C-283.4,381.1-283.2,381-283,381z M-265.6,386.3h-14.8
	c-0.2,0-0.3,0.1-0.5,0.2s-0.3,0.3-0.3,0.5l-2.3,12c0,0.2,0,0.4,0.1,0.5s0.2,0.2,0.4,0.2h4c0.2,0,0.4,0.1,0.5,0.2s0.3,0.3,0.3,0.5
	l1,4.1c0,0.2,0.1,0.3,0.3,0.5c0.2,0.1,0.3,0.2,0.5,0.2h6.7c0.2,0,0.4-0.1,0.5-0.2s0.3-0.3,0.3-0.5l1-4.1c0-0.2,0.1-0.3,0.3-0.5
	c0.2-0.1,0.3-0.2,0.5-0.2h4c0.2,0,0.3-0.1,0.4-0.2c0.1-0.1,0.1-0.3,0.1-0.5l-2.3-12c0-0.2-0.1-0.4-0.3-0.5S-265.4,386.3-265.6,386.3
	L-265.6,386.3z"/>
</svg>
