<?xml version="1.0" encoding="utf-8"?>
<!-- Generated by IcoMoon.io -->
<!DOCTYPE svg PUBLIC "-//W3C//DTD SVG 1.1//EN" "http://www.w3.org/Graphics/SVG/1.1/DTD/svg11.dtd">
<svg version="1.1" xmlns="http://www.w3.org/2000/svg" xmlns:xlink="http://www.w3.org/1999/xlink" width="32" height="32" viewBox="0 0 32 32">
<path d="M16 0.613q3.12 0 5.973 1.213t4.92 3.28 3.28 4.92 1.213 5.973-1.213 5.973-3.28 4.92-4.92 3.28-5.973 1.213-5.973-1.213-4.92-3.28-3.28-4.92-1.213-5.973 1.213-5.973 3.28-4.92 4.92-3.28 5.973-1.213zM14.56 15.387l-2.24-2.267q-0.187-0.187-0.467-0.187t-0.493 0.187l-3.707 3.707q-0.187 0.213-0.187 0.48t0.187 0.48l6.453 6.427q0.187 0.213 0.467 0.213t0.467-0.213l10-10q0.187-0.187 0.187-0.467t-0.187-0.493l-3.707-3.707q-0.187-0.187-0.467-0.187t-0.467 0.187z"></path>
</svg>
