<?xml version="1.0" encoding="utf-8"?>
<!-- Generated by IcoMoon.io -->
<!DOCTYPE svg PUBLIC "-//W3C//DTD SVG 1.1//EN" "http://www.w3.org/Graphics/SVG/1.1/DTD/svg11.dtd">
<svg version="1.1" xmlns="http://www.w3.org/2000/svg" xmlns:xlink="http://www.w3.org/1999/xlink" width="32" height="32" viewBox="0 0 32 32">
<path d="M14.987 27.947l11.734-11.759q2.277-2.277 2.477-4.804 0.175-2.452-1.301-4.391t-3.853-2.364q-0.55-0.1-1.176-0.1-0.851 0-1.664 0.25t-1.414 0.575-1.389 0.951-1.201 1.038-1.213 1.188q-9.407 9.382-9.783 9.758-0.751 0.676-1.126 1.038t-0.938 1.026-0.801 1.163-0.4 1.188-0.038 1.414q0.225 1.551 1.339 2.377t2.489 0.826q1.851 0 3.127-1.276l13.711-13.711q0.901-0.901 0.5-1.876-0.175-0.4-0.538-0.651t-0.813-0.25q-0.651 0-1.251 0.575-0.325 0.3-0.976 0.951l-8.532 8.457q-0.375 0.375-0.888 0.388t-0.863-0.338-0.35-0.863 0.35-0.863q8.181-8.332 9.032-9.182 0.876-0.876 1.689-1.288t1.964-0.413q0.35 0 0.726 0.025 1.101 0.2 1.864 0.888t1.088 1.714q0.35 1.176 0.050 2.414t-1.176 2.114q-0.3 0.275-0.801 0.801t-1.989 2.027-2.865 2.877-3.115 3.090-3.077 2.99-2.414 2.227-1.426 1.126q-1.401 0.676-3.002 0.676-1.751 0-3.228-0.801t-2.327-2.227q-1.201-1.952-0.876-4.328t2.027-4.078l12.785-12.785q1.776-1.801 2.777-2.402 2.277-1.376 4.954-1.376 2.002 0 3.803 0.826 1.952 0.901 3.24 2.577t1.664 3.853q0.425 2.327-0.275 4.591t-2.352 3.916l-12.059 11.909q-0.375 0.375-0.901 0.4t-0.926-0.35-0.438-0.851 0.363-0.876z"></path>
</svg>
