<?xml version="1.0" encoding="utf-8"?>
<!-- Generated by IcoMoon.io -->
<!DOCTYPE svg PUBLIC "-//W3C//DTD SVG 1.1//EN" "http://www.w3.org/Graphics/SVG/1.1/DTD/svg11.dtd">
<svg version="1.1" xmlns="http://www.w3.org/2000/svg" xmlns:xlink="http://www.w3.org/1999/xlink" width="32" height="32" viewBox="0 0 32 32">
<path d="M16 0.373q3.173 0 6.067 1.24t4.987 3.333 3.333 4.987 1.24 6.067-1.24 6.067-3.333 4.987-4.987 3.333-6.067 1.24-6.067-1.24-4.987-3.333-3.333-4.987-1.24-6.067 1.24-6.067 3.333-4.987 4.987-3.333 6.067-1.24zM16 4.747q-3.067 0-5.653 1.507t-4.093 4.093-1.507 5.653 1.507 5.653 4.093 4.093 5.653 1.507 5.653-1.507 4.093-4.093 1.507-5.653-1.507-5.653-4.093-4.093-5.653-1.507zM16 10.827q2.133 0 3.653 1.52t1.52 3.653-1.52 3.653-3.653 1.52-3.653-1.52-1.52-3.653 1.52-3.653 3.653-1.52z"></path>
</svg>
