<?xml version="1.0" encoding="utf-8"?>
<!-- Generated by IcoMoon.io -->
<!DOCTYPE svg PUBLIC "-//W3C//DTD SVG 1.1//EN" "http://www.w3.org/Graphics/SVG/1.1/DTD/svg11.dtd">
<svg version="1.1" xmlns="http://www.w3.org/2000/svg" xmlns:xlink="http://www.w3.org/1999/xlink" width="32" height="32" viewBox="0 0 32 32">
<path d="M16 0.613q3.12 0 5.973 1.213t4.92 3.28 3.28 4.92 1.213 5.973-1.213 5.973-3.28 4.92-4.92 3.28-5.973 1.213-5.973-1.213-4.92-3.28-3.28-4.92-1.213-5.973 1.213-5.973 3.28-4.92 4.92-3.28 5.973-1.213zM16 4.613q-3.093 0-5.72 1.52t-4.147 4.147-1.52 5.72 1.52 5.72 4.147 4.147 5.72 1.52 5.72-1.52 4.147-4.147 1.52-5.72-1.52-5.72-4.147-4.147-5.72-1.52zM20.24 10.053l1.707 1.707q0.187 0.187 0.187 0.467t-0.187 0.467l-3.307 3.307 3.307 3.307q0.187 0.187 0.187 0.467t-0.187 0.467l-1.707 1.707q-0.187 0.187-0.467 0.187t-0.467-0.187l-3.307-3.307-3.307 3.307q-0.187 0.187-0.467 0.187t-0.467-0.187l-1.707-1.707q-0.187-0.187-0.187-0.467t0.187-0.467l3.307-3.307-3.307-3.307q-0.187-0.187-0.187-0.467t0.187-0.467l1.707-1.707q0.187-0.187 0.467-0.187t0.467 0.187l3.307 3.307 3.307-3.307q0.187-0.187 0.467-0.187t0.467 0.187z"></path>
</svg>
