<?xml version="1.0" encoding="utf-8"?>
<!-- Generated by IcoMoon.io -->
<!DOCTYPE svg PUBLIC "-//W3C//DTD SVG 1.1//EN" "http://www.w3.org/Graphics/SVG/1.1/DTD/svg11.dtd">
<svg version="1.1" xmlns="http://www.w3.org/2000/svg" xmlns:xlink="http://www.w3.org/1999/xlink" width="32" height="32" viewBox="0 0 32 32">
<path d="M16 0.613q3.12 0 5.973 1.213t4.92 3.28 3.28 4.92 1.213 5.973-1.213 5.973-3.28 4.92-4.92 3.28-5.973 1.213-5.973-1.213-4.92-3.28-3.28-4.92-1.213-5.973 1.213-5.973 3.28-4.92 4.92-3.28 5.973-1.213zM19.773 7.653q-0.333 0-0.573 0.24l-3.2 3.2-3.2-3.2q-0.24-0.24-0.573-0.24t-0.573 0.24l-3.76 3.76q-0.24 0.24-0.24 0.573t0.24 0.573l3.2 3.2-3.2 3.2q-0.24 0.24-0.24 0.573t0.24 0.573l3.76 3.76q0.24 0.24 0.573 0.24t0.573-0.24l3.2-3.2 3.2 3.2q0.24 0.24 0.573 0.24t0.573-0.24l3.76-3.76q0.24-0.24 0.24-0.573t-0.24-0.573l-3.2-3.2 3.2-3.2q0.24-0.24 0.24-0.573t-0.24-0.573l-3.76-3.76q-0.24-0.24-0.573-0.24z"></path>
</svg>
