<?xml version="1.0" encoding="utf-8"?>
<!-- Generator: Adobe Illustrator 19.1.0, SVG Export Plug-In . SVG Version: 6.00 Build 0)  -->
<svg version="1.1" id="Layer_1" xmlns="http://www.w3.org/2000/svg" xmlns:xlink="http://www.w3.org/1999/xlink" x="0px" y="0px"
	 viewBox="-289 381 32 32" style="enable-background:new -289 381 32 32;" xml:space="preserve">
<style type="text/css">
	.st0{fill:#C5D7E6;}
</style>
<path class="st0" d="M-275.9,381c1.8,0,3.5,0.3,5.1,1s3,1.6,4.2,2.8s2.1,2.6,2.8,4.2s1,3.3,1,5.1l0,0.1l0,0.1c0,2.5-0.7,4.8-2.1,7
	l7.3,7.3c0.4,0.5,0.6,0.9,0.6,1.2c0,0.3-0.2,0.7-0.6,1.1l-1.6,1.5c-0.5,0.4-0.9,0.5-1.2,0.5c-0.4,0-0.7-0.2-1.1-0.5l-7.3-7.3
	c-2.1,1.4-4.4,2.1-7,2.1l-0.1,0l-0.1,0c-1.8,0-3.5-0.3-5.1-1s-3-1.6-4.2-2.8s-2.1-2.6-2.8-4.2c-0.7-1.6-1-3.3-1-5.1
	c0-1.8,0.3-3.5,1-5.1c0.7-1.6,1.6-3,2.8-4.2s2.6-2.1,4.2-2.8S-277.7,381-275.9,381L-275.9,381z M-275.9,385.5c-1.6,0-3,0.4-4.3,1.1
	c-1.3,0.8-2.4,1.8-3.1,3.1c-0.8,1.3-1.1,2.8-1.1,4.3s0.4,3,1.1,4.3c0.8,1.3,1.8,2.4,3.1,3.1c1.3,0.8,2.8,1.1,4.3,1.1s3-0.4,4.3-1.1
	c1.3-0.8,2.4-1.8,3.1-3.1c0.8-1.3,1.1-2.8,1.1-4.3s-0.4-3-1.1-4.3c-0.8-1.3-1.8-2.4-3.1-3.1C-272.9,385.9-274.4,385.5-275.9,385.5z"
	/>
</svg>
