<?xml version="1.0" encoding="utf-8"?>
<!-- Generator: Adobe Illustrator 19.1.0, SVG Export Plug-In . SVG Version: 6.00 Build 0)  -->
<svg version="1.1" id="Layer_1" xmlns="http://www.w3.org/2000/svg" xmlns:xlink="http://www.w3.org/1999/xlink" x="0px" y="0px"
	 viewBox="-289 381 32 32" style="enable-background:new -289 381 32 32;" xml:space="preserve">
<style type="text/css">
	.st0{fill:#999999;}
</style>
<path class="st0" d="M-271.7,384.8l13.9,11.4c0.3,0.2,0.4,0.5,0.4,0.9s-0.1,0.6-0.4,0.9l-13.9,11.4c-0.3,0.2-0.5,0.3-0.7,0.2
	c-0.2-0.1-0.3-0.3-0.3-0.7V401c-1.7,0-3.3,0.2-4.9,0.5c-1.6,0.3-3.1,0.8-4.5,1.4c-1.5,0.6-2.8,1.4-3.9,2.5s-2,2.2-2.7,3.6
	c0.1-1.9,0.3-3.6,0.7-5.2s1-3.1,1.8-4.5c0.8-1.4,1.8-2.6,3-3.6c1.2-1,2.7-1.8,4.5-2.4c1.8-0.6,3.8-1,6-1.1v-7c0-0.4,0.1-0.6,0.3-0.7
	C-272.2,384.5-271.9,384.5-271.7,384.8L-271.7,384.8z"/>
</svg>
