<?xml version="1.0" encoding="utf-8"?>
<!-- Generator: Adobe Illustrator 19.1.0, SVG Export Plug-In . SVG Version: 6.00 Build 0)  -->
<svg version="1.1" id="Layer_1" xmlns="http://www.w3.org/2000/svg" xmlns:xlink="http://www.w3.org/1999/xlink" x="0px" y="0px"
	 viewBox="-289 381 32 32" style="enable-background:new -289 381 32 32;" xml:space="preserve">
<style type="text/css">
	.st0{fill:#C5D7E6;}
</style>
<path class="st0" d="M-271.7,382.3h1.3c0.7,0,1.3,0.4,1.9,1.1c0.5,0.7,0.8,1.5,0.8,2.3v4l-0.7,3.3h8.7c0.7,0,1.3,0.4,1.9,1.1
	c0.5,0.7,0.8,1.5,0.8,2.3v2.7c0,0.8-0.3,1.5-0.8,2l-6.3,9.2c-0.3,0.4-0.6,0.8-1,1.1c-0.4,0.3-0.8,0.4-1.2,0.4h-6.7
	c-0.1,0-0.5-0.2-1.1-0.7c-0.6-0.4-1.2-0.9-1.8-1.3l-0.8-0.7h-1.6c-0.8,0-1.4-0.2-1.9-0.5s-0.7-0.8-0.7-1.5v-10.7
	c0-0.6,0.2-1.2,0.5-1.7l3.9-5.2l2.6-5.3c0.2-0.5,0.6-0.9,1-1.3C-272.6,382.5-272.1,382.3-271.7,382.3L-271.7,382.3z M-271.7,385
	l-2.7,5.7l-4,5.7v10h2.7l3.6,2.7h5.7l6.7-10v-3.3h-12l1.3-6V385H-271.7L-271.7,385z M-287.7,393h2.7c0.4,0,0.7,0.1,0.9,0.4
	s0.4,0.6,0.4,0.9v13.3c0,0.4-0.1,0.7-0.4,0.9c-0.3,0.3-0.6,0.4-0.9,0.4h-2.7c-0.4,0-0.7-0.1-0.9-0.4c-0.3-0.3-0.4-0.6-0.4-0.9v-13.3
	c0-0.4,0.1-0.7,0.4-0.9C-288.4,393.1-288,393-287.7,393z"/>
</svg>
