<?xml version="1.0" encoding="utf-8"?>
<!-- Generator: Adobe Illustrator 19.1.0, SVG Export Plug-In . SVG Version: 6.00 Build 0)  -->
<svg version="1.1" id="Layer_1" xmlns="http://www.w3.org/2000/svg" xmlns:xlink="http://www.w3.org/1999/xlink" x="0px" y="0px"
	 viewBox="206 -116 1024 1024" style="enable-background:new 206 -116 1024 1024;" xml:space="preserve">
<style type="text/css">
	.st0{fill:#FFA500;}
</style>
<g id="icomoon-ignore">
</g>
<path class="st0" d="M718-96.4c66.6,0,130.3,12.9,191.1,38.8s113.4,60.9,157.4,105s79.1,96.6,105,157.4s38.8,124.6,38.8,191.1
	s-12.9,130.3-38.8,191.1s-60.9,113.4-105,157.4c-44.1,44.1-96.6,79.1-157.4,105c-60.9,25.9-124.6,38.8-191.1,38.8
	s-130.3-12.9-191.1-38.8c-60.9-25.9-113.4-60.9-157.4-105c-44.1-44.1-79.1-96.6-105-157.4S225.6,462.6,225.6,396
	s12.9-130.3,38.8-191.1c25.9-60.9,60.9-113.4,105-157.4s96.6-79.1,157.4-105C587.7-83.4,651.4-96.4,718-96.4L718-96.4z M718,31.6
	c-66,0-127,16.2-183,48.6S434.7,156.9,402.3,213s-48.6,117-48.6,183s16.2,127,48.6,183c32.4,56,76.7,100.3,132.7,132.7
	s117,48.6,183,48.6c66,0,127-16.2,183-48.6c56-32.4,100.3-76.7,132.7-132.7c32.4-56,48.6-117,48.6-183s-16.2-127-48.6-183
	c-32.4-56-76.7-100.3-132.7-132.7S784,31.6,718,31.6L718,31.6z M745.3,128.1l190.3,234.7c7.4,9.1,9.7,16.9,6.8,23.5
	s-10.2,9.8-22.2,9.8H803.3v234.7c0,5.7-2.1,10.7-6.4,14.9s-9.2,6.4-14.9,6.4H654c-5.7,0-10.7-2.1-14.9-6.4
	c-4.3-4.3-6.4-9.2-6.4-14.9V396H515.8c-11.9,0-19.3-3.3-22.2-9.8s-0.6-14.4,6.8-23.5l190.3-234.7c7.4-9.1,16.5-13.7,27.3-13.7
	C728.8,114.4,737.9,119,745.3,128.1L745.3,128.1z"/>
</svg>
