<?xml version="1.0" encoding="utf-8"?>
<!-- Generated by IcoMoon.io -->
<!DOCTYPE svg PUBLIC "-//W3C//DTD SVG 1.1//EN" "http://www.w3.org/Graphics/SVG/1.1/DTD/svg11.dtd">
<svg version="1.1" xmlns="http://www.w3.org/2000/svg" xmlns:xlink="http://www.w3.org/1999/xlink" width="32" height="32" viewBox="0 0 32 32">
<path d="M24.107 3.12l4.747 4.773q0.213 0.213 0.213 0.493t-0.213 0.467l-7.12 7.147 7.12 7.147q0.213 0.187 0.213 0.467t-0.213 0.493l-4.747 4.747q-0.213 0.213-0.493 0.213t-0.467-0.213l-7.147-7.12-7.147 7.12q-0.187 0.213-0.467 0.213t-0.493-0.213l-4.747-4.747q-0.213-0.213-0.213-0.493t0.213-0.467l7.12-7.147-7.12-7.147q-0.213-0.187-0.213-0.467t0.213-0.493l4.747-4.747q0.213-0.213 0.493-0.213t0.467 0.213l7.147 7.12 7.147-7.147q0.187-0.187 0.467-0.187t0.493 0.187z"></path>
</svg>
