<?xml version="1.0" encoding="utf-8"?>
<!-- Generator: Adobe Illustrator 19.2.1, SVG Export Plug-In . SVG Version: 6.00 Build 0)  -->
<svg version="1.1" id="Layer_1" xmlns="http://www.w3.org/2000/svg" xmlns:xlink="http://www.w3.org/1999/xlink" x="0px" y="0px"
	 viewBox="0 0 709.4 705.377" style="enable-background:new 0 0 709.4 705.377;" xml:space="preserve">
<style type="text/css">
	.st0{fill:#FFFFFF;stroke:#999999;stroke-width:20;stroke-miterlimit:10;}
	.st1{fill:#999999;stroke:#999999;stroke-miterlimit:10;}
</style>
<g>
	<circle class="st0" cx="353.993" cy="352.906" r="341.542"/>
	<path class="st1" d="M503.852,221.847c0,1.997,0,3.992,0,5.989c-0.434,6.239-4.091,10.658-8.306,14.841
		c-35.708,35.436-71.388,70.902-107.074,106.359c-3.091,3.07-3.091,3.075-0.019,6.127c34.385,34.164,68.763,68.334,103.166,102.48
		c4.584,4.55,7.739,9.707,8.383,16.285c0.451,4.604-0.631,8.851-2.89,12.678c-7.59,12.86-23.475,14.832-33.961,6.367
		c-1.887-1.524-3.649-3.175-5.366-4.881c-33.848-33.639-67.702-67.271-101.556-100.905c-3.076-3.057-3.081-3.056-6.175,0.017
		c-35.156,34.927-70.31,69.854-105.465,104.782c-0.533,0.529-1.075,1.049-1.597,1.589c-4.379,4.527-9.218,8.174-15.929,8.26
		c-0.335,0-0.67,0-1.004,0c-1.507-0.39-3.014-0.39-4.521,0c-0.168,0-0.335,0-0.503,0c-2.814-0.624-5.735-0.62-8.357-2.226
		c-8.396-5.139-11.089-12.742-10.459-22.133c0.406-6.061,3.275-10.688,7.403-14.796c8.932-8.889,17.875-17.765,26.815-26.646
		c26.935-26.761,53.878-53.516,80.799-80.292c4.118-4.095,4.11-3.185-0.086-7.356c-35.21-35.009-70.437-70.001-105.668-104.99
		c-2.622-2.605-4.959-5.373-6.471-8.803c-4.334-9.825-1.6-20.548,7.031-27.236c7.815-6.056,19.397-5.889,27.553,0.377
		c1.793,1.378,3.431,2.919,5.03,4.509c35.042,34.823,70.085,69.645,105.14,104.455c3.707,3.681,3.05,3.697,6.696,0.075
		c35.173-34.928,70.334-69.868,105.498-104.805c0.533-0.529,1.104-1.026,1.593-1.593c6.867-7.956,15.752-9.654,25.51-7.606
		c6.774,1.422,14.44,8.705,14.55,17.14C503.619,220.557,503.386,221.251,503.852,221.847z"/>
</g>
</svg>
