<?xml version="1.0" encoding="utf-8"?>
<!-- Generator: Adobe Illustrator 19.1.0, SVG Export Plug-In . SVG Version: 6.00 Build 0)  -->
<svg version="1.1" id="Layer_1" xmlns="http://www.w3.org/2000/svg" xmlns:xlink="http://www.w3.org/1999/xlink" x="0px" y="0px"
	 viewBox="-71.6 373.6 428.8 51" style="enable-background:new -71.6 373.6 428.8 51;" xml:space="preserve">
<style type="text/css">
	.st0{fill:#FFFFFF;}
</style>
<g>
	<polygon class="st0" points="58.9,380.4 78,380.4 58.9,402.5 58.9,408.6 87.2,408.6 87.2,402.5 68.6,402.5 87.2,380.4 87.2,374.3 
		58.9,374.3 	"/>
	<path class="st0" d="M127.4,390.6L127.4,390.6c-0.5-9.3-8.3-16.6-17.8-16.6c-9.9,0-17.9,7.9-17.9,17.6s8,17.6,17.9,17.6
		c4.5,0,8.5-1.6,11.7-4.3v3.8h6.2v-16.5c0-0.2,0-0.4,0-0.6s0-0.4,0-0.6L127.4,390.6L127.4,390.6z M109.5,402.7
		c-6.3,0-11.4-5-11.4-11.2c0-6.2,5.1-11.2,11.4-11.2c6.3,0,11.4,5,11.4,11.2C120.9,397.7,115.8,402.7,109.5,402.7z"/>
	<polygon class="st0" points="24.2,380.4 43.3,380.4 24.2,402.5 24.2,408.6 52.5,408.6 52.5,402.5 33.9,402.5 52.5,380.4 
		52.5,374.3 24.2,374.3 	"/>
	<path class="st0" d="M-54.3,374.5c-9.2,0-16.8,7.1-17.3,16l0.1,34.1h6.1v-20c3,2.5,6.9,4,11.1,4c9.6,0,17.4-7.6,17.4-17.1
		C-37,382.1-44.8,374.5-54.3,374.5z M-54.5,402.4c-5.9,0-10.8-4.7-10.8-10.6c0-5.8,4.8-10.6,10.8-10.6c5.9,0,10.8,4.7,10.8,10.6
		C-43.7,397.6-48.5,402.4-54.5,402.4z"/>
	<path class="st0" d="M17.9,390.6L17.9,390.6C17.4,381.3,9.6,374,0.1,374c-9.9,0-17.9,7.9-17.9,17.6s8,17.6,17.9,17.6
		c4.5,0,8.5-1.6,11.7-4.3v3.8H18v-16.5c0-0.2,0-0.4,0-0.6s0-0.4,0-0.6L17.9,390.6L17.9,390.6z M0.1,402.7c-6.3,0-11.4-5-11.4-11.2
		c0-6.2,5.1-11.2,11.4-11.2s11.4,5,11.4,11.2C11.5,397.7,6.4,402.7,0.1,402.7z"/>
	<rect x="-30.8" y="374.5" class="st0" width="6.2" height="34.1"/>
	<path class="st0" d="M164.8,379.6c3.3,0,6,1.1,8.3,3.4c0.3,0.3,0.6,0.7,0.9,1l0.7,0.9l5.9-2.2l-1.3-1.7c-0.6-0.8-1.2-1.5-1.9-2.2
		c-3.4-3.4-7.7-5.2-12.6-5.2c-4.9,0-9.1,1.7-12.5,5.2c-3.5,3.4-5.2,7.7-5.2,12.5c0,4.9,1.8,9.1,5.2,12.6s7.7,5.2,12.5,5.2
		c4.9,0,9.1-1.8,12.6-5.2c0.7-0.7,1.3-1.4,1.9-2.2l1.3-1.7l-5.9-2.2l-0.7,0.9c-0.3,0.3-0.5,0.6-0.8,0.9c-2.3,2.3-5,3.5-8.3,3.5
		s-6-1.1-8.3-3.4c-2.3-2.3-3.4-5-3.4-8.3c0-3.3,1.1-6,3.4-8.3C158.9,380.7,161.6,379.6,164.8,379.6z"/>
	<path class="st0" d="M237.6,374.7c-1.7,0.5-5.2,2.5-7.2,4.2v-2.7h-5.8v32h5.8v-16.5c0.1-3.1,1.2-5.7,3.4-7.9c1.3-1.3,5-3.3,6-3.5
		l2.2-0.4l-3.2-5.6L237.6,374.7z"/>
	<path class="st0" d="M260.1,373.6c-4.9,0-9.1,1.7-12.5,5.2c-3.5,3.4-5.2,7.7-5.2,12.6c0,4.9,1.8,9.1,5.2,12.5
		c3.5,3.5,7.7,5.2,12.5,5.2c4.9,0,9.1-1.8,12.6-5.2c1.2-1.2,1.9-2,2.3-2.7l1-1.7l-5.7-2l-0.7,0.9c-0.4,0.4-0.8,0.9-1.2,1.3
		c-2.3,2.3-5.1,3.5-8.3,3.5c-3.3,0-6-1.1-8.3-3.4c-2.3-2.3-3.4-5-3.4-8.2h28.9V390c0-4.3-1.6-8-4.6-11.1
		C269.2,375.3,265,373.6,260.1,373.6z M249.8,385.6c0.5-0.9,1.2-1.7,2-2.5c2.3-2.3,5.1-3.5,8.3-3.5c3.3,0,6,1.1,8.3,3.5
		c0.8,0.8,1.4,1.6,1.9,2.5H249.8z"/>
	<path class="st0" d="M298.9,373.6c-4.9,0-9.1,1.7-12.5,5.2c-3.5,3.4-5.2,7.7-5.2,12.6c0,4.9,1.8,9.1,5.2,12.5
		c3.5,3.5,7.7,5.2,12.5,5.2c4.9,0,9.1-1.8,12.6-5.2c1.2-1.2,1.9-2,2.3-2.7l1-1.7l-5.7-2l-0.7,0.9c-0.4,0.4-0.8,0.9-1.2,1.3
		c-2.3,2.3-5.1,3.5-8.3,3.5c-3.3,0-6-1.1-8.3-3.4c-2.3-2.3-3.4-5-3.4-8.2h28.9V390c0-4.3-1.6-8-4.6-11.1
		C308,375.3,303.8,373.6,298.9,373.6z M288.6,385.6c0.5-0.9,1.2-1.7,2-2.5c2.3-2.3,5.1-3.5,8.3-3.5c3.3,0,6,1.1,8.3,3.5
		c0.8,0.8,1.4,1.6,1.9,2.5H288.6z"/>
	<path class="st0" d="M333.6,374.3l-1.2,0.4c-1.7,0.6-4.7,2.5-6.6,4.1v-2.6h-5.9v32h5.9v-16.5c0.1-3.1,1.2-5.7,3.4-7.9
		c1.4-1.4,4.4-3.3,5.4-3.5l2.2-0.4L333.6,374.3z"/>
	<path class="st0" d="M348.4,387.1c-1.9-1.2-2.6-1.8-2.8-2c-0.5-0.5-0.8-1.1-0.8-1.9s0.3-1.4,0.8-1.9s1.1-0.8,1.9-0.8
		c1,0,1.5,0.4,1.8,0.6c0.5,0.5,0.8,1.3,1,2.5l0.3,2l5.2-2.1v-1.2c0-2-0.8-3.8-2.3-5.3c-1.6-1.6-3.5-2.4-5.9-2.4
		c-2.3,0-4.4,0.8-6,2.5c-1.7,1.7-2.5,3.7-2.5,6s0.8,4.4,2.5,6c1,1,2.6,2.1,4.9,3.3c2.2,1.4,3.2,2.2,3.5,2.6c0.9,0.8,1.3,1.8,1.3,3
		c0,1.2-0.4,2.2-1.3,3.1s-1.9,1.3-3.1,1.3s-2.2-0.4-3-1.3c-0.9-0.9-1.3-1.9-1.3-3.2v-2l-5.8,1.5v1.2c0,2.4,1,4.7,3,6.6
		c2,2,4.4,3,7.2,3s5.2-1,7.2-3s3-4.4,3-7.2s-1-5.2-3-7.1C352.8,389.7,350.9,388.5,348.4,387.1z"/>
	<path class="st0" d="M218.5,390.5L218.5,390.5c-0.5-9.3-8.3-16.6-17.8-16.6c-9.9,0-17.9,7.9-17.9,17.6c0,9.7,8,17.6,17.9,17.6
		c4.5,0,8.5-1.6,11.7-4.3v3.8h6.2v-16.5c0-0.2,0-0.4,0-0.6c0-0.2,0-0.4,0-0.6v-0.4H218.5z M200.6,402.7c-6.3,0-11.4-5-11.4-11.2
		c0-6.2,5.1-11.2,11.4-11.2s11.4,5,11.4,11.2C212,397.6,206.9,402.7,200.6,402.7z"/>
</g>
</svg>
