<?xml version="1.0" encoding="UTF-8"?>
<svg width="0px" height="0px" viewBox="0 0 0 0" version="1.1" xmlns="http://www.w3.org/2000/svg" xmlns:xlink="http://www.w3.org/1999/xlink" style="display: none;">
	
  <symbol id="Calendar" width="15px" height="14px" viewBox="0 0 15 14">
    <g stroke="none" stroke-width="1" fill="none" fill-rule="evenodd">
      <g transform="translate(-1.000000, -1.000000)" fill="#FFFFFF">
          <path d="M1,5 L16,5 L16,15 L1,15 L1,5 Z M2,13 L3,13 L3,14 L2,14 L2,13 Z M2,11 L3,11 L3,12 L2,12 L2,11 Z M2,9 L3,9 L3,10 L2,10 L2,9 Z M2,7 L3,7 L3,8 L2,8 L2,7 Z M6,13 L7,13 L7,14 L6,14 L6,13 Z M6,11 L7,11 L7,12 L6,12 L6,11 Z M6,9 L7,9 L7,10 L6,10 L6,9 Z M6,7 L7,7 L7,8 L6,8 L6,7 Z M10,13 L11,13 L11,14 L10,14 L10,13 Z M10,11 L11,11 L11,12 L10,12 L10,11 Z M10,9 L11,9 L11,10 L10,10 L10,9 Z M10,7 L11,7 L11,8 L10,8 L10,7 Z M4,13 L5,13 L5,14 L4,14 L4,13 Z M4,11 L5,11 L5,12 L4,12 L4,11 Z M4,9 L5,9 L5,10 L4,10 L4,9 Z M4,7 L5,7 L5,8 L4,8 L4,7 Z M8,13 L9,13 L9,14 L8,14 L8,13 Z M8,11 L9,11 L9,12 L8,12 L8,11 Z M8,9 L9,9 L9,10 L8,10 L8,9 Z M8,7 L9,7 L9,8 L8,8 L8,7 Z M12,13 L13,13 L13,14 L12,14 L12,13 Z M14,13 L15,13 L15,14 L14,14 L14,13 Z M12,11 L13,11 L13,12 L12,12 L12,11 Z M14,11 L15,11 L15,12 L14,12 L14,11 Z M12,9 L13,9 L13,10 L12,10 L12,9 Z M14,9 L15,9 L15,10 L14,10 L14,9 Z M12,7 L13,7 L13,8 L12,8 L12,7 Z M14,7 L15,7 L15,8 L14,8 L14,7 Z M4,2 L13,2 L13,1 L14,1 L14,2 L16,2 L16,4 L1,4 L1,2 L3,2 L3,1 L4,1 L4,2 Z"></path>
      </g>
    </g>
  </symbol>
	<symbol id="Bubble" width="16px" height="16px" viewBox="0 0 16 16" version="1.1" >
    <g stroke="none" stroke-width="1" fill="none" fill-rule="evenodd">
      <g fill="#FFFFFF" transform="translate(1.000000, 1.000000)">
        <polygon id="Path" points="14 0 0 0 0 11 2 11 2 14 5 11 14 11"></polygon>
      </g>
    </g>
	</symbol>
	<symbol id="Globe" width="16px" height="16px" viewBox="0 0 16 16">
    <g id="icons" fill="#FFFFFF" fill-rule="nonzero">
      <path d="M8.832,5.21527273 C8.80654545,5.16727273 9.08072727,5.14109091 9.12945455,5.14109091 C9.18327273,5.14763636 8.98690909,5.46981818 8.832,5.21527273 Z M7.26690909,2.98109091 L7.34545455,2.95854545 C7.392,2.99854545 7.29309091,3.02763636 7.30836364,3.05745455 C7.37090909,3.17018182 7.32363636,3.23781818 7.31418182,3.29890909 C7.304,3.36072727 7.23854545,3.33381818 7.20581818,3.36654545 C7.16727273,3.41454545 7.39345455,3.42109091 7.39636364,3.42836364 C7.40436364,3.45236364 7.12363636,3.49309091 7.17527273,3.55272727 C7.24509091,3.65163636 7.77454545,3.41090909 7.69018182,3.42472727 C7.85381818,3.34254545 7.71127273,3.33381818 7.61963636,3.28654545 C7.58836364,3.13018182 7.56218182,2.88872727 7.46472727,2.792 L7.52872727,2.71781818 C7.37890909,2.50036364 7.26690909,2.98109091 7.26690909,2.98109091 Z M16,8 C16,12.418 12.418,16 8,16 C3.58133333,16 0,12.418 0,8 C0,3.582 3.58133333,0 8,0 C12.418,0 16,3.582 16,8 Z M10.6836364,4.09381818 C10.6792727,3.98763636 10.5454545,3.88727273 10.4058182,4.07127273 C10.3076364,4.19781818 10.3250909,4.39054545 10.272,4.47636364 C10.1963636,4.60363636 10.6843636,4.72290909 10.6843636,4.60290909 C10.7025455,4.40145455 11.2167273,4.55709091 11.3170909,4.58472727 C11.4974545,4.63490909 11.7847273,4.42036364 11.4705455,4.30763636 C11.2123636,4.21309091 11.0763636,4.112 11.0530909,3.92727273 C11.0530909,3.92727273 11.1898182,3.79927273 11.1301818,3.80654545 C10.9716364,3.82618182 10.6836364,4.37818182 10.6836364,4.09381818 Z M15.2625455,8 C15.2625455,7.24727273 15.1338182,6.48727273 15.0029091,6.08581818 C14.9607273,5.95927273 14.8654545,5.85890909 14.7418182,5.81090909 C14.5556364,5.73818182 13.7694545,6.24509091 13.6509091,5.99563636 C13.5730909,5.82909091 13.4152727,6.10181818 13.2349091,6.00145455 C13.1476364,5.95345455 12.9047273,5.62690909 12.7949091,5.66690909 C12.5701818,5.74763636 13.1396364,6.368 13.2952727,6.44945455 C13.4414545,6.33890909 13.9149091,6.11127273 14.0167273,6.42181818 C14.2116364,7.00654545 13.4807273,7.64727273 13.1069091,7.98472727 C12.5483636,8.48945455 12.6530909,7.65818182 12.2727273,7.36509091 C12.0727273,7.21163636 12.0749091,6.88509091 11.8727273,6.77236364 C11.7825455,6.72145455 11.3687273,6.24509091 11.3723636,6.18109091 L11.36,6.30181818 C11.2916364,6.35345455 11.1461818,6.10690909 11.1309091,6.06836364 C11.1309091,6.28290909 11.48,6.62472727 11.5956364,6.79636364 C11.7927273,7.09090909 11.8981818,7.52 12.1396364,7.76072727 C12.2690909,7.89018182 12.7636364,8.42545455 12.8923636,8.41381818 C13.0327273,8.40145455 13.4763636,8.08072727 13.5549091,8.09890909 C14.0232727,8.20945455 12.4523636,10.4298182 12.3032727,10.7047273 C12.1803636,10.9352727 12.4036364,11.5054545 12.3854545,11.7781818 C12.3643636,12.0930909 12.1163636,12.1949091 11.8814545,12.3665455 C11.6298182,12.5505455 11.6887273,12.9083636 11.4770909,13.0392727 C11.1010909,13.2705455 10.8305455,14.0232727 10.2967273,14.0196364 C10.1396364,14.0189091 9.46763636,14.2814545 9.37963636,14.0247273 C9.31127273,13.8385455 9.21963636,13.6974545 9.12290909,13.5134545 C9.02836364,13.3330909 9.112,13.1461818 8.99709091,12.9869091 C8.91781818,12.8763636 8.65163636,12.6254545 8.62763636,12.4945455 C8.62618182,12.3818182 8.71272727,12.0392727 8.83127273,11.9796364 C8.99781818,11.8945455 8.86327273,11.6465455 8.84290909,11.5025455 C8.808,11.2450909 8.64872727,11.0327273 8.45745455,10.8836364 C8.17454545,10.6661818 8.32072727,10.4930909 8.38690909,10.1825455 C8.38690909,10.0341818 8.29672727,9.83927273 8.09745455,9.89745455 C7.68727273,10.0167273 7.81163636,9.57745455 7.51272727,9.59709091 C7.29745455,9.61236364 7.12145455,9.74909091 6.92145455,9.80945455 C6.66981818,9.88509091 6.41236364,9.74981818 6.16363636,9.71854545 C5.14036364,9.58909091 4.80654545,8.41963636 5.07345455,7.576 C5.10036364,7.43781818 4.99054545,7.18181818 5.03854545,7.07490909 C5.15345455,6.81890909 5.38763636,6.53163636 5.59272727,6.33745455 C5.70763636,6.22836364 5.85527273,6.256 5.99054545,6.17090909 C6.19927273,6.03927273 6.20218182,5.76872727 6.40654545,5.60290909 C6.69745455,5.36654545 7.09454545,5.37163636 7.47418182,5.32072727 C7.67636364,5.29381818 8.44581818,5.12727273 8.56727273,5.27709091 C8.56727273,5.30472727 8.70618182,5.71636364 8.55345455,5.69309091 C8.86836364,5.70981818 9.31709091,6.23781818 9.616,6.11418182 C9.76945455,6.05018182 9.71345455,5.57890909 10.0283636,5.80654545 C10.2189091,5.94327273 11.0727273,6.00436364 11.2501818,5.85672727 C11.3592727,5.76654545 11.4203636,5.18036364 11.288,5.11418182 C11.3723636,5.19781818 10.8436364,5.20436364 10.7941818,5.18545455 C10.7069091,5.15345455 10.6254545,5.26836364 10.4850909,5.20363636 C10.5694545,5.24363636 10.0152727,4.94618182 10.3265455,4.71854545 C10.1963636,4.81381818 10.0749091,4.69163636 9.93454545,4.79636364 C9.83781818,4.87490909 9.97963636,4.92727273 9.84145455,4.99563636 C9.62181818,5.10690909 9.456,4.61381818 9.37309091,4.55781818 C9.28872727,4.50254545 8.63563636,4.04436364 8.81309091,4.34327273 L9.38690909,4.91418182 C9.35854545,4.93236364 9.23636364,4.70618182 9.23636364,4.87127273 C9.27490909,4.77309091 9.25090909,5.29236364 9.16072727,5.12363636 C9.12072727,5.05890909 9.22618182,5.02254545 9.16509091,4.92872727 C9.16509091,4.86690909 8.99927273,4.80654545 8.96727273,4.76436364 C8.87636364,4.65163636 8.63490909,4.40290909 8.504,4.34327273 C8.46763636,4.32654545 7.94836364,4.40654545 7.90472727,4.42327273 C7.85381818,4.49454545 7.81018182,4.56945455 7.77454545,4.64945455 C7.66690909,4.68945455 7.56581818,4.74109091 7.46981818,4.80509091 L7.35563636,5.06181818 C7.30618182,5.10618182 6.79927273,5.27345455 6.79636364,5.28 C6.81745455,5.22545455 6.44218182,5.15563636 6.46690909,5.04654545 C6.49454545,4.92654545 6.62181818,4.552 6.58909091,4.41527273 C6.55418182,4.272 7.37018182,4.62181818 7.42254545,4.24436364 C7.44363636,4.08072727 7.456,3.89018182 7.19490909,3.86254545 C7.24436364,3.86836364 7.70036364,3.68363636 7.776,3.60072727 C7.88218182,3.47854545 8.12581818,3.27927273 8.30254545,3.27927273 C8.50909091,3.27927273 8.46472727,2.97890909 8.56,2.832 C8.65527273,2.87054545 8.50909091,3.10545455 8.62327273,3.20072727 C8.616,3.12581818 8.94690909,3.24218182 8.97890909,3.22472727 C9.05454545,3.18545455 9.47636364,3.20872727 9.41090909,3.01090909 C9.33818182,2.80945455 9.448,2.86909091 9.54254545,2.82690909 C9.52654545,2.83345455 9.78981818,2.37672727 9.83490909,2.52654545 C9.80363636,2.37236364 9.52872727,2.58036364 9.43272727,2.57236364 C9.21090909,2.55490909 9.30472727,2.19418182 9.38836364,2.08872727 C9.45309091,2.00509091 9.21163636,1.90254545 9.20872727,2.06254545 C9.20436364,2.30181818 8.98181818,2.51854545 9.03345455,2.83636364 C9.112,3.31563636 8.49890909,2.72072727 8.44509091,2.75345455 C8.24145455,2.87709091 8.07490909,2.59781818 8.18036364,2.43054545 C8.288,2.25963636 8.54763636,2.26763636 8.65454545,2.08436364 C8.73018182,1.95490909 8.81818182,1.80436364 8.93454545,1.70618182 C9.32363636,1.37963636 9.43127273,1.64072727 9.81890909,1.67636364 C10.1978182,1.71127273 9.94690909,1.76654545 9.89454545,1.912 C9.84436364,2.05018182 10.1025455,2.09963636 10.192,1.984 C10.2429091,1.91709091 10.3585455,1.74909091 10.4087273,1.62472727 C10.4734545,1.46327273 11.064,1.48145455 10.6516364,1.23490909 C10.3796364,1.07272727 9.19418182,0.746181818 8.4,0.746181818 C8.22836364,0.746181818 8.10836364,0.937454545 7.97745455,1.04581818 C7.71854545,1.26036364 7.05527273,1.68145455 6.68654545,1.55345455 C6.30909091,1.42327273 5.50109091,2.03345455 5.37163636,2.03781818 C5.32436364,2.04072727 5.37454545,1.57672727 5.632,1.54254545 C5.52072727,1.55927273 6.53890909,1.02836364 6.51127273,0.917818182 C6.47781818,0.786909091 4.47563636,1.51563636 4.56509091,1.66181818 C4.608,1.72872727 4.78254545,1.72872727 4.55345455,1.87563636 C4.42254545,1.95490909 4.28290909,2.45818182 4.16,2.45818182 C3.79272727,2.61890909 3.76945455,2.14181818 3.36072727,2.75563636 L2.71054545,3.01745455 C1.74472727,4.04363636 1.07636364,5.34327273 0.834181818,6.78690909 C0.824727273,6.84436364 1.07709091,6.95127273 1.10981818,6.99054545 C1.19127273,7.088 1.19127273,7.50836364 1.23127273,7.64581818 C1.33163636,7.99345455 1.57963636,8.18690909 1.76945455,8.50327273 C1.88145455,8.69163636 2.06763636,9.168 2.00872727,9.36581818 C2.08727273,9.23636364 2.78690909,9.95854545 2.91490909,10.1090909 C3.216,10.4632727 3.448,10.8923636 2.95927273,11.2429091 C2.80145455,11.3563636 3.19927273,12.064 2.99418182,12.2378182 L2.73163636,12.3054545 C2.47272727,12.4647273 2.58981818,12.8552727 2.74690909,13.0196364 C4.06909091,14.4021818 5.93236364,15.2647273 7.99781818,15.2647273 C12.0101818,15.2647273 15.2625455,12.0123636 15.2625455,8 Z M6.89381818,3.37672727 C6.98472727,3.33672727 7.10690909,3.33818182 7.12,3.21672727 C7.13090909,3.10909091 7.152,3.18327273 7.17818182,3.144 C7.20363636,3.10545455 7.12945455,3.04363636 7.09818182,3.03781818 C7.05163636,3.02763636 7.01963636,3.088 6.98981818,3.11345455 L6.93745455,3.12727273 L6.888,3.19054545 L6.89381818,3.22545455 L6.83054545,3.30254545 C6.76872727,3.36363636 6.832,3.40363636 6.89381818,3.37672727 Z"></path>
    </g>
	</symbol>
  <symbol id="Question" viewBox="0 0 14 16" preserveAspectRatio="none">
      <rect id="Rectangle" fill="#484A4D" x="0" y="0" width="14" height="16" rx="2"></rect>
      <path d="M6,12 L8,12 L8,14 L6,14 L6,12 Z M3,5.82205029 C3.01084016,5.26498754 3.11111016,4.75435435 3.30081301,4.2901354 C3.49051585,3.82591644 3.75609585,3.42359938 4.09756098,3.08317215 C4.4390261,2.74274491 4.8509461,2.4771125 5.33333333,2.28626692 C5.81572057,2.09542135 6.35501057,2 6.95121951,2 C7.72087106,2 8.36314106,2.10057926 8.87804878,2.30174081 C9.3929565,2.50290236 9.8075865,2.75306104 10.1219512,3.05222437 C10.4363159,3.3513877 10.6612459,3.67375714 10.796748,4.01934236 C10.93225,4.36492758 11,4.68729702 11,4.98646035 C11,5.48162723 10.93225,5.88910221 10.796748,6.20889749 C10.6612459,6.52869277 10.4932259,6.80206205 10.2926829,7.02901354 C10.0921399,7.25596503 9.86991992,7.44938669 9.62601626,7.60928433 C9.3821126,7.76918197 9.1517626,7.92907721 8.93495935,8.08897485 C8.7181561,8.2488725 8.5257461,8.43197834 8.35772358,8.63829787 C8.18970106,8.84461741 8.08401106,9.10251296 8.04065041,9.41199226 L8.04065041,10 L5.84552846,10 L5.84552846,9.30367505 C5.87804894,8.86008805 5.96747894,8.48871845 6.11382114,8.18955513 C6.26016333,7.8903918 6.43089333,7.6350752 6.62601626,7.42359768 C6.82113919,7.21212015 7.02709919,7.02901431 7.24390244,6.87427466 C7.46070569,6.71953501 7.66124569,6.56479768 7.84552846,6.41005803 C8.02981122,6.25531838 8.17886122,6.08510731 8.29268293,5.89941973 C8.40650463,5.71373215 8.45799463,5.48162615 8.44715447,5.20309478 C8.44715447,4.72855985 8.32520447,4.3778219 8.08130081,4.15087041 C7.83739715,3.92391892 7.49864715,3.81044487 7.06504065,3.81044487 C6.77235626,3.81044487 6.52032626,3.86460294 6.30894309,3.9729207 C6.09755992,4.08123845 5.92411992,4.22565996 5.78861789,4.40618956 C5.65311585,4.58671915 5.55284585,4.7981935 5.48780488,5.04061896 C5.4227639,5.28304441 5.3902439,5.54351892 5.3902439,5.82205029 L3,5.82205029 Z" id="?" fill="#FFFFFF"></path>
  </symbol>
  <symbol id="Question-r" viewBox="0 0 14 16" preserveAspectRatio="none">
      <rect id="Rectangle" fill="#B42025" x="0" y="0" width="14" height="16" rx="2"></rect>
      <path d="M6,12 L8,12 L8,14 L6,14 L6,12 Z M3,5.82205029 C3.01084016,5.26498754 3.11111016,4.75435435 3.30081301,4.2901354 C3.49051585,3.82591644 3.75609585,3.42359938 4.09756098,3.08317215 C4.4390261,2.74274491 4.8509461,2.4771125 5.33333333,2.28626692 C5.81572057,2.09542135 6.35501057,2 6.95121951,2 C7.72087106,2 8.36314106,2.10057926 8.87804878,2.30174081 C9.3929565,2.50290236 9.8075865,2.75306104 10.1219512,3.05222437 C10.4363159,3.3513877 10.6612459,3.67375714 10.796748,4.01934236 C10.93225,4.36492758 11,4.68729702 11,4.98646035 C11,5.48162723 10.93225,5.88910221 10.796748,6.20889749 C10.6612459,6.52869277 10.4932259,6.80206205 10.2926829,7.02901354 C10.0921399,7.25596503 9.86991992,7.44938669 9.62601626,7.60928433 C9.3821126,7.76918197 9.1517626,7.92907721 8.93495935,8.08897485 C8.7181561,8.2488725 8.5257461,8.43197834 8.35772358,8.63829787 C8.18970106,8.84461741 8.08401106,9.10251296 8.04065041,9.41199226 L8.04065041,10 L5.84552846,10 L5.84552846,9.30367505 C5.87804894,8.86008805 5.96747894,8.48871845 6.11382114,8.18955513 C6.26016333,7.8903918 6.43089333,7.6350752 6.62601626,7.42359768 C6.82113919,7.21212015 7.02709919,7.02901431 7.24390244,6.87427466 C7.46070569,6.71953501 7.66124569,6.56479768 7.84552846,6.41005803 C8.02981122,6.25531838 8.17886122,6.08510731 8.29268293,5.89941973 C8.40650463,5.71373215 8.45799463,5.48162615 8.44715447,5.20309478 C8.44715447,4.72855985 8.32520447,4.3778219 8.08130081,4.15087041 C7.83739715,3.92391892 7.49864715,3.81044487 7.06504065,3.81044487 C6.77235626,3.81044487 6.52032626,3.86460294 6.30894309,3.9729207 C6.09755992,4.08123845 5.92411992,4.22565996 5.78861789,4.40618956 C5.65311585,4.58671915 5.55284585,4.7981935 5.48780488,5.04061896 C5.4227639,5.28304441 5.3902439,5.54351892 5.3902439,5.82205029 L3,5.82205029 Z" id="?" fill="#FFFFFF"></path>
  </symbol>
  <symbol id="Note" viewBox="0 0 14 16" preserveAspectRatio="none">
      <rect id="Rectangle-Copy" fill="#555555" x="0" y="0" width="14" height="16" rx="2"></rect>
      <path d="M2,3 L12,3 L12,4 L2,4 L2,3 Z M2,6 L12,6 L12,7 L2,7 L2,6 Z M2,9 L12,9 L12,10 L2,10 L2,9 Z M2,12 L12,12 L12,13 L2,13 L2,12 Z" id="Rectangle-2" fill="#FFFFFF"></path>
  </symbol>
  <symbol id="Note-i" viewBox="0 0 14 16" preserveAspectRatio="none">
      <rect id="Rectangle-Copy" fill="#999999" x="0" y="0" width="14" height="16" rx="2"></rect>
      <path d="M2,3 L12,3 L12,4 L2,4 L2,3 Z M2,6 L12,6 L12,7 L2,7 L2,6 Z M2,9 L12,9 L12,10 L2,10 L2,9 Z M2,12 L12,12 L12,13 L2,13 L2,12 Z" id="Rectangle-2" fill="#FFFFFF"></path>
      <rect id="Rectangle" fill="#FAAE40" x="6" y="7" width="7" height="8" rx="2"></rect>
      <path d="M9,11 L10,11 L10,13 L9,13 L9,11 Z M9,9 L10,9 L10,10 L9,10 L9,9 Z" id="Rectangle-Copy-15" fill="#FFFFFF"></path>
  </symbol>
  <symbol id="Poll" viewBox="0 0 14 16" preserveAspectRatio="none">
      <rect id="Rectangle-Copy-2" fill="#555555" x="0" y="0" width="14" height="16" rx="2"></rect>
      <path d="M2,10 L4,10 L4,14 L2,14 L2,10 Z M6,3 L8,3 L8,14 L6,14 L6,3 Z M10,5 L12,5 L12,14 L10,14 L10,5 Z" id="Rectangle-3" fill="#FFFFFF"></path>
  </symbol>
  <symbol id="Instructors" viewBox="0 0 14 16" preserveAspectRatio="none">
      <rect id="Rectangle-Copy-3" fill="#FAAE40" x="0" y="0" width="14" height="16" rx="2"></rect>
      <path d="M6,6 L8,6 L8,12 L6,12 L6,6 Z M6,2 L8,2 L8,4 L6,4 L6,2 Z" id="Rectangle-5" fill="#FFFFFF"></path>
  </symbol>
  <symbol id="Students" viewBox="0 0 14 16" preserveAspectRatio="none">
      <rect id="Rectangle-Copy-4" fill="#8CC63F" x="0" y="0" width="14" height="16" rx="2"></rect>
      <path d="M5.275,9.49 C5.28500005,9.7700014 5.3499994,10.007499 5.47,10.2025 C5.5900006,10.397501 5.74749903,10.5524994 5.9425,10.6675 C6.13750098,10.7825006 6.35749878,10.8649997 6.6025,10.915 C6.84750123,10.9650003 7.0999987,10.99 7.36,10.99 C7.560001,10.99 7.7699989,10.9750001 7.99,10.945 C8.2100011,10.9149998 8.41249908,10.8600004 8.5975,10.78 C8.78250093,10.6999996 8.9349994,10.5825008 9.055,10.4275 C9.1750006,10.2724992 9.235,10.0750012 9.235,9.835 C9.235,9.50499835 9.11000125,9.25500085 8.86,9.085 C8.60999875,8.91499915 8.29750188,8.77750052 7.9225,8.6725 C7.54749813,8.56749947 7.1400022,8.47250042 6.7,8.3875 C6.2599978,8.30249957 5.85250188,8.18250077 5.4775,8.0275 C5.10249813,7.87249922 4.79000125,7.6550014 4.54,7.375 C4.28999875,7.0949986 4.165,6.7050025 4.165,6.205 C4.165,5.81499805 4.25249913,5.4800014 4.4275,5.2 C4.60250088,4.9199986 4.82749863,4.69250087 5.1025,4.5175 C5.37750138,4.34249912 5.68749828,4.21250042 6.0325,4.1275 C6.37750173,4.04249957 6.7199983,4 7.06,4 C7.5000022,4 7.90499815,4.03749962 8.275,4.1125 C8.64500185,4.18750037 8.97249858,4.31749907 9.2575,4.5025 C9.54250143,4.68750092 9.76999915,4.93749842 9.94,5.2525 C10.1100009,5.56750157 10.2099999,5.95999765 10.24,6.43 L8.965,6.43 C8.9449999,6.17999875 8.88000055,5.97250082 8.77,5.8075 C8.65999945,5.64249917 8.52000085,5.5100005 8.35,5.41 C8.17999915,5.3099995 7.99250103,5.23750022 7.7875,5.1925 C7.58249898,5.14749977 7.37500105,5.125 7.165,5.125 C6.97499905,5.125 6.78250098,5.13999985 6.5875,5.17 C6.39249903,5.20000015 6.2150008,5.25249962 6.055,5.3275 C5.8949992,5.40250037 5.7650005,5.50249937 5.665,5.6275 C5.5649995,5.75250062 5.515,5.914999 5.515,6.115 C5.515,6.3350011 5.59249923,6.51749927 5.7475,6.6625 C5.90250078,6.80750072 6.0999988,6.92749952 6.34,7.0225 C6.5800012,7.11750047 6.8499985,7.19749967 7.15,7.2625 C7.4500015,7.32750032 7.7499985,7.39499965 8.05,7.465 C8.3700016,7.53500035 8.68249848,7.6199995 8.9875,7.72 C9.29250153,7.8200005 9.56249883,7.95249917 9.7975,8.1175 C10.0325012,8.28250082 10.2224993,8.48999875 10.3675,8.74 C10.5125007,8.99000125 10.585,9.29999815 10.585,9.67 C10.585,10.1400023 10.487501,10.5299984 10.2925,10.84 C10.097499,11.1500015 9.84250158,11.399999 9.5275,11.59 C9.21249843,11.7800009 8.85750198,11.9124996 8.4625,11.9875 C8.06749803,12.0625004 7.67500195,12.1 7.285,12.1 C6.85499785,12.1 6.44500195,12.0550004 6.055,11.965 C5.66499805,11.8749995 5.3200015,11.727501 5.02,11.5225 C4.7199985,11.317499 4.4800009,11.0475017 4.3,10.7125 C4.1199991,10.3774983 4.0200001,9.9700024 4,9.49 L5.275,9.49 Z" id="s" fill="#FFFFFF"></path>
  </symbol>
  <symbol id="Students-confirmed" viewBox="0 0 14 16" preserveAspectRatio="none">
      <rect id="Rectangle-Copy-4" fill="#8CC63F" x="0" y="0" width="14" height="16" rx="2"></rect>
      <path d="M5.275,9.49 C5.28500005,9.7700014 5.3499994,10.007499 5.47,10.2025 C5.5900006,10.397501 5.74749903,10.5524994 5.9425,10.6675 C6.13750098,10.7825006 6.35749878,10.8649997 6.6025,10.915 C6.84750123,10.9650003 7.0999987,10.99 7.36,10.99 C7.560001,10.99 7.7699989,10.9750001 7.99,10.945 C8.2100011,10.9149998 8.41249908,10.8600004 8.5975,10.78 C8.78250093,10.6999996 8.9349994,10.5825008 9.055,10.4275 C9.1750006,10.2724992 9.235,10.0750012 9.235,9.835 C9.235,9.50499835 9.11000125,9.25500085 8.86,9.085 C8.60999875,8.91499915 8.29750188,8.77750052 7.9225,8.6725 C7.54749813,8.56749947 7.1400022,8.47250042 6.7,8.3875 C6.2599978,8.30249957 5.85250188,8.18250077 5.4775,8.0275 C5.10249813,7.87249922 4.79000125,7.6550014 4.54,7.375 C4.28999875,7.0949986 4.165,6.7050025 4.165,6.205 C4.165,5.81499805 4.25249913,5.4800014 4.4275,5.2 C4.60250088,4.9199986 4.82749863,4.69250087 5.1025,4.5175 C5.37750138,4.34249912 5.68749828,4.21250042 6.0325,4.1275 C6.37750173,4.04249957 6.7199983,4 7.06,4 C7.5000022,4 7.90499815,4.03749962 8.275,4.1125 C8.64500185,4.18750037 8.97249858,4.31749907 9.2575,4.5025 C9.54250143,4.68750092 9.76999915,4.93749842 9.94,5.2525 C10.1100009,5.56750157 10.2099999,5.95999765 10.24,6.43 L8.965,6.43 C8.9449999,6.17999875 8.88000055,5.97250082 8.77,5.8075 C8.65999945,5.64249917 8.52000085,5.5100005 8.35,5.41 C8.17999915,5.3099995 7.99250103,5.23750022 7.7875,5.1925 C7.58249898,5.14749977 7.37500105,5.125 7.165,5.125 C6.97499905,5.125 6.78250098,5.13999985 6.5875,5.17 C6.39249903,5.20000015 6.2150008,5.25249962 6.055,5.3275 C5.8949992,5.40250037 5.7650005,5.50249937 5.665,5.6275 C5.5649995,5.75250062 5.515,5.914999 5.515,6.115 C5.515,6.3350011 5.59249923,6.51749927 5.7475,6.6625 C5.90250078,6.80750072 6.0999988,6.92749952 6.34,7.0225 C6.5800012,7.11750047 6.8499985,7.19749967 7.15,7.2625 C7.4500015,7.32750032 7.7499985,7.39499965 8.05,7.465 C8.3700016,7.53500035 8.68249848,7.6199995 8.9875,7.72 C9.29250153,7.8200005 9.56249883,7.95249917 9.7975,8.1175 C10.0325012,8.28250082 10.2224993,8.48999875 10.3675,8.74 C10.5125007,8.99000125 10.585,9.29999815 10.585,9.67 C10.585,10.1400023 10.487501,10.5299984 10.2925,10.84 C10.097499,11.1500015 9.84250158,11.399999 9.5275,11.59 C9.21249843,11.7800009 8.85750198,11.9124996 8.4625,11.9875 C8.06749803,12.0625004 7.67500195,12.1 7.285,12.1 C6.85499785,12.1 6.44500195,12.0550004 6.055,11.965 C5.66499805,11.8749995 5.3200015,11.727501 5.02,11.5225 C4.7199985,11.317499 4.4800009,11.0475017 4.3,10.7125 C4.1199991,10.3774983 4.0200001,9.9700024 4,9.49 L5.275,9.49 Z" id="s" fill="#FFFFFF"></path>
      <path d="M3.5,7.27817459 L1.70710678,9.07106781 L5.94974747,13.3137085 L12.3137085,6.94974747 L10.5208153,5.15685425 L5.94974747,9.72792206 L3.5,7.27817459 Z" id="Rectangle-4" stroke="#FFFFFF" fill="#FAAE40"></path>
  </symbol>
  <symbol id="Aviator" viewBox="0 0 14 16" preserveAspectRatio="none">
      <rect id="Rectangle-Copy-8" fill="#8CC63F" x="0" y="0" width="14" height="16" rx="2"></rect>
      <path d="M10.29,11.905 C10.0699989,12.0350006 9.76500195,12.1 9.375,12.1 C9.04499835,12.1 8.78250098,12.0075009 8.5875,11.8225 C8.39249903,11.6374991 8.295,11.3350021 8.295,10.915 C7.94499825,11.3350021 7.53750232,11.6374991 7.0725,11.8225 C6.60749767,12.0075009 6.1050027,12.1 5.565,12.1 C5.21499825,12.1 4.88250157,12.0600004 4.5675,11.98 C4.25249842,11.8999996 3.98000115,11.7750008 3.75,11.605 C3.51999885,11.4349991 3.33750068,11.2125014 3.2025,10.9375 C3.06749932,10.6624986 3,10.3300019 3,9.94 C3,9.4999978 3.07499925,9.1400014 3.225,8.86 C3.37500075,8.5799986 3.57249877,8.35250087 3.8175,8.1775 C4.06250123,8.00249912 4.34249842,7.87000045 4.6575,7.78 C4.97250157,7.68999955 5.29499835,7.6150003 5.625,7.555 C5.97500175,7.48499965 6.30749843,7.43250017 6.6225,7.3975 C6.93750157,7.36249982 7.2149988,7.31250032 7.455,7.2475 C7.6950012,7.18249967 7.8849993,7.08750062 8.025,6.9625 C8.1650007,6.83749937 8.235,6.6550012 8.235,6.415 C8.235,6.1349986 8.18250052,5.91000085 8.0775,5.74 C7.97249948,5.56999915 7.83750083,5.44000045 7.6725,5.35 C7.50749917,5.25999955 7.32250103,5.20000015 7.1175,5.17 C6.91249898,5.13999985 6.710001,5.125 6.51,5.125 C5.9699973,5.125 5.5200018,5.22749897 5.16,5.4325 C4.7999982,5.63750102 4.60500015,6.02499715 4.575,6.595 L3.3,6.595 C3.3200001,6.1149976 3.4199991,5.71000165 3.6,5.38 C3.7800009,5.04999835 4.0199985,4.78250102 4.32,4.5775 C4.6200015,4.37249897 4.96249807,4.22500045 5.3475,4.135 C5.73250193,4.04499955 6.1449978,4 6.585,4 C6.93500175,4 7.28249827,4.02499975 7.6275,4.075 C7.97250172,4.12500025 8.2849986,4.22749922 8.565,4.3825 C8.8450014,4.53750077 9.06999915,4.7549986 9.24,5.035 C9.41000085,5.3150014 9.495,5.67999775 9.495,6.13 L9.495,10.12 C9.495,10.4200015 9.51249982,10.6399993 9.5475,10.78 C9.58250018,10.9200007 9.699999,10.99 9.9,10.99 C10.0100005,10.99 10.1399992,10.9650003 10.29,10.915 L10.29,11.905 Z M8.22,7.93 C8.0599992,8.0500006 7.8500013,8.13749972 7.59,8.1925 C7.3299987,8.24750027 7.05750142,8.29249982 6.7725,8.3275 C6.48749857,8.36250017 6.20000145,8.40249977 5.91,8.4475 C5.61999855,8.49250022 5.36000115,8.5649995 5.13,8.665 C4.89999885,8.7650005 4.71250072,8.90749907 4.5675,9.0925 C4.42249928,9.27750092 4.35,9.5299984 4.35,9.85 C4.35,10.060001 4.39249957,10.2374993 4.4775,10.3825 C4.56250042,10.5275007 4.67249932,10.6449995 4.8075,10.735 C4.94250067,10.8250004 5.0999991,10.8899998 5.28,10.93 C5.4600009,10.9700002 5.649999,10.99 5.85,10.99 C6.2700021,10.99 6.6299985,10.9325006 6.93,10.8175 C7.2300015,10.7024994 7.47499905,10.5575009 7.665,10.3825 C7.85500095,10.2074991 7.99499955,10.017501 8.085,9.8125 C8.17500045,9.60749897 8.22,9.4150009 8.22,9.235 L8.22,7.93 Z" id="a" fill="#FFFFFF"></path>
  </symbol>
  <symbol id="Exorcist" viewBox="0 0 14 16" preserveAspectRatio="none">
      <rect id="Rectangle-Copy-9" fill="#FAAE40" x="0" y="0" width="14" height="16" rx="2"></rect>
      <path d="M8.805,7.315 C8.7849999,7.0149985 8.71750057,6.73000135 8.6025,6.46 C8.48749942,6.18999865 8.33250097,5.95750097 8.1375,5.7625 C7.94249902,5.56749902 7.71250133,5.41250057 7.4475,5.2975 C7.18249867,5.18249942 6.8900016,5.125 6.57,5.125 C6.23999835,5.125 5.94250132,5.18249942 5.6775,5.2975 C5.41249867,5.41250057 5.18500095,5.569999 4.995,5.77 C4.80499905,5.970001 4.65500055,6.20249867 4.545,6.4675 C4.43499945,6.73250132 4.3700001,7.0149985 4.35,7.315 L8.805,7.315 Z M10.035,9.475 C9.86499915,10.3450043 9.4900029,10.9999978 8.91,11.44 C8.3299971,11.8800022 7.6000044,12.1 6.72,12.1 C6.0999969,12.1 5.56250227,12.000001 5.1075,11.8 C4.65249772,11.599999 4.27000155,11.3200018 3.96,10.96 C3.64999845,10.5999982 3.41750078,10.1700025 3.2625,9.67 C3.10749922,9.1699975 3.0200001,8.62500295 3,8.035 C3,7.44499705 3.0899991,6.90500245 3.27,6.415 C3.4500009,5.92499755 3.70249838,5.5000018 4.0275,5.14 C4.35250163,4.7799982 4.73749777,4.500001 5.1825,4.3 C5.62750223,4.099999 6.11499735,4 6.645,4 C7.33500345,4 7.90749772,4.14249857 8.3625,4.4275 C8.81750227,4.71250142 9.18249862,5.0749978 9.4575,5.515 C9.73250137,5.9550022 9.92249947,6.4349974 10.0275,6.955 C10.1325005,7.4750026 10.1750001,7.96999765 10.155,8.44 L4.35,8.44 C4.33999995,8.7800017 4.37999955,9.10249847 4.47,9.4075 C4.56000045,9.71250152 4.704999,9.98249882 4.905,10.2175 C5.105001,10.4525012 5.35999845,10.6399993 5.67,10.78 C5.98000155,10.9200007 6.3449979,10.99 6.765,10.99 C7.3050027,10.99 7.74749827,10.8650012 8.0925,10.615 C8.43750173,10.3649987 8.66499945,9.98500255 8.775,9.475 L10.035,9.475 Z" id="e" fill="#FFFFFF"></path>
  </symbol>
  <symbol id="badge-gold">
      <circle id="Oval" fill="#DEB42E" cx="8" cy="8" r="8"></circle>
      <polyline fill=none stroke="#FFFFFF" stroke-width="2.5" stroke-linecap="round" points="4 8.5 6.5 11 12 5"></polyline>
  </symbol>
  <symbol id="badge-bronze">
      <circle id="Oval-Copy" fill="#948365" cx="8" cy="8" r="8"></circle>
      <polyline fill=none stroke="#FFFFFF" stroke-width="2.5" stroke-linecap="round" points="4 8.5 6.5 11 12 5"></polyline>
  </symbol>
  <symbol id="user" viewBox="0 0 120 120">
    <rect id="Rectangle" stroke="#DAE5EF" stroke-width="5" fill="#D5E3EE" x="2.5" y="2.5" width="115" height="115"></rect>
    <path d="M42.642334,55.0548512 C39.7423025,52.387805 39,49.2856907 39,47.5 C39,45.6289523 38.456691,43.6708942 41.1221454,42.2248047 C40.2512269,38.1928632 39,34.7779795 39,32.5 C39,23.3873016 46,16 59.5,16 C73,16 80,23.3873016 80,32.5 C80,34.776658 78.7378636,38.1876742 77.8600939,42.2152022 C80.5457187,43.6622189 80,45.6248076 80,47.5 C80,49.2832598 79.2597171,52.3793615 76.3694975,55.0439568 C75.3112304,59.7354769 73.0203652,64.0453462 69.7314923,67 L70,67 C70,86 107,86 107,96 L107,108 L12,108 L12,96 C12,86 49,86 49,67 L49.2667885,67 C45.99475,64.0528063 43.7158945,59.7534821 42.642334,55.0548512 Z" id="Oval-2" fill="#A5C0D8"></path>
  </symbol>
  <symbol id="check" preserveAspectRatio="none">
      <rect id="Rectangle-Copy-27" fill="#55BC75" x="0" y="0" width="29" height="31" rx="4"></rect>
      <path d="M6.52081528,6.52081528 L6.52081528,14.5208153 L26.5208153,14.5208153 L26.5208153,17.5208153 L3.52081528,17.5208153 L3.52081528,6.52081528 L6.52081528,6.52081528 Z" id="Rectangle-3-Copy" fill="#FFFFFF" transform="translate(15.020815, 12.020815) rotate(-45.000000) translate(-15.020815, -12.020815) "></path>
  </symbol>
  <symbol id="exclamation" preserveAspectRatio="none">
      <rect id="Rectangle" fill="#8C383C" x="0" y="0" width="29" height="31" rx="4"></rect>
      <path d="M12,19 L17,19 L17,23 L12,23 L12,19 Z M12,6 L17,6 L17,12 L16,18 L13,18 L12,12 L12,6 Z" id="Rectangle-4" fill="#FFFFFF"></path>
  </symbol>
  <symbol id="Link">
    <circle id="Oval" fill="#C1D3E1" cx="10" cy="10" r="10"></circle>
    <path d="M9,13 L9,15 L7,15 C4.23857625,15 2,12.7614237 2,10 C2,7.23857625 4.23857625,5 7,5 L9,5 L9,7 L7,7 C5.34314575,7 4,8.34314575 4,10 C4,11.6568542 5.34314575,13 7,13 L9,13 Z M11,13 L13,13 C14.6568542,13 16,11.6568542 16,10 C16,8.34314575 14.6568542,7 13,7 L11,7 L11,5 L13,5 C15.7614237,5 18,7.23857625 18,10 C18,12.7614237 15.7614237,15 13,15 L11,15 L11,13 Z M7,9 L13,9 C13.5522847,9 14,9.44771525 14,10 L14,10 C14,10.5522847 13.5522847,11 13,11 L7,11 C6.44771525,11 6,10.5522847 6,10 L6,10 C6,9.44771525 6.44771525,9 7,9 Z" id="Rectangle-2" fill="#FFFFFF"></path>
  </symbol>

</svg>